<svg height="512pt" viewBox="0 0 512 512" width="512pt" xmlns="http://www.w3.org/2000/svg"><path d="m145 222c-79.953125 0-145 65.046875-145 145s65.046875 145 145 145 145-65.046875 145-145-65.046875-145-145-145zm80 160c-8.285156 0-15-6.714844-15-15 0-35.839844-29.160156-65-65-65-8.285156 0-15-6.714844-15-15s6.714844-15 15-15c52.382812 0 95 42.617188 95 95 0 8.285156-6.714844 15-15 15zm0 0"/><path d="m367 222c-33.703125 0-64.753906 11.558594-89.40625 30.917969 26.414062 30.65625 42.40625 70.535156 42.40625 114.082031s-15.992188 83.425781-42.40625 114.082031c24.652344 19.359375 55.703125 30.917969 89.40625 30.917969 79.953125 0 145-65.046875 145-145s-65.046875-145-145-145zm80 160c-8.285156 0-15-6.714844-15-15 0-35.839844-29.160156-65-65-65-8.285156 0-15-6.714844-15-15s6.714844-15 15-15c52.382812 0 95 42.617188 95 95 0 8.285156-6.714844 15-15 15zm0 0"/><path d="m256 0c-79.953125 0-145 65.046875-145 145 0 17.140625 2.996094 33.589844 8.480469 48.867188 8.335937-1.222657 16.851562-1.867188 25.519531-1.867188 42.101562 0 80.773438 14.945312 111 39.808594 30.226562-24.863282 68.898438-39.808594 111-39.808594 8.667969 0 17.183594.644531 25.519531 1.867188 5.484375-15.277344 8.480469-31.726563 8.480469-48.867188 0-79.953125-65.046875-145-145-145zm80 160c-8.285156 0-15-6.714844-15-15 0-35.839844-29.160156-65-65-65-8.285156 0-15-6.714844-15-15s6.714844-15 15-15c52.382812 0 95 42.617188 95 95 0 8.285156-6.714844 15-15 15zm0 0"/></svg>