<svg height="512pt" viewBox="0 0 512 512" width="512pt" xmlns="http://www.w3.org/2000/svg"><path d="m256 90c35.839844 0 65 29.160156 65 65 0 8.285156 6.714844 15 15 15s15-6.714844 15-15c0-52.382812-42.617188-95-95-95-8.285156 0-15 6.714844-15 15s6.714844 15 15 15zm0 0"/><path d="m357 262c-8.285156 0-15 6.714844-15 15s6.714844 15 15 15c35.839844 0 65 29.160156 65 65 0 8.285156 6.714844 15 15 15s15-6.714844 15-15c0-52.382812-42.617188-95-95-95zm0 0"/><path d="m155 262c-8.285156 0-15 6.714844-15 15s6.714844 15 15 15c35.839844 0 65 29.160156 65 65 0 8.285156 6.714844 15 15 15s15-6.714844 15-15c0-52.382812-42.617188-95-95-95zm0 0"/><path d="m401.480469 208.515625c6.253906-17.0625 9.519531-35.257813 9.519531-53.515625 0-85.46875-69.53125-155-155-155s-155 69.53125-155 155c0 18.257812 3.265625 36.453125 9.519531 53.515625-63.855469 19.164063-110.519531 78.472656-110.519531 148.484375 0 85.46875 69.53125 155 155 155 38.519531 0 73.800781-14.128906 100.941406-37.46875 28.078125 24.257812 63.441406 37.46875 101.058594 37.46875 85.46875 0 155-69.53125 155-155 0-70.011719-46.664062-129.320312-110.519531-148.484375zm-261.074219-5.828125c-6.246094-15.074219-9.40625-31.070312-9.40625-47.6875 0-68.925781 56.074219-125 125-125s125 56.074219 125 125c0 16.617188-3.160156 32.613281-9.40625 47.6875-.019531-.003906-.035156 0-.050781 0-4.789063-.449219-9.640625-.6875-14.542969-.6875-37.617188 0-72.980469 13.210938-101.058594 37.46875-27.140625-23.339844-62.421875-37.46875-100.941406-37.46875-4.890625 0-9.726562.238281-14.5.683594-.03125.003906-.0625 0-.09375.003906zm14.59375 279.3125c-68.925781 0-125-56.074219-125-125s56.074219-125 125-125 125 56.074219 125 125-56.074219 125-125 125zm202 0c-29.761719 0-57.777344-10.246094-80.210938-29.109375-.003906-.039063-.003906-.074219-.003906-.113281 20.792969-26.382813 33.214844-59.65625 33.214844-95.777344 0-36.128906-12.425781-69.410156-33.230469-95.796875.007813-.027344.011719-.0625.019531-.09375 22.433594-18.863281 50.449219-29.109375 80.210938-29.109375 68.925781 0 125 56.074219 125 125s-56.074219 125-125 125zm0 0"/></svg>