<svg height="512pt" viewBox="0 -30 512 512" width="512pt" xmlns="http://www.w3.org/2000/svg"><path d="m135.144531 179.707031c-30.90625 0-60.789062-10.3125-85.003906-29.855469-31.859375-25.71875-50.140625-63.9375-50.140625-104.851562v-30c0-8.289062 6.710938-15 15-15h30c40.914062 0 79.117188 18.265625 104.824219 50.128906 25.796875 31.976563 35.492187 73.855469 26.617187 114.898438-1.246094 5.742187-5.742187 10.242187-11.5 11.484375-9.929687 2.140625-19.921875 3.195312-29.796875 3.195312zm0 0" fill="#725d57"/><path d="m30 30v15c0 31.800781 14.210938 61.507812 38.980469 81.503906 22.324219 18.03125 50.902343 25.914063 79.816406 22.355469 3.605469-28.886719-4.289063-57.539063-22.324219-79.894531-19.980468-24.769532-49.671875-38.964844-81.472656-38.964844zm0 0" fill="#53433f"/><path d="m375.546875 180c-9.84375 0-19.804687-1.054688-29.707031-3.179688-5.742188-1.230468-10.238282-5.710937-11.5-11.453124-8.992188-40.972657.628906-82.867188 26.410156-114.917969 25.796875-32.066407 64.144531-50.449219 105.25-50.449219h31c8.289062 0 15 6.710938 15 15v30c0 40.972656-19.296875 79.246094-51.199219 105.027344-24.273437 19.617187-54.257812 29.972656-85.253906 29.972656zm0 0" fill="#68544f"/><path d="m361.9375 149.148438c28.976562 3.589843 57.640625-4.363282 80.011719-22.453126 24.8125-20.054687 40.050781-49.835937 40.050781-81.695312v-15h-16c-31.964844 0-61.800781 14.3125-81.871094 39.242188-18.015625 22.414062-25.882812 51.066406-22.191406 79.90625zm0 0" fill="#3e322e"/><path d="m448.898438 308.699219c-13.5 80.101562-94.796876 142.300781-192.898438 142.300781s-180.398438-62.199219-193.898438-142.300781c-17.101562-137.398438 60.699219-308.699219 193.898438-308.699219 133.800781 0 210 171.898438 192.898438 308.699219zm0 0" fill="#725d57"/><path d="m448.898438 308.699219c-13.5 80.101562-94.796876 142.300781-192.898438 142.300781v-451c133.800781 0 210 171.898438 192.898438 308.699219zm0 0" fill="#68544f"/><path d="m180 135c0 8.285156-6.714844 15-15 15s-15-6.714844-15-15 6.714844-15 15-15 15 6.714844 15 15zm0 0" fill="#53433f"/><path d="m361 135c0 8.285156-6.714844 15-15 15s-15-6.714844-15-15 6.714844-15 15-15 15 6.714844 15 15zm0 0" fill="#3e322e"/><path d="m512 255v30c0 41.398438-34.601562 75-76 75h-361c-41.398438 0-75-33.601562-75-75v-30c0-6.902344 4.800781-12.898438 11.699219-14.699219 6.601562-1.5 13.5 1.800781 16.800781 8.097657l5.101562 10.203124c12.597657 25.496094 38.699219 41.398438 66.898438 41.398438h310c28.199219 0 55.300781-15.902344 67.898438-41.398438l5.097656-10.203124c3.300781-6.296876 10.203125-9.597657 16.800781-8.097657 6.902344 1.800781 11.703125 7.796875 11.703125 14.699219zm0 0" fill="#ede9e8"/><path d="m512 255v30c0 41.398438-34.601562 75-76 75h-180v-60h154.5c28.199219 0 55.300781-15.902344 67.898438-41.398438l5.101562-10.203124c3.300781-6.296876 10.199219-9.597657 16.800781-8.097657 6.898438 1.800781 11.699219 7.796875 11.699219 14.699219zm0 0" fill="#dfd7d5"/><path d="m256 180c-74.398438 0-136 47.101562-136 105 0 75 95.5 75 136 75s135 0 135-75c0-57.898438-60.601562-105-135-105zm0 0" fill="#fed2a4"/><path d="m391 285c0 75-94.5 75-135 75v-180c74.398438 0 135 47.101562 135 105zm0 0" fill="#ffbd86"/><path d="m226 300c-8.289062 0-15-6.710938-15-15v-30c0-8.289062 6.710938-15 15-15s15 6.710938 15 15v30c0 8.289062-6.710938 15-15 15zm0 0" fill="#725d57"/><path d="m286 300c-8.289062 0-15-6.710938-15-15v-30c0-8.289062 6.710938-15 15-15s15 6.710938 15 15v30c0 8.289062-6.710938 15-15 15zm0 0" fill="#53433f"/></svg>