<?xml version="1.0" encoding="iso-8859-1"?>
<!-- Generator: Adobe Illustrator 19.0.0, SVG Export Plug-In . SVG Version: 6.00 Build 0)  -->
<svg version="1.1" id="Capa_1" xmlns="http://www.w3.org/2000/svg" xmlns:xlink="http://www.w3.org/1999/xlink" x="0px" y="0px"
	 viewBox="0 0 512 512" style="enable-background:new 0 0 512 512;" xml:space="preserve">
<g>
	<g>
		<g>
			<path d="M347.424,109.714C347.424,60.022,306.638,0,255.995,0s-91.429,60.022-91.429,109.714v54.857h182.857V109.714z
				 M241.665,40.067c-21.589,10.353-40.527,42.902-40.527,69.647v9.143c0,5.049-4.093,9.143-9.143,9.143s-9.143-4.093-9.143-9.143
				v-9.143c0-34.031,22.839-72.674,50.902-86.138c4.554-2.185,10.016-0.264,12.201,4.29C248.14,32.42,246.219,37.882,241.665,40.067
				z"/>
			<path d="M365.719,438.857l-0.009-256H146.281v256h210.286H365.719z M182.853,402.286c0,5.049-4.093,9.143-9.143,9.143
				c-5.049,0-9.143-4.093-9.143-9.143V219.429c0-5.049,4.093-9.143,9.143-9.143c5.049,0,9.143,4.093,9.143,9.143V402.286z"/>
			<rect x="164.567" y="457.143" width="182.857" height="18.286"/>
			<polygon points="356.567,493.714 155.424,493.714 146.281,493.714 146.281,512 365.719,512 365.71,493.714 			"/>
		</g>
	</g>
</g>
<g>
</g>
<g>
</g>
<g>
</g>
<g>
</g>
<g>
</g>
<g>
</g>
<g>
</g>
<g>
</g>
<g>
</g>
<g>
</g>
<g>
</g>
<g>
</g>
<g>
</g>
<g>
</g>
<g>
</g>
</svg>
