<svg id="Capa_1" enable-background="new 0 0 512 512" height="512" viewBox="0 0 512 512" width="512" xmlns="http://www.w3.org/2000/svg"><g><g><path d="m326.555 465.435h-141.11c-10.649 0-19.283 8.633-19.283 19.283 0 10.649 8.633 19.283 19.283 19.283h141.11c10.649 0 19.283-8.633 19.283-19.283-.001-10.65-8.634-19.283-19.283-19.283z" fill="#f7e471"/><path d="m326.555 486h-141.11c-7.397 0-13.813-4.17-17.047-10.283-1.422 2.688-2.235 5.748-2.235 9 0 10.649 8.633 19.283 19.283 19.283h141.11c10.649 0 19.283-8.633 19.283-19.283 0-3.252-.813-6.312-2.235-9-3.236 6.113-9.652 10.283-17.049 10.283z" fill="#f1cb66"/><path d="m192.52 426.87h126.961v38.565h-126.961z" fill="#f1cb66"/><path d="m192.52 447.435h126.961v18h-126.961z" fill="#ebb059"/><path d="m334.369 426.87h-156.738v-140.886c0-31.588 8.324-62.619 24.134-89.966h108.47c15.81 27.347 24.134 58.377 24.134 89.966z" fill="#f7e471"/><path d="m201.765 157.453h108.47v38.565h-108.47z" fill="#f1cb66"/><path d="m201.765 178.018h108.47v18h-108.47z" fill="#ebb059"/><path d="m310.235 157.453s-.776-149.453-54.235-149.453-54.235 149.453-54.235 149.453z" fill="#9d7d52"/><path d="m202.402 139.453c-.6 10.983-.637 18-.637 18h108.47s-.038-7.017-.638-18z" fill="#8a6d49"/></g><path d="m327.119 458.341v-23.621h7.404c4.15 0 7.515-3.364 7.515-7.515v-141.162c0-32.234-8.369-64.022-24.182-92.09v-36.693c0-.006-.001-.012-.001-.019s.001-.014.001-.021c-.008-1.556-.278-38.535-7.208-76.194-9.896-53.765-28.282-81.026-54.648-81.026-20.143 0-35.727 16.041-46.318 47.678-1.318 3.935.804 8.194 4.74 9.512 3.936 1.319 8.194-.805 9.511-4.741 8.313-24.83 19.102-37.42 32.067-37.42 35.276 0 45.404 92.789 46.684 134.716h-93.327c.453-13.178 2.015-41.61 7.37-69.133.793-4.074-1.867-8.02-5.941-8.812-4.072-.788-8.019 1.868-8.812 5.941-7.534 38.722-7.821 77.834-7.83 79.479 0 .007.001.014.001.021 0 .006-.001.012-.001.019v36.693c-15.813 28.068-24.182 59.855-24.182 92.09v141.161c0 4.151 3.365 7.515 7.515 7.515h7.404v23.621c-14.6.23-26.408 12.17-26.408 26.825 0 14.796 12.038 26.835 26.835 26.835h141.386c14.797 0 26.835-12.038 26.835-26.835-.001-14.654-11.809-26.595-26.41-26.824zm-142.127-172.298c0-28.856 7.288-57.324 21.085-82.627h42.468c4.15 0 7.515-3.364 7.515-7.515s-3.365-7.515-7.515-7.515h-39.371v-23.612h93.653v23.612h-24.223c-4.15 0-7.515 3.364-7.515 7.515s3.364 7.515 7.515 7.515h27.32c13.797 25.303 21.085 53.772 21.085 82.627v133.647h-142.017zm141.701 210.928h-141.386c-6.51 0-11.806-5.296-11.806-11.805 0-6.51 5.296-11.806 11.806-11.806h42.288c4.15 0 7.515-3.364 7.515-7.515s-3.365-7.515-7.515-7.515h-27.685v-23.611h112.18v23.611h-54.436c-4.15 0-7.515 3.364-7.515 7.515s3.365 7.515 7.515 7.515h69.039c6.51 0 11.806 5.297 11.806 11.806s-5.297 11.805-11.806 11.805z"/></g></svg>