<svg id="Layer_5" enable-background="new 0 0 64 64" height="512" viewBox="0 0 64 64" width="512" xmlns="http://www.w3.org/2000/svg"><g><g><g><path d="m53.6 61.2c-.37.5-.97.8-1.6.8-.44 0-.85-.14-1.2-.4l-3.04-2.28c-1.18-.89-1.78-2.35-1.55-3.81l1.61-10.49-5.37-3.22c-.55-2.16-1.47-4.12-2.46-5.8h.01c.36 0 .72.1 1.03.28l8.85 5.31c1.4.84 2.14 2.43 1.89 4.04l-1.61 10.49 3.04 2.28c.43.32.7.79.78 1.32s-.06 1.05-.38 1.48z" fill="#b4dd7f"/></g><g><path d="m22.97 36.28c.31-.18.67-.28 1.03-.28h.01c-.99 1.68-1.91 3.64-2.46 5.8l-5.37 3.22 1.61 10.49c.23 1.46-.37 2.92-1.55 3.81l-3.04 2.28c-.35.26-.76.4-1.2.4-.63 0-1.23-.3-1.6-.8-.32-.43-.46-.95-.38-1.48s.35-1 .78-1.32l3.04-2.28-1.61-10.49c-.25-1.61.49-3.2 1.89-4.04z" fill="#b4dd7f"/></g><g><path d="m29 30h-.22-10.78l-8.4 11.2c-.37.5-.97.8-1.6.8-.44 0-.85-.14-1.2-.4-.43-.32-.7-.79-.78-1.32s.06-1.05.38-1.48l8.4-11.2c.75-1 1.95-1.6 3.2-1.6h8.4c.8 2.2 2.6 4 2.6 4z" fill="#b4dd7f"/></g><g><path d="m57.6 38.8c.32.43.46.95.38 1.48s-.35 1-.78 1.32c-.35.26-.76.4-1.2.4-.63 0-1.23-.3-1.6-.8l-8.4-11.2h-10.78-.22s1.8-1.8 2.6-4h8.4c1.25 0 2.45.6 3.2 1.6z" fill="#b4dd7f"/></g><g><path d="m28.09 15.72.91 2.28s-.92.92-1.74 2.25l-3.94 1.31c-.87.29-1.79.44-2.72.44-4.75 0-8.6-3.85-8.6-8.6v-1.4c0-1.1.9-2 2-2l6.18 6.18c1.11 1.11 2.76 1.47 4.23.92z" fill="#a0d468"/></g><g><path d="m35.91 15.72 3.68 1.38c1.47.55 3.12.19 4.23-.92l6.18-6.18c1.1 0 2 .9 2 2v1.4c0 2.38-.96 4.52-2.52 6.08s-3.7 2.52-6.08 2.52c-.93 0-1.85-.15-2.72-.44l-3.94-1.31c-.82-1.33-1.74-2.25-1.74-2.25z" fill="#a0d468"/></g><g><path d="m35.22 30h-.22-3-3-.22s-1.98 1.78-3.93 4.69l1.34 2.68c3.82 7.65 5.81 16.08 5.81 24.63 0-8.55 1.99-16.98 5.81-24.63l1.34-2.68c-1.95-2.91-3.93-4.69-3.93-4.69z" fill="#8cc152"/></g><g><path d="m26.19 37.37c3.82 7.65 5.81 16.08 5.81 24.63-.67 0-1.32-.22-1.84-.64-2.41-1.92-9.16-7.96-9.16-15.36 0-1.46.2-2.87.55-4.2.55-2.16 1.47-4.12 2.46-5.8h.01c.27-.46.54-.9.83-1.31z" fill="#a0d468"/></g><g><path d="m42.45 41.8c.35 1.33.55 2.74.55 4.2 0 7.4-6.75 13.44-9.16 15.36-.52.42-1.17.64-1.84.64 0-8.55 1.99-16.98 5.81-24.63l1.34-2.68c.29.41.56.85.83 1.31h.01c.99 1.68 1.91 3.64 2.46 5.8z" fill="#a0d468"/></g><g><path d="m35 11c0 1.1.9 2 2 2l-1.09 2.72-.91 2.28h-6l-.91-2.28-1.09-2.72c1.1 0 2-.9 2-2 0-.56-.24-1.08-.62-1.44.37-.38.79-.71 1.26-.96.7-.38 1.5-.6 2.36-.6s1.66.22 2.36.6c.47.25.89.58 1.26.96-.38.36-.62.88-.62 1.44z" fill="#b4dd7f"/></g><g><path d="m38 24c0 .68-.15 1.36-.4 2-.8 2.2-2.6 4-2.6 4h-3-3s-1.8-1.8-2.6-4c-.25-.64-.4-1.32-.4-2 0-1.34.6-2.68 1.26-3.75.82-1.33 1.74-2.25 1.74-2.25h6s.92.92 1.74 2.25c.66 1.07 1.26 2.41 1.26 3.75z" fill="#a0d468"/></g><g><path d="m29 11c0 1.1-.9 2-2 2s-2-.9-2-2 .9-2 2-2c.54 0 1.02.21 1.38.56.38.36.62.88.62 1.44z" fill="#656d78"/></g><g><path d="m39 11c0 1.1-.9 2-2 2s-2-.9-2-2c0-.56.24-1.08.62-1.44.36-.35.84-.56 1.38-.56 1.1 0 2 .9 2 2z" fill="#656d78"/></g></g><path d="m62.211 13.614 1.578-1.229-7.695-9.894-6.508 6.509-.293.293-6.179 6.179c-.829.83-2.077 1.1-3.175.688l-2.718-1.019.494-1.236c1.309-.324 2.285-1.499 2.285-2.905 0-1.654-1.346-3-3-3-.464 0-.898.115-1.291.304-.039-.031-.078-.061-.117-.091l2.337-5.841-1.857-.742-2.26 5.651c-.579-.185-1.187-.281-1.812-.281s-1.233.096-1.811.28l-2.26-5.651-1.857.742 2.336 5.842c-.039.03-.078.06-.117.091-.393-.189-.827-.304-1.291-.304-1.654 0-3 1.346-3 3 0 1.406.976 2.581 2.285 2.904l.494 1.236-2.718 1.019c-1.096.412-2.344.144-3.175-.688l-6.179-6.179-.293-.292-6.508-6.508-7.695 9.894 1.578 1.229 6.305-8.106 4.107 4.107c-.725.547-1.201 1.407-1.201 2.384v1.396c0 5.295 4.309 9.604 9.604 9.604 1.033 0 2.055-.166 3.037-.493l1.723-.574c-.221.664-.364 1.361-.364 2.067 0 .336.039.67.095 1h-7.095c-1.567 0-3.063.749-4 2.002l-8.398 11.197c-.481.641-.685 1.43-.572 2.226.114.794.531 1.496 1.173 1.977.523.391 1.144.598 1.796.598.941 0 1.84-.45 2.401-1.202l8.1-10.799 7.925.001c-.88.996-1.979 2.382-3.028 4.082-.328.068-.648.171-.94.345l-8.849 5.31c-1.748 1.049-2.678 3.029-2.369 5.047l1.522 9.896-2.56 1.919c-.642.479-1.058 1.182-1.173 1.979-.111.792.092 1.582.573 2.222.562.752 1.459 1.2 2.4 1.2.653 0 1.275-.208 1.798-.601l3.041-2.28c1.48-1.109 2.225-2.934 1.942-4.761l-1.511-9.823 2.886-1.732c-.092.719-.157 1.448-.157 2.197 0 7.707 6.669 13.856 9.536 16.142.693.553 1.568.858 2.464.858s1.771-.305 2.463-.857c2.868-2.287 9.537-8.436 9.537-16.143 0-.749-.065-1.478-.158-2.197l2.886 1.732-1.511 9.823c-.282 1.827.462 3.651 1.942 4.761l3.04 2.28c.525.393 1.147.601 1.8.601.941 0 1.839-.448 2.399-1.198.481-.642.685-1.432.572-2.227-.115-.795-.531-1.497-1.172-1.975l-2.561-1.921 1.522-9.897c.309-2.017-.621-3.997-2.369-5.046l-8.852-5.312c-.291-.173-.61-.276-.937-.343-1.049-1.7-2.148-3.086-3.028-4.082l7.925-.001 8.099 10.798c.564.754 1.463 1.204 2.404 1.204.652 0 1.273-.207 1.798-.599.641-.48 1.058-1.183 1.172-1.979.112-.794-.091-1.583-.571-2.222l-8.398-11.198c-.939-1.253-2.435-2.002-4.002-2.002h-7.095c.056-.33.095-.664.095-1 0-.706-.143-1.403-.363-2.067l1.724.575c.981.326 2.002.492 3.035.492 5.295 0 9.604-4.309 9.604-9.604v-1.396c0-.977-.476-1.837-1.201-2.385l4.107-4.107zm-33.032 17.386h1.821v16.272c-.97-3.567-2.268-7.044-3.919-10.347l-1.07-2.14c1.35-1.921 2.635-3.262 3.168-3.785zm3.821 0h1.822c.534.522 1.82 1.861 3.17 3.781l-1.073 2.143c-1.651 3.304-2.949 6.781-3.919 10.348zm1.563-2h-5.127c-.686-.773-2.436-2.945-2.436-5s1.75-4.227 2.437-5h5.127c.686.773 2.436 2.945 2.436 5s-1.75 4.227-2.437 5zm3.437-18c0 .552-.448 1-1 1s-1-.448-1-1 .448-1 1-1 1 .448 1 1zm-3.709-1.267c-.182.386-.291.813-.291 1.267 0 1.169.678 2.172 1.656 2.667l-1.333 3.333h-4.646l-1.333-3.333c.978-.495 1.656-1.498 1.656-2.667 0-.454-.109-.881-.291-1.267.669-.475 1.459-.733 2.291-.733s1.622.258 2.291.733zm-7.291.267c.552 0 1 .448 1 1s-.448 1-1 1-1-.448-1-1 .448-1 1-1zm-3.991 10.609c-.779.26-1.587.391-2.405.391-4.193 0-7.604-3.411-7.604-7.604v-1.396c0-.428.271-.794.649-.937l5.822 5.822c1.384 1.384 3.462 1.831 5.292 1.146l2.758-1.034.316.791c-.324.372-.775.929-1.227 1.62zm-5.509 8.39-8.7 11.601c-.318.427-.969.523-1.399.2-.214-.16-.353-.395-.391-.658-.038-.265.029-.528.19-.742l8.4-11.2c.563-.751 1.46-1.2 2.4-1.2h7.727c.342.749.761 1.431 1.162 2zm-2.41 15.513 1.716 11.151c.169 1.096-.277 2.19-1.165 2.856l-3.042 2.28c-.425.322-1.081.225-1.397-.199-.163-.218-.229-.474-.191-.74s.176-.5.391-.66l3.52-2.64-1.704-11.081c-.186-1.21.373-2.399 1.422-3.028l7.118-4.271c-.415.938-.781 1.932-1.07 2.974zm6.91 1.488c0-3.494 1.269-6.69 2.756-9.252l.536 1.071c3.537 7.073 5.472 14.949 5.669 22.855-.057-.036-.124-.053-.178-.096-2.06-1.642-8.783-7.549-8.783-14.578zm11.216 14.579c-.053.042-.12.06-.177.096.197-7.906 2.132-15.782 5.669-22.855l.538-1.076c1.487 2.559 2.754 5.755 2.754 9.256 0 7.029-6.723 12.936-8.784 14.579zm16.146-18.128c1.049.629 1.607 1.818 1.422 3.027l-1.704 11.083 3.521 2.642c.214.158.352.393.39.656.038.269-.028.524-.192.744-.315.42-.97.518-1.397.197l-3.041-2.28c-.888-.666-1.334-1.761-1.165-2.856l1.716-11.151-5.596-3.358c-.289-1.042-.655-2.036-1.07-2.974zm-3.362-15.451c.94 0 1.837.449 2.4 1.201l8.4 11.201c.16.212.228.475.189.737-.038.266-.177.5-.39.66-.431.323-1.08.227-1.401-.201l-8.699-11.6-9.388.002c.401-.569.82-1.251 1.162-2zm5-13.604c0 4.193-3.411 7.604-7.604 7.604-.818 0-1.627-.131-2.404-.39l-3.603-1.201c-.452-.691-.904-1.249-1.227-1.62l.316-.791 2.758 1.034c1.831.685 3.909.237 5.292-1.146l5.822-5.822c.379.142.65.508.65.936z"/></g></svg>