<svg id="Capa_1" enable-background="new 0 0 512 512" height="512" viewBox="0 0 512 512" width="512" xmlns="http://www.w3.org/2000/svg"><g><g><path d="m496.11 318.154v-244.919c0-23.866-19.347-43.214-43.214-43.214-3.508 0-6.999.418-10.402 1.27-25.662 6.425-131.046 40.022-153.465 162.575z" fill="#565e75"/></g><g><path d="m289.03 193.866c14.404-78.743 63.058-120.758 102.811-142.441l.197-.017c-11.949 5.719-16.999 20.042-11.28 31.991s20.042 16.999 31.991 11.28l35.39 24.256c0 13.247 10.739 23.986 23.986 23.986s23.986-10.739 23.986-23.986v199.22z" fill="#404656"/></g><g><path d="m448.139 79.502c-11.46 3.483-33.323 11.622-54.619 27.76-22.297 16.899-38.568 38.412-48.605 64.197l103.224 61.954z" fill="#f8c7a5"/></g><g><path d="m15.89 318.154v-244.919c0-23.866 19.347-43.214 43.214-43.214 3.508 0 6.999.418 10.402 1.27 25.662 6.425 131.046 40.022 153.465 162.575z" fill="#565e75"/></g><g><path d="m222.97 193.866c-14.404-78.743-63.058-120.758-102.811-142.441l-.197-.017c11.949 5.719 16.999 20.042 11.28 31.991s-20.042 16.999-31.991 11.28l-35.39 24.256c0 13.247-10.739 23.986-23.986 23.986s-23.985-10.74-23.985-23.987v199.22z" fill="#404656"/></g><g><path d="m63.861 79.502c11.46 3.483 33.323 11.622 54.619 27.76 22.297 16.899 38.568 38.412 48.605 64.197l-103.224 61.954z" fill="#f8c7a5"/></g><g><path d="m510.412 398.915c-6.661-21.804-14.302-52.888-14.302-80.762 0-132.609-107.501-240.11-240.11-240.11s-240.11 107.501-240.11 240.111v.003c-.001 27.873-7.641 58.956-14.302 80.759-5.356 17.53 3.209 36.349 20.047 43.591 44.087 15.697 132.681-14.515 132.681-14.515h203.367s88.594 30.212 132.681 14.515c16.839-7.243 25.403-26.062 20.048-43.592z" fill="#676e7f"/></g><g><path d="m21.635 442.507c44.087 15.697 132.681-14.515 132.681-14.515h94.98c-134.429-89.404-154.284-295.788-75.791-335.4-91.972 33.645-157.615 121.937-157.615 225.562v.003c-.001 27.873-7.641 58.956-14.302 80.759-5.355 17.529 3.209 36.348 20.047 43.591z" fill="#565e75"/></g><g><path d="m417.444 310.003c38.621-72.548-18.933-148.201-63.315-148.201s-58.501 45.318-98.128 45.318-53.746-45.318-98.128-45.318-101.937 75.652-63.317 148.201c47.767 89.73-32.803 146.509-72.921 132.504 37.757 16.24 112.983 39.472 234.365 39.472 121.381 0 196.607-23.232 234.364-39.472-40.118 14.004-120.687-42.775-72.92-132.504z" fill="#fbf1cf"/></g><g><path d="m21.635 442.506c37.757 16.24 112.983 39.472 234.365 39.472 58.242 0 105.83-5.355 143.778-12.713-200.019 4.999-285.143-183.644-270.708-298.102-35.572 22.412-64.992 81.587-34.514 138.839 47.767 89.73-32.803 146.509-72.921 132.504z" fill="#fae0bd"/></g><g><path d="m345.783 380.001c0-49.586-40.197-112.79-89.783-112.79s-89.783 63.205-89.783 112.79 40.197 66.775 89.783 66.775 89.783-17.189 89.783-66.775z" fill="#fae0bd"/></g><g><path d="m213.664 380.001c0-41.373 27.987-92.218 66.059-107.929-7.558-3.119-15.51-4.862-23.723-4.862-49.586 0-89.783 63.204-89.783 112.79 0 49.585 40.197 66.775 89.783 66.775 8.215 0 16.164-.484 23.723-1.497-38.069-5.099-66.059-23.906-66.059-65.277z" fill="#f8c7a5"/></g><g><g><g><path d="m157.866 241.052c-.002 0-.004 0-.006 0-4.142-.003-7.497-3.363-7.494-7.506l.012-15.7c.003-4.14 3.36-7.494 7.5-7.494h.006c4.142.003 7.497 3.363 7.494 7.506l-.012 15.7c-.003 4.139-3.36 7.494-7.5 7.494z" fill="#565e75"/></g><g><path d="m354.122 241.215c-.002 0-.004 0-.006 0-4.142-.003-7.497-3.363-7.494-7.506l.012-15.699c.003-4.14 3.36-7.494 7.5-7.494h.006c4.142.003 7.497 3.363 7.494 7.506l-.012 15.699c-.003 4.139-3.36 7.494-7.5 7.494z" fill="#565e75"/></g></g><path d="m285.289 370.404-21.789-21.789v-37.467c0-4.143-3.357-7.5-7.5-7.5s-7.5 3.357-7.5 7.5v37.467l-21.789 21.789c-2.929 2.93-2.929 7.678 0 10.607 2.93 2.928 7.678 2.928 10.607 0l18.682-18.682 18.682 18.683c1.465 1.464 3.385 2.196 5.304 2.196s3.839-.732 5.304-2.196c2.928-2.93 2.928-7.678-.001-10.608z" fill="#f8c7a5"/></g><g><path d="m314.603 262.846c0 32.366-26.238 58.603-58.603 58.603s-58.603-26.238-58.603-58.603 117.206-32.365 117.206 0z" fill="#676e7f"/></g><g><path d="m256 262.847c0-9.148.54-17.197 1.54-24.261-29.806-.289-60.143 7.795-60.143 24.261 0 32.366 26.238 58.603 58.603 58.603 10.678 0 20.68-2.87 29.302-7.86-17.512-10.134-29.302-29.056-29.302-50.743z" fill="#565e75"/></g></g></svg>