<svg id="Capa_1" enable-background="new 0 0 512 512" height="512" viewBox="0 0 512 512" width="512" xmlns="http://www.w3.org/2000/svg"><path d="m198.716 81.409c.804 3.276 3.76 5.706 7.284 5.706 4.143 0 7.5-3.357 7.5-7.5 0-21.205 0-9.173 0-60.274 0-2.394 1.947-4.341 4.341-4.341h38.159c4.143 0 7.5-3.357 7.5-7.5s-3.357-7.5-7.5-7.5h-38.159c-10.665 0-19.341 8.676-19.341 19.341v5.268c-14.549 1.27-26 13.519-26 28.391 0 14.946 11.565 27.242 26.216 28.409zm-.216-41.677v26.535c-6.254-1.176-11-6.677-11-13.268s4.746-12.091 11-13.267z"/><path d="m339.5 139.64c0-14.873-11.451-27.121-26-28.391v-29.858c14.549-1.27 26-13.519 26-28.391s-11.451-27.121-26-28.391v-5.268c0-10.665-8.676-19.341-19.341-19.341h-6.185c-4.143 0-7.5 3.357-7.5 7.5s3.357 7.5 7.5 7.5h6.185c2.394 0 4.341 1.947 4.341 4.341v250.318c0 2.394-1.947 4.341-4.341 4.341h-76.318c-2.394 0-4.341-1.947-4.341-4.341 0-50.621 0-107.177 0-157.582 0-4.143-3.357-7.5-7.5-7.5-3.861 0-7.04 2.917-7.454 6.667-14.57 1.249-26.046 13.507-26.046 28.395 0 14.873 11.451 27.121 26 28.391v29.858c-14.549 1.27-26 13.519-26 28.391s11.451 27.121 26 28.391v14.988c0 10.665 8.676 19.341 19.341 19.341h.659v161.5c0 7.269 2.475 13.97 6.627 19.307-6.927 3.84-11.627 11.228-11.627 19.693 0 12.406 10.094 22.5 22.5 22.5h40c12.406 0 22.5-10.094 22.5-22.5 0-8.465-4.7-15.854-11.627-19.693 4.151-5.336 6.627-12.038 6.627-19.307v-35.552c0-4.143-3.357-7.5-7.5-7.5s-7.5 3.357-7.5 7.5v35.553c0 9.098-7.402 16.5-16.5 16.5h-12c-9.098 0-16.5-7.402-16.5-16.5v-161.5h45v94.154c0 4.143 3.357 7.5 7.5 7.5s7.5-3.357 7.5-7.5v-94.154h.659c10.665 0 19.341-8.676 19.341-19.341v-14.988c14.549-1.27 26-13.519 26-28.391s-11.451-27.121-26-28.391v-29.858c14.549-1.271 26-13.519 26-28.391zm-152 0c0-6.59 4.746-12.092 11-13.268v26.535c-6.254-1.175-11-6.677-11-13.267zm0 86.64c0-6.59 4.746-12.092 11-13.268v26.535c-6.254-1.175-11-6.676-11-13.267zm88.5 255.72c4.136 0 7.5 3.364 7.5 7.5s-3.364 7.5-7.5 7.5h-40c-4.136 0-7.5-3.364-7.5-7.5s3.364-7.5 7.5-7.5zm48.5-342.36c0 6.59-4.746 12.092-11 13.268v-26.535c6.254 1.175 11 6.676 11 13.267zm0-86.64c0 6.59-4.746 12.092-11 13.268v-26.536c6.254 1.176 11 6.678 11 13.268zm0 173.28c0 6.59-4.746 12.092-11 13.268v-26.535c6.254 1.175 11 6.677 11 13.267z"/><path d="m256 24.5c-15.715 0-28.5 12.785-28.5 28.5s12.785 28.5 28.5 28.5 28.5-12.785 28.5-28.5-12.785-28.5-28.5-28.5zm0 42c-7.444 0-13.5-6.056-13.5-13.5s6.056-13.5 13.5-13.5 13.5 6.056 13.5 13.5-6.056 13.5-13.5 13.5z"/><path d="m256 111.141c-15.715 0-28.5 12.785-28.5 28.5s12.785 28.5 28.5 28.5 28.5-12.785 28.5-28.5-12.785-28.5-28.5-28.5zm0 42c-7.444 0-13.5-6.056-13.5-13.5s6.056-13.5 13.5-13.5 13.5 6.056 13.5 13.5-6.056 13.5-13.5 13.5z"/><path d="m256 197.782c-15.715 0-28.5 12.785-28.5 28.5s12.785 28.5 28.5 28.5 28.5-12.785 28.5-28.5-12.785-28.5-28.5-28.5zm0 42c-7.444 0-13.5-6.056-13.5-13.5s6.056-13.5 13.5-13.5 13.5 6.056 13.5 13.5-6.056 13.5-13.5 13.5z"/></svg>