<?xml version="1.0" encoding="iso-8859-1"?>
<!-- Generator: Adobe Illustrator 19.0.0, SVG Export Plug-In . SVG Version: 6.00 Build 0)  -->
<svg version="1.1" id="Capa_1" xmlns="http://www.w3.org/2000/svg" xmlns:xlink="http://www.w3.org/1999/xlink" x="0px" y="0px"
	 viewBox="0 0 57.022 57.022" style="enable-background:new 0 0 57.022 57.022;" xml:space="preserve">
<g>
	<path d="M14.318,36.551c0.68-1.927,1.45-4.11,0.603-6.398c-0.785-2.125-3.035-3.985-5.664-3.243
		c-2.614,0.736-3.72,3.929-4.451,6.041l-0.172,0.493C3.007,38.038,3.774,44.755,8.4,48.153c1.064,0.781,2.99,2.195,5.009,2.195
		c0.678,0,1.366-0.16,2.035-0.556c1.05-0.621,1.377-1.471,1.466-2.074c0.261-1.757-1.099-3.666-2.284-4.958
		C12.908,40.89,13.39,39.182,14.318,36.551z M14.932,47.425c-0.026,0.177-0.107,0.41-0.506,0.646
		c-1.34,0.793-3.119-0.266-4.842-1.53c-3.849-2.826-4.451-8.513-3.065-12.429l0.177-0.506c0.596-1.719,1.495-4.317,3.104-4.771
		c1.416-0.4,2.764,0.709,3.246,2.012c0.596,1.61,0.009,3.275-0.613,5.039c-0.89,2.52-1.897,5.376,0.721,8.227
		C14.34,45.406,15.038,46.707,14.932,47.425z"/>
	<path d="M56.259,16.443c0.447-0.85,0.709-1.81,0.756-2.777c0.089-1.87-0.619-3.702-1.942-5.026l-0.293-0.293h-0.154
		c0.547-1.726,0.131-3.667-1.197-4.995c-0.749-0.748-1.931-0.867-2.811-0.279l-7.911,5.274H26.192c-0.507,0-0.988,0.019-1.453,0.062
		c-0.786-1.932-1.067-2.444-1.241-2.676c-0.604-0.804-1.524-1.306-2.527-1.377c-0.998-0.071-1.984,0.296-2.695,1.006l-4.283,4.283
		v5.526c-0.567,0.458-1.3,1.074-2.132,1.827l1.101-4.409l0.03-0.243c0-1.654-1.346-3-3-3h-6c-1.654,0-3,1.346-3,3.004
		c0,0.801,0.313,1.554,0.88,2.12c0.565,0.565,1.317,0.876,2.116,0.876c0.002,0,0.004,0,0.006,0c0,0,0.001,0,0.002,0
		c0.266,0,0.516,0.104,0.704,0.291c0.188,0.188,0.292,0.438,0.292,0.705v2.659c-2.582,3.354-4,7.512-4,11.749v1.69
		c-1.557,4.826-1.285,9.48,0.841,13.903c3.393,6.701,8.409,7.98,11.745,7.979c1.704,0,2.97-0.333,3.356-0.449
		c0.527-0.072,2.513-0.463,3.573-2.321c1.093-1.914,0.796-4.638-0.902-8.135c-0.147-0.276-3.572-6.798,1.63-9.665
		c1.609-0.952,4.209,1.153,6.104,3.444c0.779,0.944,2.015,1.353,3.221,1.059c1.311-0.316,2.275-1.514,2.406-2.909h3.044v-9h17.492
		c1.428,0,1.857-0.364,2.598-1.617c1.367-2.314,1.193-5.248-0.413-7.383C55.901,17.062,56.094,16.758,56.259,16.443z M51.728,4.736
		c0.087-0.061,0.209-0.047,0.285,0.029c0.951,0.951,1.132,2.432,0.455,3.582h-6.156L51.728,4.736z M29.009,10.346
		c0,0.552,0.448,1,1,1s1-0.448,1-1h2c0,0.552,0.448,1,1,1s1-0.448,1-1h2c0,0.552,0.448,1,1,1s1-0.448,1-1h0.698h1.302
		c0,0.552,0.448,1,1,1s1-0.448,1-1h2c0,0.552,0.448,1,1,1s1-0.448,1-1h2c0,0.552,0.448,1,1,1s1-0.448,1-1h2c0,0.552,0.448,1,1,1
		c0.177,0,0.334-0.058,0.478-0.138c0.374,0.723,0.568,1.534,0.529,2.361c-0.033,0.677-0.216,1.349-0.528,1.943
		c-0.144,0.273-0.314,0.533-0.51,0.772l-0.052,0.062H20.175c-0.114-0.515-0.141-1.045-0.066-1.579c0.16,0.34,0.5,0.579,0.9,0.579
		c0.552,0,1-0.448,1-1s-0.448-1-1-1c-0.213,0-0.399,0.081-0.561,0.195c0.14-0.324,0.314-0.633,0.521-0.925
		c0.11-0.148,0.22-0.296,0.343-0.433c0.036-0.041,0.076-0.08,0.113-0.12c0.355-0.371,0.757-0.69,1.181-0.952
		c0.74-0.444,1.515-0.641,2.412-0.717c0.026,0.529,0.455,0.952,0.99,0.952c0.552,0,1-0.448,1-1H29.009z M15.992,10.472l3.697-3.697
		c0.306-0.305,0.714-0.458,1.14-0.425c0.431,0.03,0.811,0.237,1.063,0.575c0.05,0.072,0.242,0.408,0.849,1.881
		c-0.125,0.05-0.246,0.12-0.37,0.178c-0.166,0.072-0.331,0.15-0.495,0.238c-0.03,0.017-0.059,0.033-0.089,0.05
		c-0.113,0.063-0.227,0.122-0.34,0.193c-0.734,0.463-1.364,1.043-1.881,1.698c-0.089,0.109-0.171,0.221-0.254,0.334
		c-0.042,0.061-0.083,0.122-0.123,0.184c-0.724,1.057-1.197,2.3-1.197,3.664c0,1.32,0.428,2.536,1.11,3.576
		c0.011,0.017,0.023,0.033,0.034,0.05c0.111,0.166,0.227,0.328,0.351,0.484c0.015,0.019,0.028,0.04,0.043,0.059
		c0.028,0.035,0.06,0.067,0.089,0.101c0.093,0.111,0.187,0.22,0.285,0.326c0.068,0.073,0.139,0.143,0.21,0.214
		c0.08,0.08,0.16,0.159,0.243,0.235c0.106,0.098,0.217,0.189,0.328,0.281c0.053,0.044,0.106,0.089,0.16,0.131
		c0.15,0.117,0.305,0.227,0.462,0.333c0.021,0.014,0.041,0.029,0.062,0.043c0.557,0.366,1.152,0.656,1.765,0.855
		c0.004,0.001,0.007,0.003,0.011,0.004c0.18,0.058,0.36,0.106,0.542,0.148c0.029,0.007,0.057,0.016,0.086,0.022
		c0.018,0.004,0.036,0.01,0.054,0.014c0.116,0.024,0.232,0.036,0.348,0.054c0.078,0.012,0.156,0.028,0.234,0.036
		c0.684,0.079,1.368,0.064,2.035,0.047c0.233-0.006,0.467-0.01,0.697-0.014h1.813c0.181,0.013,0.363,0.026,0.518,0.065
		c0.054,0.013,0.106,0.031,0.158,0.049c0.072,0.025,0.143,0.05,0.211,0.083c0.047,0.022,0.091,0.048,0.135,0.074
		c0.077,0.044,0.152,0.091,0.222,0.146c0.025,0.019,0.048,0.039,0.072,0.059c0.192,0.165,0.356,0.366,0.478,0.603
		c0.257,0.495,0.3,1.072,0.117,1.583l0,0.001c-0.201,0.563-0.639,1.003-1.199,1.208l-0.082,0.03c-0.189,0.059-0.385,0.1-0.593,0.1
		h-6.127c-0.444-1.723-2.013-3-3.873-3c-1.191,0-2.268,0.524-3,1.366V13.589V10.472z M17.018,27.141
		c0.108-1.023,0.957-1.794,1.974-1.794c1.103,0,2,0.897,2,2s-0.897,2-2,2c-1.099,0-1.993-0.891-1.988-2.068L17.018,27.141z
		 M3.366,27.19c0.556-2.624,1.719-5.108,3.407-7.219l0.219-0.274v-3.354c0-0.801-0.313-1.555-0.879-2.121
		c-0.566-0.564-1.317-0.875-2.117-0.875c-0.002,0-0.004,0-0.006,0c0,0-0.001,0-0.002,0c-0.266,0-0.516-0.104-0.704-0.292
		s-0.292-0.438-0.292-0.708c0-0.551,0.448-1,1-1h6c0.517,0,0.943,0.394,0.995,0.898l-1.85,7.402c-0.014,0.015-0.026,0.03-0.04,0.044
		c-0.527,0.553-1.063,1.141-1.598,1.762c-0.061,0.071-0.119,0.142-0.18,0.214c-0.446,0.523-0.889,1.066-1.325,1.631
		c-0.078,0.101-0.152,0.202-0.228,0.304c-0.398,0.527-0.791,1.068-1.169,1.628c-0.048,0.072-0.093,0.143-0.141,0.215
		c-0.166,0.25-0.333,0.5-0.493,0.755c-0.162,0.258-0.309,0.516-0.461,0.773C3.46,27.045,3.408,27.117,3.366,27.19z M30.09,36.311
		c-0.461,0.112-0.921-0.04-1.21-0.389c-1.871-2.262-5.484-5.776-8.637-3.906c-5.532,3.048-3.987,9.413-2.417,12.313
		c1.348,2.777,1.678,4.927,0.955,6.216c-0.67,1.195-2.085,1.345-2.137,1.351l-0.248,0.052c-0.329,0.115-8.13,2.679-12.77-6.489
		c-0.908-1.888-2.538-6.546-0.601-12.732c1.665-4.907,5.111-9.164,7.737-11.885l0.186-0.192l0.031-0.124
		c0.917-0.911,1.912-1.833,3.013-2.766v7.463c0,0.252,0.037,0.496,0.095,0.733c0.018,0.074,0.046,0.143,0.069,0.215
		c0.052,0.162,0.114,0.318,0.191,0.468c0.039,0.075,0.08,0.147,0.125,0.218c0.089,0.142,0.19,0.274,0.302,0.401
		c0.052,0.059,0.098,0.119,0.155,0.174c0.024,0.024,0.042,0.052,0.067,0.075c0.085,2.131,1.846,3.838,3.997,3.838
		c1.86,0,3.429-1.277,3.873-3h6.127c0.218,0,0.424,0.044,0.62,0.109l0.056,0.02c0.579,0.21,1.013,0.671,1.208,1.228
		c0.01,0.03,0.019,0.06,0.028,0.091c0.052,0.178,0.087,0.362,0.087,0.553v4.683C30.992,35.646,30.613,36.185,30.09,36.311z
		 M34.01,33.346h-1.018v-3c0-0.289-0.034-0.569-0.093-0.841c-0.01-0.047-0.03-0.09-0.042-0.136
		c-0.057-0.226-0.128-0.447-0.222-0.656c-0.021-0.046-0.049-0.087-0.072-0.132c-0.101-0.203-0.213-0.397-0.345-0.579
		c-0.032-0.044-0.07-0.084-0.105-0.127c-0.137-0.173-0.285-0.336-0.448-0.484c-0.016-0.015-0.028-0.033-0.044-0.047
		c0.013-0.011,0.022-0.025,0.035-0.036c0.126-0.114,0.242-0.236,0.353-0.365c0.038-0.044,0.075-0.088,0.111-0.134
		c0.108-0.136,0.207-0.277,0.297-0.427c0.008-0.013,0.018-0.024,0.026-0.037h1.568V33.346z M51.009,24.346c0-0.552-0.448-1-1-1
		s-1,0.448-1,1h-2c0-0.552-0.448-1-1-1s-1,0.448-1,1h-2c0-0.552-0.448-1-1-1s-1,0.448-1,1h-2c0-0.552-0.448-1-1-1s-1,0.448-1,1h-1
		h-1c0-0.552-0.448-1-1-1s-1,0.448-1,1h-0.017c0-0.657-0.174-1.268-0.456-1.815c-0.004-0.009-0.006-0.018-0.01-0.027
		c-0.007-0.014-0.019-0.026-0.026-0.04c-0.113-0.21-0.242-0.407-0.39-0.593c-0.031-0.039-0.062-0.076-0.093-0.113
		c-0.135-0.158-0.28-0.303-0.438-0.438c-0.056-0.049-0.113-0.096-0.172-0.142c-0.141-0.108-0.29-0.204-0.445-0.293
		c-0.086-0.05-0.171-0.098-0.26-0.142c-0.141-0.067-0.286-0.121-0.436-0.171c-0.073-0.025-0.139-0.063-0.213-0.084
		c-0.054-0.015-0.109-0.021-0.163-0.033c-0.063-0.015-0.126-0.027-0.191-0.039c-0.637-0.117-1.29-0.105-1.877-0.085
		c-0.24,0.008-0.47,0.01-0.702,0.014h-2.128c-0.117,0-0.235-0.01-0.354-0.022c-0.09-0.01-0.178-0.024-0.264-0.039
		c-0.057-0.01-0.114-0.018-0.171-0.031c-0.248-0.054-0.492-0.134-0.735-0.229c-0.057-0.023-0.115-0.043-0.172-0.068
		c-0.204-0.089-0.403-0.198-0.599-0.313c-0.091-0.054-0.183-0.107-0.272-0.167c-0.171-0.114-0.335-0.242-0.495-0.376
		c-0.09-0.075-0.18-0.15-0.266-0.231c-0.159-0.149-0.308-0.309-0.451-0.476c-0.014-0.016-0.027-0.033-0.04-0.049h32.753l0.051,0.062
		c1.153,1.414,1.342,3.463,0.51,5.077c-0.144-0.08-0.302-0.139-0.478-0.139c-0.552,0-1,0.448-1,1H51.009z"/>
	<circle cx="9.993" cy="33.346" r="2"/>
	<circle cx="28.009" cy="12.346" r="1"/>
	<circle cx="24.009" cy="12.346" r="1"/>
	<circle cx="32.009" cy="12.346" r="1"/>
	<circle cx="36.009" cy="12.346" r="1"/>
	<circle cx="40.009" cy="12.346" r="1"/>
	<circle cx="44.009" cy="12.346" r="1"/>
	<circle cx="48.009" cy="12.346" r="1"/>
	<circle cx="48.009" cy="22.346" r="1"/>
	<circle cx="52.009" cy="22.346" r="1"/>
	<circle cx="44.009" cy="22.346" r="1"/>
	<circle cx="40.009" cy="22.346" r="1"/>
	<circle cx="36.009" cy="22.346" r="1"/>
	<circle cx="52.009" cy="12.346" r="1"/>
</g>
<g>
</g>
<g>
</g>
<g>
</g>
<g>
</g>
<g>
</g>
<g>
</g>
<g>
</g>
<g>
</g>
<g>
</g>
<g>
</g>
<g>
</g>
<g>
</g>
<g>
</g>
<g>
</g>
<g>
</g>
</svg>
