<?xml version="1.0" encoding="iso-8859-1"?>
<!-- Generator: Adobe Illustrator 19.0.0, SVG Export Plug-In . SVG Version: 6.00 Build 0)  -->
<svg version="1.1" id="Capa_1" xmlns="http://www.w3.org/2000/svg" xmlns:xlink="http://www.w3.org/1999/xlink" x="0px" y="0px"
	 viewBox="0 0 57.012 57.012" style="enable-background:new 0 0 57.012 57.012;" xml:space="preserve">
<g>
	<path style="fill:#E6E6E6;" d="M31.798,25.33c-0.301,0.84-0.961,1.504-1.798,1.81v0.379c1.154,0.418,1.983,1.513,1.983,2.811v4H35
		v-9H31.798z"/>
	<path style="fill:#D1D4D1;stroke:#E6E7E8;stroke-width:2;stroke-miterlimit:10;" d="M1.983,30.733v1.887
		c1.628-4.988,5.012-9.342,8.05-12.49l1.95-7.8c0-1.105-0.895-2-2-2h-6c-1.105,0-2,0.895-2,2v0.004c0,1.104,0.896,1.998,2,1.996
		c1.104-0.002,2,0.892,2,1.996v3.004C3.394,22.567,1.983,26.588,1.983,30.733z"/>
	<path style="fill:#E6E7E8;stroke:#D1D4D1;stroke-width:2;stroke-miterlimit:10;" d="M53,9.33H43l8.163-5.442
		c0.487-0.324,1.135-0.26,1.548,0.153l0,0c1.331,1.331,1.537,3.416,0.493,4.982L53,9.33z"/>
	<path style="fill:#D1D4D1;stroke:#E6E6E6;stroke-width:2;stroke-linecap:round;stroke-miterlimit:10;" d="M28.983,27.33h-4h-0.004
		h-2.996c0,1.657-1.343,3-3,3s-3-1.343-3-3c0-0.107,0.021-0.208,0.031-0.311c-0.616-0.372-1.031-1.041-1.031-1.813v-2.658v-6.914
		c-4.075,3.214-18.989,16.253-12.267,30.24c5.125,10.125,14,7,14,7s6.125-0.5,2-9c0,0-4.125-7.625,2-11
		c2.628-1.557,6.013,2.011,7.384,3.668c0.527,0.637,1.381,0.925,2.216,0.724c1.007-0.243,1.667-1.218,1.667-2.254V30.33
		C31.983,28.673,30.64,27.33,28.983,27.33L28.983,27.33z"/>
	<path style="fill:#E6E7E8;stroke:#D1D4D1;stroke-width:2;stroke-miterlimit:10;" d="M54.355,9.33c-9.391,0-18.782,0-28.172,0
		c-1.524,0-2.891,0.132-4.212,0.966c-2.985,1.883-3.94,5.756-1.671,8.578c0.929,1.155,2.263,2.05,3.723,2.354
		c1.018,0.212,2.147,0.102,3.186,0.102c0.827,0,1.77-0.113,2.569,0.108c1.661,0.46,2.6,2.272,2.02,3.892c4.744,0,9.489,0,14.233,0
		c2.487,0,4.974,0,7.461,0c0.99,0,1.135-0.106,1.737-1.126c1.189-2.013,0.992-4.633-0.485-6.445c-0.392-0.481-0.392-0.378,0-0.859
		c0.238-0.292,0.446-0.607,0.621-0.94c0.382-0.728,0.602-1.538,0.641-2.359C56.081,12.018,55.476,10.451,54.355,9.33z"/>
	
		<line style="fill:#ECF0F1;stroke:#D1D4D1;stroke-width:2;stroke-linecap:round;stroke-miterlimit:10;" x1="54.012" y1="17.33" x2="19.983" y2="17.33"/>
	<path style="fill:#805333;stroke:#805333;stroke-width:2;stroke-linecap:round;stroke-miterlimit:10;" d="M8.983,47.33
		c-4.088-3.003-5.015-9.053-3.417-13.569c0.705-1.991,1.658-5.258,3.953-5.905c1.961-0.553,3.792,0.838,4.455,2.628
		c1.656,4.473-4.012,8.669-0.094,12.936c1.198,1.305,3.321,4.149,1.047,5.494C12.923,50.1,10.591,48.511,8.983,47.33z"/>
	<path style="fill:#D1D4D1;stroke:#E6E6E6;stroke-width:2;stroke-linecap:round;stroke-miterlimit:10;" d="M28.983,21.33h-0.941
		h-2.257c-0.078,0-0.604,0-0.802,0c-2.761,0-6-2.686-6-6c0-2.953,2.572-5.403,5.087-5.902c-0.638-1.594-1.165-2.824-1.381-3.112
		c-0.9-1.201-2.655-1.325-3.716-0.264l-3.99,3.99v15.164c0,0.772,0.416,1.441,1.032,1.813c0.159-1.503,1.425-2.689,2.968-2.689
		c1.65,0,3,1.35,3,3h2.996c0.001,0,0.001,0,0.001,0c0.001,0,0.002,0,0.002,0h4.001c1.65,0,3-1.35,3-3
		C31.983,22.68,30.633,21.33,28.983,21.33z"/>
	<circle style="fill:#ECF0F1;" cx="9.983" cy="33.33" r="2"/>
	
		<circle style="fill:#D1D4D1;stroke:#E6E6E6;stroke-width:2;stroke-linecap:round;stroke-miterlimit:10;" cx="19.012" cy="27.33" r="3"/>
</g>
<g>
</g>
<g>
</g>
<g>
</g>
<g>
</g>
<g>
</g>
<g>
</g>
<g>
</g>
<g>
</g>
<g>
</g>
<g>
</g>
<g>
</g>
<g>
</g>
<g>
</g>
<g>
</g>
<g>
</g>
</svg>
