<?xml version="1.0" encoding="iso-8859-1"?>
<!-- Generator: Adobe Illustrator 19.0.0, SVG Export Plug-In . SVG Version: 6.00 Build 0)  -->
<svg version="1.1" id="Capa_1" xmlns="http://www.w3.org/2000/svg" xmlns:xlink="http://www.w3.org/1999/xlink" x="0px" y="0px"
	 viewBox="0 0 470 470" style="enable-background:new 0 0 470 470;" xml:space="preserve">
<g>
	<path style="fill:#8A6F64;" d="M132.368,149.875c2.874-5.258,6.145-10.269,9.765-15H40.06c11.576,9.371,26.3,15,42.319,15
		L132.368,149.875z"/>
	<path style="fill:#8A6F64;" d="M429.94,134.875H327.867c3.619,4.731,6.89,9.742,9.765,15l49.989,0
		C403.641,149.875,418.364,144.246,429.94,134.875z"/>
	<path style="fill:#8A6F64;" d="M195.664,213.254h-32.974c2.857,6.255,9.173,10.613,16.487,10.613S192.806,219.51,195.664,213.254z"
		/>
	<path style="fill:#8A6F64;" d="M290.823,223.868c7.314,0,13.63-4.358,16.486-10.613h-32.974
		C277.193,219.51,283.509,223.868,290.823,223.868z"/>
	<path style="fill:#E3C498;" d="M242.5,104.152v22.223c0,4.142-3.357,7.5-7.5,7.5c-4.142,0-7.5-3.358-7.5-7.5v-22.223
		c-50.21,3.671-90.431,43.892-94.102,94.102h71.392c4.142,0,7.5,3.358,7.5,7.5c0,18.259-14.855,33.113-33.114,33.113
		c-15.68,0-28.85-10.955-32.257-25.613h-13.518c2.073,28.641,15.964,54.844,38.845,72.761c1.641,1.285,2.673,3.194,2.849,5.271
		c3.382,39.848,7.834,92.88,9.84,119.228c1.001,13.156,10.642,24.285,22.913,27.814l-5.473-68.731
		c-0.329-4.129,2.752-7.743,6.881-8.072c4.122-0.329,7.742,2.752,8.071,6.881l5.662,71.095h24.02l5.661-71.094
		c0.328-4.129,3.924-7.213,8.072-6.881c4.129,0.329,7.209,3.943,6.881,8.072l-5.473,68.731
		c12.271-3.528,21.912-14.658,22.912-27.814c2.011-26.41,6.462-79.414,9.842-119.228c0.176-2.076,1.208-3.986,2.849-5.271
		c22.88-17.916,36.771-44.12,38.844-72.761H323.08c-3.407,14.658-16.577,25.613-32.257,25.613
		c-18.259,0-33.113-14.854-33.113-33.113c0-4.142,3.357-7.5,7.5-7.5h71.392C332.931,148.044,292.71,107.823,242.5,104.152z
		 M242.5,387.629c0,4.142-3.357,7.5-7.5,7.5c-4.142,0-7.5-3.358-7.5-7.5V156.375c0-4.142,3.358-7.5,7.5-7.5
		c4.143,0,7.5,3.358,7.5,7.5V387.629z"/>
	<path style="fill:#34150C;" d="M462.5,15.5c-4.143,0-7.5,3.358-7.5,7.5v59.496c0,13.819-4.187,26.676-11.352,37.379H314.191
		c-20.84-19.232-48.665-31-79.191-31s-58.351,11.768-79.191,31H26.352C19.187,109.172,15,96.315,15,82.496V23
		c0-4.142-3.358-7.5-7.5-7.5S0,18.858,0,23v59.496c0,45.424,36.955,82.379,82.379,82.379l43.125,0
		c-4.768,12.731-7.383,26.504-7.383,40.879c0,35.076,15.373,67.687,42.299,89.994c3.343,39.416,7.61,90.306,9.559,115.904
		c1.798,23.613,22.449,42.825,46.045,42.847c0.043,0.001,37.908,0.001,37.908,0.001c23.639-0.022,44.292-19.234,46.088-42.848
		c1.953-25.656,6.22-76.522,9.56-115.904c26.926-22.308,42.299-54.919,42.299-89.994c0-14.375-2.615-28.148-7.383-40.879l43.125,0
		c45.424,0,82.379-36.955,82.379-82.379V23C470,18.858,466.643,15.5,462.5,15.5z M307.31,213.254
		c-2.856,6.255-9.172,10.613-16.486,10.613s-13.63-4.358-16.487-10.613H307.31z M265.21,198.254c-4.143,0-7.5,3.358-7.5,7.5
		c0,18.259,14.854,33.113,33.113,33.113c15.68,0,28.85-10.955,32.257-25.613h13.518c-2.073,28.641-15.964,54.845-38.844,72.761
		c-1.641,1.285-2.673,3.194-2.849,5.271c-3.38,39.814-7.831,92.817-9.842,119.228c-1.001,13.156-10.641,24.285-22.912,27.814
		l5.473-68.731c0.328-4.129-2.752-7.743-6.881-8.072c-4.148-0.332-7.744,2.752-8.072,6.881L247.01,439.5h-24.02l-5.662-71.095
		c-0.329-4.129-3.949-7.21-8.071-6.881c-4.129,0.329-7.21,3.943-6.881,8.072l5.473,68.731
		c-12.271-3.528-21.911-14.658-22.913-27.814c-2.006-26.348-6.458-79.379-9.84-119.228c-0.176-2.076-1.208-3.986-2.849-5.271
		c-22.881-17.917-36.772-44.12-38.845-72.761h13.518c3.407,14.658,16.577,25.613,32.257,25.613
		c18.259,0,33.114-14.854,33.114-33.113c0-4.142-3.358-7.5-7.5-7.5h-71.392c3.671-50.21,43.892-90.431,94.102-94.102v22.223
		c0,4.142,3.358,7.5,7.5,7.5c4.143,0,7.5-3.358,7.5-7.5v-22.223c50.21,3.671,90.431,43.892,94.102,94.102H265.21z M162.689,213.254
		h32.974c-2.857,6.255-9.173,10.613-16.487,10.613S165.546,219.51,162.689,213.254z M142.133,134.875
		c-3.619,4.731-6.89,9.742-9.765,15l-49.989,0c-16.019,0-30.743-5.629-42.319-15H142.133z M327.867,134.875H429.94
		c-11.576,9.371-26.3,15-42.319,15l-49.989,0C334.758,144.617,331.487,139.606,327.867,134.875z"/>
	<path style="fill:#34150C;" d="M235,148.875c-4.142,0-7.5,3.358-7.5,7.5v231.253c0,4.142,3.358,7.5,7.5,7.5
		c4.143,0,7.5-3.358,7.5-7.5V156.375C242.5,152.233,239.143,148.875,235,148.875z"/>
</g>
<g>
</g>
<g>
</g>
<g>
</g>
<g>
</g>
<g>
</g>
<g>
</g>
<g>
</g>
<g>
</g>
<g>
</g>
<g>
</g>
<g>
</g>
<g>
</g>
<g>
</g>
<g>
</g>
<g>
</g>
</svg>
