<?xml version="1.0" encoding="iso-8859-1"?>
<!-- Generator: Adobe Illustrator 19.0.0, SVG Export Plug-In . SVG Version: 6.00 Build 0)  -->
<svg version="1.1" id="Capa_1" xmlns="http://www.w3.org/2000/svg" xmlns:xlink="http://www.w3.org/1999/xlink" x="0px" y="0px"
	 viewBox="0 0 470.002 470.002" style="enable-background:new 0 0 470.002 470.002;" xml:space="preserve">
<g>
	<polygon style="fill:#E63A2A;" points="208.059,84.628 184.292,17.459 172.812,22.223 203.498,86.516 	"/>
	<polygon style="fill:#E63A2A;" points="163.508,129.178 165.396,124.619 101.096,93.929 96.348,105.414 	"/>
	<polygon style="fill:#E63A2A;" points="165.396,187.623 163.508,183.063 96.339,206.829 101.103,218.309 	"/>
	<polygon style="fill:#E63A2A;" points="203.499,225.725 172.809,290.026 184.295,294.774 208.058,227.614 	"/>
	<polygon style="fill:#E63A2A;" points="261.943,227.614 285.709,294.782 297.189,290.018 266.503,225.725 	"/>
	<polygon style="fill:#E63A2A;" points="306.494,183.063 304.605,187.622 368.906,218.313 373.654,206.827 	"/>
	<path style="fill:#34150C;" d="M386.105,195.321l-81.315-28.772c-3.76-1.332-7.905,0.515-9.431,4.2l-0.797,1.925l-18.673-7.735
		c0.613-2.844,0.944-5.793,0.944-8.818c0-0.083-0.006-0.165-0.006-0.247c0.001-0.042,0.006-0.083,0.006-0.125
		c0-0.127-0.013-0.251-0.019-0.376c-0.049-2.763-0.362-5.462-0.925-8.071l18.672-7.734l0.797,1.924
		c1.191,2.876,3.977,4.632,6.93,4.632c0.831,0,1.676-0.139,2.501-0.431l81.334-28.778c1.941-0.687,3.514-2.141,4.351-4.021
		c0.837-1.881,0.864-4.023,0.075-5.924l-10.825-26.083c-0.789-1.899-2.322-3.392-4.243-4.128c-1.92-0.736-4.059-0.651-5.915,0.234
		l-77.843,37.154c-3.6,1.718-5.225,5.953-3.699,9.638l0.797,1.925l-18.692,7.742c-3.226-4.982-7.479-9.234-12.46-12.46l7.742-18.691
		l1.924,0.797c0.937,0.389,1.91,0.573,2.868,0.573c2.809,0,5.49-1.586,6.771-4.271l37.163-77.861
		c0.887-1.857,0.971-3.998,0.233-5.92c-0.738-1.921-2.234-3.455-4.136-4.242L284.137,0.587c-1.9-0.785-4.04-0.756-5.919,0.081
		c-1.878,0.837-3.331,2.41-4.017,4.348L245.43,86.331c-1.331,3.76,0.515,7.904,4.2,9.431l1.925,0.797l-7.735,18.674
		c-2.845-0.613-5.793-0.944-8.818-0.944c-3.025,0-5.974,0.331-8.819,0.944l-7.734-18.672l1.924-0.797
		c3.686-1.526,5.531-5.67,4.201-9.431L195.794,4.998c-0.687-1.941-2.141-3.514-4.021-4.351c-1.881-0.837-4.023-0.864-5.924-0.075
		l-26.083,10.825c-1.899,0.789-3.392,2.322-4.128,4.243c-0.736,1.92-0.651,4.059,0.234,5.915l37.154,77.843
		c1.281,2.685,3.962,4.271,6.771,4.271c0.958,0,1.93-0.184,2.867-0.572l1.925-0.797l7.742,18.692
		c-4.982,3.226-9.234,7.479-12.46,12.46l-18.691-7.742l0.797-1.924c1.527-3.686-0.098-7.921-3.698-9.639l-77.862-37.163
		c-1.858-0.886-3.998-0.971-5.92-0.233c-1.921,0.738-3.455,2.234-4.242,4.136l-10.789,26.097c-0.786,1.9-0.756,4.041,0.081,5.919
		s2.41,3.331,4.348,4.017l81.315,28.772c0.826,0.292,1.67,0.431,2.501,0.431c2.953,0,5.738-1.755,6.929-4.631l0.797-1.925
		l18.673,7.735c-0.562,2.609-0.876,5.308-0.925,8.071c-0.006,0.125-0.019,0.249-0.019,0.376c0,0.042,0.006,0.083,0.006,0.125
		c0,0.083-0.006,0.164-0.006,0.247c0,3.025,0.331,5.974,0.944,8.818l-18.672,7.734l-0.797-1.924
		c-1.526-3.686-5.673-5.533-9.431-4.201l-81.334,28.778c-1.941,0.687-3.514,2.141-4.351,4.021c-0.837,1.881-0.864,4.023-0.075,5.924
		l10.825,26.083c0.789,1.899,2.322,3.392,4.243,4.128c0.866,0.332,1.776,0.497,2.685,0.497c1.106,0,2.211-0.245,3.23-0.731
		l77.843-37.154c3.6-1.718,5.225-5.953,3.699-9.638l-0.797-1.925l18.692-7.742c3.226,4.982,7.479,9.235,12.461,12.46l-7.742,18.691
		l-1.924-0.797c-3.685-1.529-7.921,0.098-9.639,3.698l-37.163,77.861c-0.887,1.857-0.971,3.998-0.233,5.92
		c0.738,1.921,2.234,3.455,4.136,4.242l26.098,10.789c0.918,0.379,1.892,0.569,2.865,0.569c1.042,0,2.083-0.217,3.054-0.65
		c1.878-0.837,3.331-2.41,4.017-4.348l28.771-81.315c1.331-3.76-0.515-7.904-4.2-9.431l-1.925-0.797l7.735-18.674
		c2.845,0.613,5.793,0.944,8.818,0.944c3.025,0,5.974-0.331,8.819-0.944l7.734,18.672l-1.924,0.797
		c-3.686,1.526-5.531,5.67-4.201,9.431l28.778,81.334c0.687,1.94,2.141,3.514,4.021,4.35c0.97,0.432,2.009,0.648,3.049,0.648
		c0.977,0,1.954-0.191,2.875-0.573l26.083-10.825c1.899-0.789,3.392-2.322,4.128-4.243c0.736-1.92,0.651-4.059-0.234-5.915
		l-37.154-77.843c-1.718-3.601-5.956-5.226-9.638-3.699l-1.925,0.797l-7.742-18.692c4.982-3.226,9.234-7.479,12.46-12.46
		l18.691,7.742l-0.797,1.924c-1.527,3.686,0.098,7.921,3.698,9.639l77.862,37.163c1.02,0.486,2.124,0.731,3.23,0.731
		c0.91,0,1.822-0.166,2.689-0.499c1.921-0.738,3.455-2.234,4.242-4.136l10.789-26.098c0.786-1.9,0.756-4.041-0.081-5.919
		S388.044,196.007,386.105,195.321z M306.494,129.179l-1.888-4.56l64.292-30.686l4.764,11.48L306.494,129.179z M297.193,22.216
		l-30.69,64.3l-4.559-1.889l23.763-67.16L297.193,22.216z M184.292,17.459l23.766,67.168l-4.56,1.888l-30.686-64.292L184.292,17.459
		z M165.396,124.619l-1.889,4.559l-67.16-23.764l4.748-11.485L165.396,124.619z M163.508,183.063l1.888,4.56l-64.292,30.687
		l-4.764-11.48L163.508,183.063z M172.809,290.026l30.69-64.3l4.559,1.889l-23.763,67.16L172.809,290.026z M285.709,294.782
		l-23.766-67.168l4.56-1.888l30.687,64.292L285.709,294.782z M209.138,163.249h18.363v18.629
		C218.604,179.283,211.607,172.198,209.138,163.249z M260.653,148.249h-18.152v-17.886
		C251.151,132.886,258.009,139.651,260.653,148.249z M227.501,130.363v17.886h-18.152
		C211.993,139.651,218.851,132.886,227.501,130.363z M242.501,181.878v-18.629h18.363
		C258.394,172.198,251.398,179.283,242.501,181.878z M304.605,187.622l1.889-4.559l67.16,23.764l-4.748,11.486L304.605,187.622z"/>
	<polygon style="fill:#E63A2A;" points="304.606,124.618 306.494,129.179 373.663,105.412 368.898,93.932 	"/>
	<polygon style="fill:#E63A2A;" points="266.503,86.516 297.193,22.216 285.706,17.468 261.944,84.627 	"/>
	<path style="fill:#34150C;" d="M271.988,342.191c3.844-0.323,6.865-3.54,6.865-7.468c0-4.142-3.358-7.5-7.5-7.5h-28.852V263.89
		c0-4.142-3.358-7.5-7.5-7.5s-7.5,3.358-7.5,7.5v63.333h-28.852c-4.142,0-7.5,3.358-7.5,7.5c0,3.927,3.02,7.145,6.864,7.468
		l-42.109,117.748c-1.395,3.9,0.636,8.192,4.537,9.587c0.834,0.298,1.687,0.44,2.525,0.44c3.08,0,5.966-1.911,7.063-4.977
		l21.056-58.878h43.907c0.019,0,43.92,0,43.92,0l21.063,58.913c1.096,3.066,3.982,4.977,7.062,4.977c0.838,0,1.691-0.142,2.525-0.44
		c3.9-1.394,5.932-5.687,4.537-9.587L271.988,342.191z M242.501,391.112v-26.388c0-4.142-3.358-7.5-7.5-7.5s-7.5,3.358-7.5,7.5
		v26.388h-31.052l17.483-48.888h21.059c0.019,0,21.078,0,21.078,0l17.479,48.888H242.501z"/>
	<path style="fill:#34150C;" d="M235.001,421.112c-4.142,0-7.5,3.358-7.5,7.5V462.5c0,4.142,3.358,7.5,7.5,7.5s7.5-3.358,7.5-7.5
		v-33.888C242.501,424.47,239.143,421.112,235.001,421.112z"/>
</g>
<g>
</g>
<g>
</g>
<g>
</g>
<g>
</g>
<g>
</g>
<g>
</g>
<g>
</g>
<g>
</g>
<g>
</g>
<g>
</g>
<g>
</g>
<g>
</g>
<g>
</g>
<g>
</g>
<g>
</g>
</svg>
