<?xml version="1.0" encoding="iso-8859-1"?>
<!-- Generator: Adobe Illustrator 19.0.0, SVG Export Plug-In . SVG Version: 6.00 Build 0)  -->
<svg version="1.1" id="Capa_1" xmlns="http://www.w3.org/2000/svg" xmlns:xlink="http://www.w3.org/1999/xlink" x="0px" y="0px"
	 viewBox="0 0 469.607 469.607" style="enable-background:new 0 0 469.607 469.607;" xml:space="preserve">
<g>
	<path style="fill:#F59B45;" d="M216.506,318.549c-1.471,1.974-3.729,3.02-6.018,3.02c-1.546,0-3.106-0.477-4.446-1.465
		c-44.178-32.587-99.597-67.353-198.542-67.353v159.698c110.052,0,164.326-40.938,221.205-84.622
		C224.656,324.72,220.597,321.623,216.506,318.549z"/>
	<path style="fill:#DB8F63;" d="M7.5,427.448v38.605h454.607V252.751c-111.038,0-165.294,41.675-222.735,85.797
		C182.472,382.254,123.634,427.448,7.5,427.448z M419.153,392.479c4.411,0,7.999,3.588,7.999,8c0,4.411-3.588,7.999-7.999,7.999
		c-4.411,0-8-3.588-8-7.999C411.154,396.067,414.742,392.479,419.153,392.479z M389.196,427.598c4.411,0,8,3.588,8,7.999
		c0,4.411-3.588,8-8,8c-4.411,0-7.999-3.588-7.999-8C381.197,431.187,384.786,427.598,389.196,427.598z M242.956,410.464
		c0,4.411-3.588,8-7.999,8c-4.411,0-8-3.588-8-8c0-4.411,3.588-7.999,8-7.999C239.368,402.464,242.956,406.053,242.956,410.464z"/>
	<path style="fill:#34150C;" d="M210.489,321.568c2.289,0,4.547-1.046,6.018-3.02c2.483-3.362,1.774-8.057-1.56-10.516
		c-29.719-21.922-64.327-44.785-112.896-58.268v-29.169h2.552c15.111,0,27.405-12.294,27.405-27.405v-38.529
		c0-4.142-3.358-7.5-7.5-7.5s-7.5,3.358-7.5,7.5v38.529c0,6.84-5.565,12.405-12.405,12.405h-2.552v-84.774
		c0-4.142-3.358-7.5-7.5-7.5s-7.5,3.358-7.5,7.5v54.818h-2.552c-6.84,0-12.405-5.565-12.405-12.405v-28.543
		c0-4.142-3.358-7.5-7.5-7.5s-7.5,3.358-7.5,7.5v28.543c0,15.111,12.294,27.405,27.405,27.405h2.552v55.374
		c-23.214-5.189-49.448-8.263-79.551-8.263c-4.142,0-7.5,3.358-7.5,7.5s3.358,7.5,7.5,7.5c98.946,0,154.365,34.766,198.542,67.353
		C207.382,321.092,208.942,321.568,210.489,321.568z"/>
	<path style="fill:#34150C;" d="M462.107,237.751c-116.134,0-174.972,45.194-231.873,88.901c-0.51,0.392-1.02,0.783-1.53,1.175
		C171.826,371.51,117.552,412.448,7.5,412.448c-4.142,0-7.5,3.358-7.5,7.5s3.358,7.5,7.5,7.5
		c116.134,0,174.972-45.194,231.873-88.901c57.441-44.122,111.696-85.797,222.735-85.797c4.142,0,7.5-3.358,7.5-7.5
		S466.25,237.751,462.107,237.751z"/>
	<path style="fill:#E63A2A;" d="M241.958,96.463c0,42.959,34.95,77.908,77.909,77.908s77.908-34.949,77.908-77.908
		c0-42.959-34.949-77.909-77.908-77.909S241.958,53.504,241.958,96.463z"/>
	<path style="fill:#34150C;" d="M319.866,189.371c51.23,0,92.908-41.678,92.908-92.908c0-51.23-41.678-92.909-92.908-92.909
		s-92.909,41.679-92.909,92.909C226.958,147.693,268.636,189.371,319.866,189.371z M397.774,96.463
		c0,42.959-34.949,77.908-77.908,77.908s-77.909-34.949-77.909-77.908c0-42.959,34.95-77.909,77.909-77.909
		S397.774,53.504,397.774,96.463z"/>
	<path style="fill:#34150C;" d="M389.196,443.597c4.411,0,8-3.588,8-8c0-4.411-3.588-7.999-8-7.999
		c-4.411,0-7.999,3.588-7.999,7.999C381.197,440.008,384.786,443.597,389.196,443.597z"/>
	<path style="fill:#34150C;" d="M226.958,410.464c0,4.411,3.588,8,8,8c4.411,0,7.999-3.588,7.999-8c0-4.411-3.588-7.999-7.999-7.999
		C230.546,402.464,226.958,406.053,226.958,410.464z"/>
	<path style="fill:#34150C;" d="M419.153,408.477c4.411,0,7.999-3.588,7.999-7.999c0-4.411-3.588-8-7.999-8c-4.411,0-8,3.588-8,8
		C411.154,404.889,414.742,408.477,419.153,408.477z"/>
</g>
<g>
</g>
<g>
</g>
<g>
</g>
<g>
</g>
<g>
</g>
<g>
</g>
<g>
</g>
<g>
</g>
<g>
</g>
<g>
</g>
<g>
</g>
<g>
</g>
<g>
</g>
<g>
</g>
<g>
</g>
</svg>
