<?xml version="1.0" encoding="iso-8859-1"?>
<!-- Generator: Adobe Illustrator 19.0.0, SVG Export Plug-In . SVG Version: 6.00 Build 0)  -->
<svg version="1.1" id="Capa_1" xmlns="http://www.w3.org/2000/svg" xmlns:xlink="http://www.w3.org/1999/xlink" x="0px" y="0px"
	 viewBox="0 0 470 470" style="enable-background:new 0 0 470 470;" xml:space="preserve">
<g>
	<path style="fill:#B9A9A2;" d="M142.395,203.994v-14.449c-4.147,0-7.504-3.358-7.504-7.5v-44.179c0-4.142,3.357-7.5,7.5-7.5
		h192.096c4.143,0,7.5,3.358,7.5,7.5v44.179c0,4.141-3.356,7.498-7.497,7.5v14.449h50.126V45.239H92.262v158.755H142.395z"/>
	<path style="fill:#F59B45;" d="M334.486,189.545c-4.143,0-7.5-3.358-7.5-7.5v-36.679H149.891v36.679c0,4.141-3.355,7.498-7.496,7.5
		v14.449h192.094C334.489,203.994,334.489,189.545,334.486,189.545z"/>
	<path style="fill:#8A6F64;" d="M399.615,211.494c0,4.142-3.357,7.5-7.5,7.5h-50.129v205.767H455V45.239h-55.385V211.494z"/>
	<rect x="110.161" y="409.101" style="fill:#8A6F64;" width="179.719" height="15.66"/>
	<path style="fill:#6F362D;" d="M73.052,314.041v110.72h22.109v-23.16c0-4.142,3.357-7.5,7.5-7.5H297.38c4.143,0,7.5,3.358,7.5,7.5
		v23.16h22.106v-110.72H73.052z"/>
	<path style="fill:#B9A9A2;" d="M65.552,299.039c0.039,0.002,261.435,0.002,261.435,0.002v-15.66H34.633v15.66
		C34.633,299.041,65.513,299.041,65.552,299.039z"/>
	<path style="fill:#FFFFFF;" d="M34.633,218.994v49.387h292.354v-49.387h-23.419v26.226c0,4.142-3.357,7.5-7.5,7.5
		s-7.5-3.358-7.5-7.5v-26.226h-23.419v26.226c0,4.142-3.357,7.5-7.5,7.5s-7.5-3.358-7.5-7.5v-26.226h-23.42v26.226
		c0,4.142-3.357,7.5-7.5,7.5s-7.5-3.358-7.5-7.5v-26.226H188.31v26.226c0,4.142-3.357,7.5-7.5,7.5s-7.5-3.358-7.5-7.5v-26.226
		h-23.419v26.226c0,4.142-3.357,7.5-7.5,7.5s-7.5-3.358-7.5-7.5v-26.226h-23.419v26.226c0,4.142-3.357,7.5-7.5,7.5
		s-7.5-3.358-7.5-7.5v-26.226h-23.42v26.226c0,4.142-3.357,7.5-7.5,7.5s-7.5-3.358-7.5-7.5v-26.226H34.633z"/>
	<path style="fill:#34150C;" d="M462.5,30.239H65.552c-4.143,0-7.5,3.358-7.5,7.5s3.357,7.5,7.5,7.5h11.71v158.755H27.133
		c-4.143,0-7.5,3.358-7.5,7.5v213.267H7.5c-4.143,0-7.5,3.358-7.5,7.5s3.357,7.5,7.5,7.5h455c4.143,0,7.5-3.358,7.5-7.5V37.739
		C470,33.597,466.643,30.239,462.5,30.239z M304.88,424.761v-23.16c0-4.142-3.357-7.5-7.5-7.5H102.661c-4.143,0-7.5,3.358-7.5,7.5
		v23.16H73.052v-110.72h253.935v110.72H304.88z M65.552,252.72c4.143,0,7.5-3.358,7.5-7.5v-26.226h23.42v26.226
		c0,4.142,3.357,7.5,7.5,7.5s7.5-3.358,7.5-7.5v-26.226h23.419v26.226c0,4.142,3.357,7.5,7.5,7.5s7.5-3.358,7.5-7.5v-26.226h23.419
		v26.226c0,4.142,3.357,7.5,7.5,7.5s7.5-3.358,7.5-7.5v-26.226h23.419v26.226c0,4.142,3.357,7.5,7.5,7.5s7.5-3.358,7.5-7.5v-26.226
		h23.42v26.226c0,4.142,3.357,7.5,7.5,7.5s7.5-3.358,7.5-7.5v-26.226h23.419v26.226c0,4.142,3.357,7.5,7.5,7.5s7.5-3.358,7.5-7.5
		v-26.226h23.419v49.387H34.633v-49.387h23.419v26.226C58.052,249.362,61.409,252.72,65.552,252.72z M34.633,283.381h292.354v15.66
		H65.59c-0.077,0-30.958,0-30.958,0V283.381z M384.615,45.239v158.755h-50.126H142.395H92.262V45.239H384.615z M110.161,409.101
		H289.88v15.66H110.161V409.101z M455,424.761H341.986V218.994h50.129c4.143,0,7.5-3.358,7.5-7.5V45.239H455V424.761z
		 M34.633,314.041h23.419v110.72H34.633V314.041z"/>
	<path style="fill:#34150C;" d="M149.891,182.045v-36.679h177.096v36.679c0,4.142,3.357,7.5,7.5,7.5c4.144-0.002,7.5-3.359,7.5-7.5
		v-44.179c0-4.142-3.357-7.5-7.5-7.5H142.391c-4.143,0-7.5,3.358-7.5,7.5v44.179c0,4.142,3.357,7.5,7.5,7.5
		C146.535,189.543,149.891,186.186,149.891,182.045z"/>
</g>
<g>
</g>
<g>
</g>
<g>
</g>
<g>
</g>
<g>
</g>
<g>
</g>
<g>
</g>
<g>
</g>
<g>
</g>
<g>
</g>
<g>
</g>
<g>
</g>
<g>
</g>
<g>
</g>
<g>
</g>
</svg>
