<?xml version="1.0" encoding="iso-8859-1"?>
<!-- Generator: Adobe Illustrator 19.0.0, SVG Export Plug-In . SVG Version: 6.00 Build 0)  -->
<svg version="1.1" id="Capa_1" xmlns="http://www.w3.org/2000/svg" xmlns:xlink="http://www.w3.org/1999/xlink" x="0px" y="0px"
	 viewBox="0 0 470.001 470.001" style="enable-background:new 0 0 470.001 470.001;" xml:space="preserve">
<g>
	<path style="fill:#C5A271;" d="M434.325,297.801c-0.472,0.089-0.941,0.133-1.405,0.133c-3.532,0-6.678-2.507-7.36-6.104
		c-0.771-4.07,1.902-7.994,5.973-8.766L455,278.615v-26.123l-12.009,2.276c-0.472,0.089-0.941,0.133-1.405,0.133
		c-3.532,0-6.678-2.507-7.36-6.104c-0.771-4.07,1.902-7.994,5.973-8.766L455,237.225v-14.733l-212.5,40.284v190.669l47.438-8.993
		v-17.951c0-4.142,3.357-7.5,7.5-7.5s7.5,3.358,7.5,7.5v15.108L455,413.161V293.881L434.325,297.801z M403.504,366.667
		c-4.411,0-8-3.589-8-8s3.589-8,8-8s8,3.589,8,8S407.915,366.667,403.504,366.667z"/>
	<path style="fill:#E3C498;" d="M242.5,110.628c0,4.142-3.357,7.5-7.5,7.5v15c4.143,0,7.5,3.358,7.5,7.5v106.88L455,207.225V83.084
		l-8.556-9.625c-2.526-2.842-2.526-7.124,0-9.965L455,53.868V16.556L242.5,56.84V110.628z M359.198,100.408
		c2.93-2.929,7.678-2.929,10.607,0l5.87,5.87l5.87-5.87c2.93-2.929,7.678-2.929,10.607,0c2.929,2.929,2.929,7.678,0,10.606
		l-5.871,5.871l5.871,5.871c2.929,2.929,2.929,7.678,0,10.606c-1.465,1.464-3.385,2.197-5.304,2.197s-3.839-0.732-5.304-2.197
		l-5.87-5.87l-5.87,5.87c-1.465,1.464-3.385,2.197-5.304,2.197s-3.839-0.732-5.304-2.197c-2.929-2.929-2.929-7.678,0-10.606
		l5.871-5.871l-5.871-5.871C356.269,108.086,356.269,103.337,359.198,100.408z"/>
	<path style="fill:#E3C498;" d="M227.5,262.776L15,222.492v119.361l12.819,14.421c2.526,2.842,2.526,7.124,0,9.966L15,380.661v32.5
		l212.5,40.284V262.776z M177.386,374.864l-21.213,21.213c-1.407,1.407-3.314,2.197-5.304,2.197s-3.896-0.79-5.304-2.197
		l-28.957-28.958l-28.958,28.958c-1.465,1.464-3.385,2.197-5.304,2.197c-1.92,0-3.839-0.732-5.304-2.197L55.83,374.864
		c-1.406-1.406-2.196-3.314-2.196-5.303s0.79-3.897,2.196-5.303l28.959-28.958L55.83,306.342c-1.406-1.406-2.196-3.314-2.196-5.303
		s0.79-3.897,2.196-5.303l21.213-21.213c2.929-2.928,7.677-2.93,10.607,0l28.958,28.958l28.957-28.958
		c1.407-1.407,3.314-2.197,5.304-2.197s3.896,0.79,5.304,2.197l21.213,21.213c2.929,2.929,2.929,7.678,0,10.606l-28.958,28.958
		l28.958,28.958C180.315,367.186,180.315,371.935,177.386,374.864z"/>
	<path style="fill:#C5A271;" d="M235,118.128c-4.143,0-7.5-3.358-7.5-7.5V56.84L92.355,31.22v35.614c0,4.142-3.357,7.5-7.5,7.5
		s-7.5-3.358-7.5-7.5V28.377l-24.664-4.676v7.8c0,4.142-3.357,7.5-7.5,7.5s-7.5-3.358-7.5-7.5V20.857L15,16.556v190.669
		l212.5,40.284v-106.88c0-4.142,3.357-7.5,7.5-7.5V118.128z M93.504,116.667c-4.411,0-8-3.589-8-8s3.589-8,8-8s8,3.589,8,8
		S97.915,116.667,93.504,116.667z M123.504,96.667c-4.411,0-8-3.589-8-8s3.589-8,8-8s8,3.589,8,8S127.915,96.667,123.504,96.667z"/>
	<path style="fill:#34150C;" d="M470,56.719V7.501c0-2.234-0.996-4.351-2.716-5.776c-1.721-1.425-3.988-2.01-6.181-1.593L235,42.995
		L8.897,0.132C6.705-0.284,4.437,0.3,2.716,1.725C0.996,3.149,0,5.267,0,7.501v337.204c0,1.837,0.674,3.61,1.895,4.983
		l10.284,11.569L1.895,372.826C0.674,374.199,0,375.972,0,377.809v41.563c0,3.604,2.563,6.698,6.104,7.369l227.5,43.128
		c0.461,0.087,0.929,0.131,1.396,0.131s0.936-0.044,1.396-0.131l227.5-43.128c3.541-0.671,6.104-3.765,6.104-7.369V80.232
		c0-1.837-0.674-3.61-1.895-4.983l-6.021-6.773l6.021-6.774C469.326,60.329,470,58.556,470,56.719z M15,380.661L27.82,366.24
		c2.526-2.842,2.526-7.124,0-9.966L15,341.853V222.492l212.5,40.284v190.669L15,413.161V380.661z M304.939,441.608v-15.108
		c0-4.142-3.357-7.5-7.5-7.5s-7.5,3.358-7.5,7.5v17.951l-47.438,8.993V262.776L455,222.492v14.733l-14.802,2.806
		c-4.07,0.771-6.744,4.696-5.973,8.766c0.683,3.598,3.828,6.104,7.36,6.104c0.464,0,0.934-0.043,1.405-0.133L455,252.492v26.123
		l-23.468,4.449c-4.07,0.771-6.744,4.696-5.973,8.766c0.683,3.598,3.828,6.104,7.36,6.104c0.464,0,0.934-0.043,1.405-0.133
		L455,293.881v119.279L304.939,441.608z M455,53.868l-8.556,9.626c-2.526,2.841-2.526,7.124,0,9.965L455,83.084v124.141
		l-212.5,40.284v-106.88c0-4.142-3.357-7.5-7.5-7.5c-4.143,0-7.5,3.358-7.5,7.5v106.88L15,207.225V16.556l22.69,4.301v10.644
		c0,4.142,3.357,7.5,7.5,7.5s7.5-3.358,7.5-7.5v-7.8l24.664,4.676v38.458c0,4.142,3.357,7.5,7.5,7.5s7.5-3.358,7.5-7.5V31.22
		L227.5,56.84v53.789c0,4.142,3.357,7.5,7.5,7.5c4.143,0,7.5-3.358,7.5-7.5V56.84L455,16.556V53.868z"/>
	<path style="fill:#E63A2A;" d="M111.305,351.209c1.407-1.407,3.314-2.197,5.304-2.197s3.896,0.79,5.304,2.197l28.957,28.958
		l10.606-10.606l-28.958-28.958c-2.929-2.929-2.929-7.678,0-10.606l28.958-28.958l-10.606-10.606l-28.957,28.958
		c-1.407,1.407-3.314,2.197-5.304,2.197s-3.896-0.79-5.304-2.197l-28.958-28.958l-10.606,10.606l28.959,28.958
		c1.406,1.406,2.196,3.314,2.196,5.303s-0.79,3.897-2.196,5.303l-28.959,28.958l10.606,10.606L111.305,351.209z"/>
	<path style="fill:#34150C;" d="M148.428,335.299l28.958-28.958c2.929-2.929,2.929-7.678,0-10.606l-21.213-21.213
		c-1.407-1.407-3.314-2.197-5.304-2.197s-3.896,0.79-5.304,2.197l-28.957,28.958l-28.958-28.958c-2.931-2.93-7.679-2.928-10.607,0
		L55.83,295.735c-1.406,1.406-2.196,3.314-2.196,5.303s0.79,3.897,2.196,5.303l28.959,28.958L55.83,364.257
		c-1.406,1.406-2.196,3.314-2.196,5.303s0.79,3.897,2.196,5.303l21.213,21.213c1.465,1.465,3.384,2.197,5.304,2.197
		c1.919,0,3.839-0.732,5.304-2.197l28.958-28.958l28.957,28.958c1.407,1.407,3.314,2.197,5.304,2.197s3.896-0.79,5.304-2.197
		l21.213-21.213c2.929-2.929,2.929-7.678,0-10.606L148.428,335.299z M100.699,340.603c1.406-1.406,2.196-3.314,2.196-5.303
		s-0.79-3.897-2.196-5.303l-28.959-28.958l10.606-10.606l28.958,28.958c1.407,1.407,3.314,2.197,5.304,2.197s3.896-0.79,5.304-2.197
		l28.957-28.958l10.606,10.606l-28.958,28.958c-2.929,2.929-2.929,7.678,0,10.606l28.958,28.958l-10.606,10.606l-28.957-28.958
		c-1.407-1.407-3.314-2.197-5.304-2.197s-3.896,0.79-5.304,2.197l-28.958,28.958l-10.606-10.606L100.699,340.603z"/>
	<path style="fill:#34150C;" d="M403.504,350.667c-4.411,0-8,3.589-8,8s3.589,8,8,8s8-3.589,8-8S407.915,350.667,403.504,350.667z"
		/>
	<path style="fill:#34150C;" d="M93.504,100.667c-4.411,0-8,3.589-8,8s3.589,8,8,8s8-3.589,8-8S97.915,100.667,93.504,100.667z"/>
	<path style="fill:#34150C;" d="M123.504,80.667c-4.411,0-8,3.589-8,8s3.589,8,8,8s8-3.589,8-8S127.915,80.667,123.504,80.667z"/>
	<path style="fill:#34150C;" d="M365.068,116.885l-5.871,5.871c-2.929,2.929-2.929,7.678,0,10.606
		c1.465,1.464,3.385,2.197,5.304,2.197s3.839-0.732,5.304-2.197l5.87-5.87l5.87,5.87c1.465,1.464,3.385,2.197,5.304,2.197
		s3.839-0.732,5.304-2.197c2.929-2.929,2.929-7.678,0-10.606l-5.871-5.871l5.871-5.871c2.929-2.929,2.929-7.678,0-10.606
		c-2.93-2.929-7.678-2.929-10.607,0l-5.87,5.87l-5.87-5.87c-2.93-2.929-7.678-2.929-10.607,0c-2.929,2.929-2.929,7.678,0,10.606
		L365.068,116.885z"/>
</g>
<g>
</g>
<g>
</g>
<g>
</g>
<g>
</g>
<g>
</g>
<g>
</g>
<g>
</g>
<g>
</g>
<g>
</g>
<g>
</g>
<g>
</g>
<g>
</g>
<g>
</g>
<g>
</g>
<g>
</g>
</svg>
