<?xml version="1.0" encoding="iso-8859-1"?>
<!-- Generator: Adobe Illustrator 19.0.0, SVG Export Plug-In . SVG Version: 6.00 Build 0)  -->
<svg version="1.1" id="Capa_1" xmlns="http://www.w3.org/2000/svg" xmlns:xlink="http://www.w3.org/1999/xlink" x="0px" y="0px"
	 viewBox="0 0 471.261 471.261" style="enable-background:new 0 0 471.261 471.261;" xml:space="preserve">
<g>
	<path style="fill:#E63A2A;" d="M297.419,337.734c-3.638-20.338-13.918-38.605-20.514-48.708c-2.479,3.795-5.477,8.736-8.435,14.488
		c-1.423,2.767-4.4,4.365-7.5,4.023c-3.092-0.345-5.651-2.563-6.43-5.575c-4.47-17.274-13.111-32.459-18.91-41.35
		c-5.797,8.889-14.439,24.074-18.909,41.35c-0.779,3.012-3.338,5.23-6.43,5.575c-3.092,0.341-6.077-1.256-7.5-4.023
		c-2.955-5.745-5.949-10.682-8.427-14.476c-8.065,12.378-21.652,36.972-21.849,62.433c0,34.744,28.313,63.058,63.116,63.058
		c29.504,0,55.441-20.903,61.673-49.702c0.848-3.919,4.614-6.444,8.529-5.808c0.268-2.499,0.414-5.035,0.414-7.606
		c-0.019-2.543-0.165-5.072-0.411-7.581C301.861,344.387,298.131,341.716,297.419,337.734z"/>
	<path style="fill:#8A6F64;" d="M338.654,429.529H157.619c2.138,3.985,3.355,8.535,3.355,13.366c0,4.831-1.217,9.381-3.355,13.366
		h181.036c7.37,0,13.366-5.996,13.366-13.366C352.02,435.525,346.024,429.529,338.654,429.529z"/>
	<path style="fill:#6F362D;" d="M132.608,456.261c7.37,0,13.366-5.996,13.366-13.366s-5.996-13.366-13.366-13.366
		s-13.366,5.996-13.366,13.366S125.238,456.261,132.608,456.261z"/>
	<path style="fill:#34150C;" d="M338.654,414.529h-57.025c1.14-0.831,2.266-1.682,3.361-2.577
		c13.678-11.17,23.258-26.78,26.974-43.953c0.876-4.049-1.696-8.041-5.744-8.917c-0.13-0.028-0.259-0.043-0.388-0.064
		c-3.915-0.637-7.681,1.889-8.529,5.808c-6.231,28.799-32.169,49.702-61.673,49.702c-34.802,0-63.116-28.313-63.116-63.058
		c0.197-25.461,13.784-50.055,21.849-62.433c2.479,3.794,5.472,8.731,8.427,14.476c1.423,2.767,4.408,4.365,7.5,4.023
		c3.092-0.345,5.651-2.563,6.43-5.575c4.47-17.276,13.112-32.461,18.909-41.35c5.798,8.891,14.44,24.076,18.91,41.35
		c0.779,3.012,3.338,5.23,6.43,5.575c3.1,0.342,6.077-1.257,7.5-4.023c2.958-5.751,5.956-10.693,8.435-14.488
		c6.596,10.103,16.875,28.37,20.514,48.708c0.712,3.982,4.442,6.653,8.416,6.098c0.096-0.013,0.191-0.019,0.287-0.036
		c4.077-0.729,6.792-4.626,6.062-8.704c-6.164-34.455-28.484-62.557-29.432-63.737c-1.423-1.772-3.574-2.804-5.847-2.804
		s-4.424,1.031-5.848,2.803c-0.204,0.254-3.267,4.091-7.398,10.518c-8.937-22.301-21.533-38.138-22.183-38.947
		c-1.424-1.772-3.574-2.803-5.847-2.803s-4.424,1.031-5.847,2.803c-0.65,0.809-13.246,16.646-22.182,38.947
		c-4.131-6.426-7.194-10.263-7.398-10.517c-1.423-1.772-3.574-2.803-5.847-2.803c-2.273,0-4.424,1.031-5.847,2.803
		c-1.252,1.559-30.674,38.649-30.995,80.059c0,25.908,12.688,48.896,32.165,63.116h-57.072c-15.641,0-28.366,12.725-28.366,28.366
		s12.725,28.366,28.366,28.366h206.046c15.641,0,28.366-12.725,28.366-28.366S354.295,414.529,338.654,414.529z M338.654,456.261
		H157.618c2.138-3.985,3.355-8.536,3.355-13.366c0-4.83-1.217-9.381-3.355-13.366h181.035c7.37,0,13.366,5.996,13.366,13.366
		C352.02,450.265,346.024,456.261,338.654,456.261z M132.608,429.529c7.37,0,13.366,5.996,13.366,13.366
		s-5.996,13.366-13.366,13.366s-13.366-5.996-13.366-13.366S125.238,429.529,132.608,429.529z"/>
	<path style="fill:#B9A550;" d="M305.431,122.315H165.855v58.341c0.014,16.234,13.238,29.447,29.479,29.447h80.594
		c16.24,0,29.464-13.213,29.479-29.453L305.431,122.315z"/>
	<path style="fill:#34150C;" d="M443.764,29.987h-10.007c-4.142,0-7.5,3.358-7.5,7.5s3.358,7.5,7.5,7.5h10.007
		c4.142,0,7.5-3.358,7.5-7.5S447.906,29.987,443.764,29.987z"/>
	<path style="fill:#34150C;" d="M144.52,44.987c4.142,0,7.5-3.358,7.5-7.5s-3.358-7.5-7.5-7.5H80.381l9.917-17.534
		c2.039-3.605,0.77-8.181-2.836-10.221c-3.605-2.039-8.181-0.77-10.221,2.836l-9.719,17.184L57.803,5.069
		c-2.04-3.605-6.615-4.875-10.221-2.836c-3.605,2.04-4.875,6.615-2.836,10.221l15.276,27.008v424.3c0,4.142,3.358,7.5,7.5,7.5
		s7.5-3.358,7.5-7.5V44.987H144.52z"/>
	<path style="fill:#34150C;" d="M37.503,29.987H27.497c-4.142,0-7.5,3.358-7.5,7.5s3.358,7.5,7.5,7.5h10.006
		c4.142,0,7.5-3.358,7.5-7.5S41.645,29.987,37.503,29.987z"/>
	<path style="fill:#34150C;" d="M426.514,12.454c2.039-3.605,0.77-8.181-2.836-10.221c-3.605-2.039-8.182-0.77-10.221,2.836
		l-9.719,17.184l-9.719-17.184c-2.04-3.605-6.615-4.875-10.221-2.836c-3.605,2.04-4.875,6.615-2.836,10.221l9.917,17.534h-90.612
		C284.697,11.66,261.506,0,235.631,0c-26.869,0-50.84,12.585-66.383,32.156c-0.432,0.427-0.806,0.91-1.125,1.431
		c-10.825,14.244-17.268,31.995-17.268,51.228v22.5h-6.125c-4.142,0-7.5,3.358-7.5,7.5s3.358,7.5,7.5,7.5h6.125v58.348
		c0.021,24.504,19.975,44.44,44.479,44.44h80.594c24.504,0,44.458-19.936,44.479-44.444l0.024-58.344h6.101
		c4.142,0,7.5-3.358,7.5-7.5s-3.358-7.5-7.5-7.5h-6.095l0.009-22.5c0-14.388-3.612-27.944-9.961-39.828h85.754v418.774
		c0,4.142,3.358,7.5,7.5,7.5s7.5-3.358,7.5-7.5V39.46L426.514,12.454z M278.775,29.987h-86.263
		C204.391,20.614,219.363,15,235.631,15C251.908,15,266.889,20.614,278.775,29.987z M275.928,210.103h-80.594
		c-16.241,0-29.465-13.213-29.479-29.447v-58.341h139.576l-0.024,58.335C305.392,196.89,292.168,210.103,275.928,210.103z
		 M305.446,84.812l-0.009,22.503H165.855v-22.5c0-14.797,4.638-28.523,12.516-39.828h114.552
		C300.806,56.292,305.446,70.017,305.446,84.812z"/>
</g>
<g>
</g>
<g>
</g>
<g>
</g>
<g>
</g>
<g>
</g>
<g>
</g>
<g>
</g>
<g>
</g>
<g>
</g>
<g>
</g>
<g>
</g>
<g>
</g>
<g>
</g>
<g>
</g>
<g>
</g>
</svg>
