<?xml version="1.0" encoding="iso-8859-1"?>
<!-- Generator: Adobe Illustrator 19.0.0, SVG Export Plug-In . SVG Version: 6.00 Build 0)  -->
<svg version="1.1" id="Capa_1" xmlns="http://www.w3.org/2000/svg" xmlns:xlink="http://www.w3.org/1999/xlink" x="0px" y="0px"
	 viewBox="0 0 470 470" style="enable-background:new 0 0 470 470;" xml:space="preserve">
<g>
	<path style="fill:#CF5530;" d="M262.478,40.946V26.407c0-6.29-5.117-11.407-11.406-11.407H218.93
		c-6.29,0-11.407,5.117-11.407,11.407v14.539H262.478z"/>
	<path style="fill:#CF5530;" d="M200.021,267.044c4.144,0,7.501,3.358,7.501,7.5V455h54.955V274.544c0-4.142,3.357-7.5,7.5-7.5
		c0.003,0,0.003-15,0.003-15h-69.96V267.044z"/>
	<path style="fill:#E9B264;" d="M441.733,152.766H35.684v84.278h417.65v-18.175l-7.614-8.565c-2.526-2.842-2.526-7.124,0-9.966
		l7.614-8.565v-39.006h-11.435C441.845,152.767,441.788,152.767,441.733,152.766z M357.389,208.357
		c-1.906,3.678-6.433,5.113-10.11,3.206l-35.122-18.21l-35.122,18.21c-2.164,1.122-4.74,1.122-6.904,0l-35.124-18.21l-35.123,18.21
		c-2.164,1.122-4.74,1.123-6.904,0l-35.129-18.211l-35.129,18.211c-1.103,0.572-2.283,0.843-3.445,0.843
		c-2.712,0-5.331-1.476-6.665-4.05c-1.906-3.677-0.47-8.204,3.207-10.11l38.581-20c2.164-1.122,4.739-1.122,6.903,0l35.129,18.211
		l35.123-18.21c2.164-1.122,4.74-1.122,6.904,0l35.124,18.21l35.122-18.21c2.164-1.122,4.74-1.122,6.904,0l38.574,20
		C357.86,200.154,359.295,204.68,357.389,208.357z M411.559,218.471c-4.411,0-8-3.589-8-8s3.589-8,8-8s8,3.589,8,8
		S415.97,218.471,411.559,218.471z"/>
	<path style="fill:#F59B45;" d="M434.316,55.946H16.666v18.175l7.614,8.565c2.526,2.842,2.526,7.124,0,9.966l-7.614,8.565v36.548
		h417.65V55.946z M55.559,116.471c-4.411,0-8-3.589-8-8s3.589-8,8-8s8,3.589,8,8S59.97,116.471,55.559,116.471z M75.559,94.471
		c-4.411,0-8-3.589-8-8s3.589-8,8-8s8,3.589,8,8S79.97,94.471,75.559,94.471z M357.389,110.309
		c-1.906,3.678-6.433,5.114-10.11,3.206l-35.122-18.21l-35.122,18.21c-2.164,1.122-4.74,1.122-6.904,0l-35.124-18.21l-35.123,18.21
		c-2.164,1.122-4.74,1.123-6.904,0L157.85,95.304l-35.129,18.211c-1.103,0.572-2.283,0.843-3.445,0.843
		c-2.712,0-5.331-1.476-6.665-4.05c-1.906-3.677-0.47-8.204,3.207-10.11l38.581-20c2.164-1.122,4.739-1.122,6.903,0l35.129,18.211
		l35.123-18.21c2.164-1.122,4.74-1.122,6.904,0l35.124,18.21l35.122-18.21c2.164-1.122,4.74-1.122,6.904,0l38.574,20
		C357.86,102.105,359.295,106.631,357.389,110.309z"/>
	<path style="fill:#34150C;" d="M411.559,202.471c-4.411,0-8,3.589-8,8s3.589,8,8,8s8-3.589,8-8S415.97,202.471,411.559,202.471z"/>
	<path style="fill:#34150C;" d="M75.559,78.471c-4.411,0-8,3.589-8,8s3.589,8,8,8s8-3.589,8-8S79.97,78.471,75.559,78.471z"/>
	<path style="fill:#34150C;" d="M55.559,100.471c-4.411,0-8,3.589-8,8s3.589,8,8,8s8-3.589,8-8S59.97,100.471,55.559,100.471z"/>
	<path style="fill:#34150C;" d="M468.334,194.624v-49.358c0-4.142-3.357-7.5-7.5-7.5h-11.518v-89.32c0-4.142-3.357-7.5-7.5-7.5
		H277.478V26.407C277.478,11.846,265.632,0,251.071,0H218.93c-14.561,0-26.407,11.846-26.407,26.407v14.539H9.166
		c-4.142,0-7.5,3.358-7.5,7.5v28.526c0,1.837,0.674,3.61,1.895,4.983l5.08,5.714l-5.08,5.714c-1.22,1.373-1.895,3.146-1.895,4.983
		v46.9c0,4.142,3.358,7.5,7.5,7.5h11.518v91.778c0,4.142,3.358,7.5,7.5,7.5h171.837h69.96h190.853c4.143,0,7.5-3.358,7.5-7.5
		v-28.527c0-1.837-0.674-3.61-1.895-4.983l-5.079-5.713l5.079-5.714C467.66,198.234,468.334,196.461,468.334,194.624z
		 M453.334,191.772l-7.614,8.565c-2.526,2.842-2.526,7.124,0,9.966l7.614,8.565v18.175H35.684v-84.278h406.05
		c0.055,0.001,0.111,0.001,0.166,0h11.435V191.772z M16.666,101.218l7.614-8.565c2.526-2.842,2.526-7.124,0-9.966l-7.614-8.565
		V55.946h417.65v81.82H16.666V101.218z M218.93,15h32.142c6.289,0,11.406,5.117,11.406,11.407v14.539h-54.955V26.407
		C207.522,20.117,212.64,15,218.93,15z"/>
	<path style="fill:#34150C;" d="M262.478,274.544V455h-54.955V274.544c0-4.142-3.358-7.5-7.5-7.5c-4.143,0.001-7.5,3.358-7.5,7.5
		V455H119.27c-4.142,0-7.5,3.358-7.5,7.5s3.358,7.5,7.5,7.5H350.73c4.143,0,7.5-3.358,7.5-7.5s-3.357-7.5-7.5-7.5h-73.253V274.544
		c0-4.141-3.356-7.498-7.497-7.5C265.835,267.044,262.478,270.402,262.478,274.544z"/>
	<path style="fill:#34150C;" d="M354.183,100.198l-38.574-20c-2.164-1.122-4.74-1.122-6.904,0l-35.122,18.21l-35.124-18.21
		c-2.164-1.122-4.74-1.122-6.904,0l-35.123,18.21l-35.129-18.211c-2.164-1.122-4.739-1.122-6.903,0l-38.581,20
		c-3.677,1.907-5.113,6.433-3.207,10.11c1.334,2.574,3.953,4.05,6.665,4.05c1.162,0,2.342-0.271,3.445-0.843l35.129-18.211
		l35.129,18.211c2.164,1.122,4.74,1.122,6.904,0l35.123-18.21l35.124,18.21c2.164,1.122,4.74,1.122,6.904,0l35.122-18.21
		l35.122,18.21c3.678,1.908,8.204,0.472,10.11-3.206C359.295,106.631,357.86,102.105,354.183,100.198z"/>
	<path style="fill:#34150C;" d="M354.183,198.247l-38.574-20c-2.164-1.122-4.74-1.122-6.904,0l-35.122,18.21l-35.124-18.21
		c-2.164-1.122-4.74-1.122-6.904,0l-35.123,18.21l-35.129-18.211c-2.164-1.122-4.739-1.122-6.903,0l-38.581,20
		c-3.677,1.907-5.113,6.433-3.207,10.11c1.334,2.574,3.953,4.05,6.665,4.05c1.162,0,2.342-0.271,3.445-0.843l35.129-18.211
		l35.129,18.211c2.164,1.122,4.74,1.122,6.904,0l35.123-18.21l35.124,18.21c2.164,1.122,4.74,1.122,6.904,0l35.122-18.21
		l35.122,18.21c3.678,1.907,8.204,0.472,10.11-3.206C359.295,204.68,357.86,200.154,354.183,198.247z"/>
</g>
<g>
</g>
<g>
</g>
<g>
</g>
<g>
</g>
<g>
</g>
<g>
</g>
<g>
</g>
<g>
</g>
<g>
</g>
<g>
</g>
<g>
</g>
<g>
</g>
<g>
</g>
<g>
</g>
<g>
</g>
</svg>
