<svg id="Layer_1" height="512" viewBox="0 0 128 128" width="512" xmlns="http://www.w3.org/2000/svg" data-name="Layer 1"><path d="m117.25 38.813a14.9 14.9 0 0 0 -14.884-14.883h-76.732a14.9 14.9 0 0 0 -14.884 14.883v7.771a1.75 1.75 0 0 0 .033.326c-.021.489-.033.988-.033 1.5 0 8.169 9.2 20.057 9.587 20.559a1.75 1.75 0 0 0 3.033-.5c.039-.113 3.6-10.246 8.468-16.777a85.836 85.836 0 0 0 6.362 10.39 1.749 1.749 0 0 0 2.844 0 82.735 82.735 0 0 0 6.706-11.082 82.735 82.735 0 0 0 6.7 11.078 1.749 1.749 0 0 0 2.844 0 82.735 82.735 0 0 0 6.706-11.078 82.735 82.735 0 0 0 6.7 11.078 1.749 1.749 0 0 0 2.844 0 82.735 82.735 0 0 0 6.706-11.078 82.735 82.735 0 0 0 6.7 11.078 1.749 1.749 0 0 0 2.844 0 85.836 85.836 0 0 0 6.365-10.391c4.87 6.531 8.428 16.664 8.468 16.777a1.75 1.75 0 0 0 3.033.5c.392-.5 9.587-12.39 9.587-20.559 0-.513-.012-1.012-.033-1.5a1.75 1.75 0 0 0 .033-.326zm-96.018 25.433c-2.895-4.226-6.982-11.209-6.982-15.835 0-7.2 2.053-11.091 6.655-12.61a9.589 9.589 0 0 1 10.938 3.39 9.816 9.816 0 0 0 -2.093 6.057 9.421 9.421 0 0 0 .545 2.767c-4.118 4.821-7.405 12.121-9.063 16.231zm18.393-6.258a63.707 63.707 0 0 1 -5.639-9.966 1.741 1.741 0 0 0 -.178-.449 7.227 7.227 0 0 1 -.558-2.325 6.375 6.375 0 0 1 12.75 0c0 2.437-3.48 8.424-6.375 12.74zm16.25 0c-2.895-4.315-6.375-10.3-6.375-12.74a6.375 6.375 0 0 1 12.75 0c0 2.437-3.48 8.424-6.375 12.74zm16.25 0c-2.895-4.315-6.375-10.3-6.375-12.74a6.375 6.375 0 0 1 12.75 0c0 2.437-3.48 8.424-6.375 12.74zm16.25 0c-2.895-4.315-6.375-10.3-6.375-12.74a6.375 6.375 0 0 1 12.75 0 7.232 7.232 0 0 1 -.559 2.327 1.744 1.744 0 0 0 -.177.445 63.762 63.762 0 0 1 -5.639 9.968zm18.393 6.258c-1.657-4.11-4.945-11.41-9.063-16.231a9.421 9.421 0 0 0 .545-2.767 9.815 9.815 0 0 0 -2.09-6.054 9.684 9.684 0 0 1 10.935-3.394c4.6 1.52 6.655 5.409 6.655 12.61 0 4.627-4.088 11.611-6.982 15.836zm1.425-31.77a13.128 13.128 0 0 0 -14.66 4.366 9.832 9.832 0 0 0 -13.283 2.807 9.858 9.858 0 0 0 -16.25 0 9.858 9.858 0 0 0 -16.25 0 9.832 9.832 0 0 0 -13.284-2.8 13.2 13.2 0 0 0 -14.658-4.367 12.14 12.14 0 0 0 -5.095 3.148 11.4 11.4 0 0 1 10.921-8.2h76.732a11.4 11.4 0 0 1 10.921 8.195 12.14 12.14 0 0 0 -5.095-3.148z"/><path d="m99.863 66.817a1.75 1.75 0 0 0 -3.033.5c-.031.09-2.761 7.875-6.541 13.163a70.227 70.227 0 0 0 -4.989-8.035 1.75 1.75 0 0 0 -2.844 0 68.656 68.656 0 0 0 -5.2 8.472 68.556 68.556 0 0 0 -5.2-8.471 1.813 1.813 0 0 0 -2.844 0 68.561 68.561 0 0 0 -5.212 8.47 68.561 68.561 0 0 0 -5.2-8.471 1.813 1.813 0 0 0 -2.844 0 68.556 68.556 0 0 0 -5.2 8.471 68.656 68.656 0 0 0 -5.2-8.472 1.814 1.814 0 0 0 -2.844 0 70.233 70.233 0 0 0 -4.988 8.036c-3.788-5.28-6.524-13.071-6.554-13.161a1.75 1.75 0 0 0 -3.033-.5c-.322.413-7.887 10.193-7.887 16.965 0 .418.01.823.027 1.222a1.739 1.739 0 0 0 -.027.267v3.915a14.9 14.9 0 0 0 14.884 14.882h57.732a14.9 14.9 0 0 0 14.884-14.883v-3.916a1.74 1.74 0 0 0 -.027-.267c.017-.4.027-.8.027-1.222 0-6.771-7.564-16.552-7.887-16.965zm-.914 4.73c2.306 3.439 5.3 8.712 5.3 12.234 0 7.32-2.782 9.178-5.206 9.978a7.6 7.6 0 0 1 -8.421-2.451 8.32 8.32 0 0 0 1.632-4.946 7.78 7.78 0 0 0 -.411-2.207c3.157-3.755 5.704-9.206 7.106-12.607zm-15.07 5.006a50.582 50.582 0 0 1 4.3 7.664 1.74 1.74 0 0 0 .153.383 5.5 5.5 0 0 1 .425 1.762 4.876 4.876 0 0 1 -9.753 0c-.004-1.762 2.522-6.248 4.875-9.808zm-13.253 0c2.353 3.559 4.876 8.039 4.876 9.808a4.876 4.876 0 0 1 -9.752 0c0-1.761 2.523-6.247 4.876-9.806zm-13.252 0c2.353 3.559 4.876 8.039 4.876 9.808a4.876 4.876 0 1 1 -9.752 0c.002-1.761 2.523-6.247 4.876-9.806zm-13.253 0c2.353 3.561 4.879 8.047 4.879 9.809a4.861 4.861 0 0 1 -7.7 3.963 8.794 8.794 0 0 1 -1.129-1.125 4.834 4.834 0 0 1 -.926-2.836 5.5 5.5 0 0 1 .427-1.764 1.743 1.743 0 0 0 .148-.372 50.557 50.557 0 0 1 4.301-7.673zm-15.07-5.007c1.4 3.4 3.953 8.855 7.1 12.607a7.78 7.78 0 0 0 -.411 2.207 8.32 8.32 0 0 0 1.634 4.94 7.62 7.62 0 0 1 -8.418 2.455c-2.424-.8-5.206-2.657-5.206-9.978 0-3.517 2.995-8.79 5.301-12.229zm63.815 29.024h-57.732a11.36 11.36 0 0 1 -8.719-4.078 11.8 11.8 0 0 0 1.443.592 11.49 11.49 0 0 0 3.6.588 11 11 0 0 0 8.524-4.035 8.335 8.335 0 0 0 10.762-2.171 8.345 8.345 0 0 0 13.252 0 8.345 8.345 0 0 0 13.252 0 8.336 8.336 0 0 0 10.753 2.176 10.957 10.957 0 0 0 8.516 4.033 11.546 11.546 0 0 0 3.62-.592 11.8 11.8 0 0 0 1.443-.592 11.36 11.36 0 0 1 -8.714 4.079z"/><path d="m21.617 37.749c-.207.116-5.055 2.956-5.055 11.751a1.75 1.75 0 1 0 3.5 0c0-6.573 3.12-8.606 3.3-8.717a1.75 1.75 0 0 0 -1.743-3.034z"/></svg>