<?xml version="1.0" encoding="iso-8859-1"?>
<!-- Generator: Adobe Illustrator 19.0.0, SVG Export Plug-In . SVG Version: 6.00 Build 0)  -->
<svg version="1.1" id="Capa_1" xmlns="http://www.w3.org/2000/svg" xmlns:xlink="http://www.w3.org/1999/xlink" x="0px" y="0px"
	 viewBox="0 0 512.001 512.001" style="enable-background:new 0 0 512.001 512.001;" xml:space="preserve">
<g>
	<g>
		<path d="M292.888,497.015H146.289c-14.844,0-26.921-12.077-26.921-26.921v-53.078c0-17.472-5.582-34.549-15.717-48.086
			c-17.077-22.809-26.864-49.919-28.3-78.399c-0.209-4.132-3.701-7.315-7.86-7.105c-4.133,0.208-7.314,3.727-7.105,7.86
			c1.587,31.467,12.4,61.422,31.27,86.625c8.208,10.962,12.728,24.85,12.728,39.105v53.078
			c-0.001,23.107,18.799,41.906,41.905,41.906h146.599c4.139,0,7.493-3.354,7.493-7.493S297.027,497.015,292.888,497.015z"/>
	</g>
</g>
<g>
	<g>
		<path d="M398.767,144.135v-32.617c0-4.138-3.354-7.493-7.493-7.493c-4.139,0-7.493,3.355-7.493,7.493v29.862
			c-27.394-4.24-52.106-11.615-65.915-16.21V60.45c0-19.126,16.158-34.248,35.412-32.869c17.104,1.23,30.503,16.033,30.503,33.701
			v15.269c0,4.138,3.354,7.493,7.493,7.493s7.493-3.355,7.493-7.493V61.283c0-45.386-55.778-65.924-84.558-31.777
			c-16.127-38.672-70.57-39.473-87.998-1.555c-23.055-28.564-67.881-21.434-81.653,11.658
			C115.653,5.994,60.175,26.368,60.175,70.853c0,7.9,0,178.007,0,185.09c0,4.139,3.355,7.493,7.493,7.493
			c4.139,0,7.493-3.354,7.493-7.493v-33.984c21.727,20.625,56.906,16.644,73.356-8.845c19.03,29.489,61.998,29.357,80.85-0.245
			c15.217,23.896,47.62,29.616,69.968,12.11c20.585,8.513,47.547,16.691,50.987,16.691c8.742-0.001,10.349-12.538,1.886-14.745
			c-28.521-7.439-56.174-18.801-70.8-26.818c0,0-0.002,0-0.002-0.001c-28.424-15.597-33.786-37.883-24.932-56.377
			c9.143-19.076,15.337-17.56,49.308-6.867c30.883,10.847,63.012,18.085,84.219,20.617c28.822,5.385,48.886,31.461,46.672,60.656
			c-0.369,3.368-1.79,33.817-12.124,85.599c-2.26,11.337-4.571,21.631-14.274,38.286c-6.992,12.004-15.862,22.958-26.463,32.694
			c-2.147,1.939-13.775,11.699-35.255,16.893c-4.022,0.973-6.495,5.021-5.522,9.044c0.964,3.987,4.982,6.501,9.044,5.522
			c3.957-0.957,7.622-2.054,11.018-3.229v67.405c0,14.704-11.962,26.665-26.664,26.665h-8.577c-4.139,0-7.493,3.354-7.493,7.493
			c0,4.139,3.354,7.493,7.493,7.493h8.577c22.966,0,41.649-18.685,41.649-41.65v-71.63c1.436-1.918,48.846-30.47,61.162-92.05
			c10.388-52.049,12.134-85.23,12.372-87.403C454.251,184.505,431.854,153.247,398.767,144.135z M108.171,220.177
			c-18.202,0-33.01-14.809-33.01-33.01c0.231-121.015-0.544-117.036,0.671-122.959c3.192-15.557,17.599-28,36.294-26.117
			c14.859,1.776,26.757,13.579,28.741,28.373c0.058,127.82-0.126,120.439,0.136,124.132
			C139.282,207.193,125.215,220.177,108.171,220.177z M221.873,187.168c0,18.202-14.809,33.01-33.011,33.01
			c-17.044,0-31.112-12.985-32.833-29.581c0.235-3.29,0.225-116.427-0.176-132.53c0-18.202,14.808-33.01,33.01-33.01
			c18.222,0,33.01,14.828,33.01,33.01V187.168z M302.879,120.257c-27.15-8.355-45.012-11.479-58.557,14.286
			c-15.019,28.543-7.044,61.146,38.372,83.022c-21.536,9.18-45.835-6.707-45.835-30.397c-0.001-20.79-0.001-122.83-0.001-139.285
			c0-18.202,14.807-33.01,33.01-33.01c18.202,0,33.011,14.809,33.011,33.01C302.879,70.547,302.879,97.397,302.879,120.257z"/>
	</g>
</g>
<g>
</g>
<g>
</g>
<g>
</g>
<g>
</g>
<g>
</g>
<g>
</g>
<g>
</g>
<g>
</g>
<g>
</g>
<g>
</g>
<g>
</g>
<g>
</g>
<g>
</g>
<g>
</g>
<g>
</g>
</svg>
