<svg id="Layer_1" enable-background="new 0 0 512 512" height="512" viewBox="0 0 512 512" width="512" xmlns="http://www.w3.org/2000/svg"><g><g><g><path d="m256 118.181c6.463 0 15.098-2.796 23.416-5.839 10.804-21.275 24.721-40.421 41.432-56.984 24.68-24.462 57.527-50.275 102.803-55.358l4.705 8.901c.615 1.164 15.16 28.971 22.998 68.755 9.988 50.706 4.451 98.176-15.989 137.794l47.632 128.863c9.929 26.861 11.847 49.689 6.22 74.017-5.305 22.934-17.621 48.836-41.182 86.608l-4.406 7.062h-187.629l-10.667-181.334z" fill="#ffae48"/></g><path d="m256 118.181c-6.463 0-15.098-2.796-23.416-5.839-10.804-21.275-24.721-40.421-41.432-56.984-24.68-24.462-57.527-50.275-102.802-55.358l-4.705 8.901c-.615 1.164-15.16 28.971-22.998 68.755-9.988 50.706-4.451 98.176 15.989 137.794l-47.632 128.864c-9.929 26.861-11.847 49.689-6.22 74.017 5.305 22.934 17.621 48.836 41.182 86.608l4.405 7.061h187.629z" fill="#ffcb6e"/></g><path d="m167.18 266.667h30v30h-30z" fill="#36607d"/><path d="m314.82 266.667h30v30h-30z" fill="#28485e"/><g><path d="m369.754 367.415-.22-.02c-10.288-23.849-34.003-40.546-61.626-40.546-20.922 0-39.603 9.58-51.908 24.588l-10.667 64.563 10.667 73.562c13.26 14.166 31.889 22.44 51.962 22.438h.37c19.586-.099 37.934-7.613 51.665-21.159 14.903-14.703 22.781-34.741 22.781-57.948 0-23.973-4.138-44.779-13.024-65.478z" fill="#ffc869"/><path d="m204.092 326.849c-27.624 0-51.339 16.699-61.627 40.548l-.221.02c-8.885 20.7-13.022 41.505-13.022 65.476 0 23.207 7.878 43.245 22.781 57.948 13.731 13.546 32.079 21.061 51.664 21.159h.37c20.072 0 38.703-8.274 51.963-22.438v-138.125c-12.305-15.008-30.986-24.588-51.908-24.588z" fill="#ffdf8e"/></g><g><path d="m266.39 380.358h-10.39l-10.667 35.642 10.667 44 27.908-16.397c10.255-6.153 16.53-17.236 16.53-29.196.001-18.804-15.243-34.049-34.048-34.049z" fill="#28485e"/><path d="m245.61 380.359c-18.805 0-34.049 15.244-34.049 34.048 0 11.96 6.275 23.043 16.531 29.196l27.908 16.397v-79.641z" fill="#36607d"/></g><path d="m169.077 129.71c-8.067-29.599-26.116-48.971-27.096-50.004l-21.775 20.636c.219.231 21.099 23.123 22.621 53.96 8.713-8.236 17.465-16.431 26.25-24.592z" fill="#ffae48"/><path d="m342.924 129.71c8.067-29.599 26.116-48.971 27.096-50.004l21.775 20.636c-.219.231-21.099 23.123-22.621 53.96-8.714-8.236-17.466-16.431-26.25-24.592z" fill="#e8952c"/></g></svg>