<?xml version="1.0" encoding="iso-8859-1"?>
<!-- Generator: Adobe Illustrator 19.0.0, SVG Export Plug-In . SVG Version: 6.00 Build 0)  -->
<svg version="1.1" id="Capa_1" xmlns="http://www.w3.org/2000/svg" xmlns:xlink="http://www.w3.org/1999/xlink" x="0px" y="0px"
	 viewBox="0 0 512 512" style="enable-background:new 0 0 512 512;" xml:space="preserve">
<g>
	<g>
		<g>
			<path d="M443.733,0H68.267c-14.132,0.015-25.585,11.468-25.6,25.6v460.8c0.015,14.132,11.468,25.585,25.6,25.6h375.467
				c14.132-0.015,25.585-11.468,25.6-25.6V25.6C469.318,11.468,457.865,0.015,443.733,0z M452.267,486.4
				c-0.005,4.711-3.822,8.529-8.533,8.533H68.267c-4.711-0.005-8.529-3.822-8.533-8.533V25.6c0.005-4.711,3.822-8.529,8.533-8.533
				h375.467c4.711,0.005,8.529,3.822,8.533,8.533V486.4z"/>
			<path d="M333.675,180.071c-11.96-10.63-27.993-15.455-43.833-13.192c-12.957,1.638-24.931,7.763-33.842,17.312
				c-8.91-9.549-20.884-15.675-33.842-17.313c-15.84-2.267-31.875,2.559-43.833,13.192c-20.792,19.379-21.475,57.167-1.817,93.817
				c15.058,30.087,53.45,57.037,74.983,70.425c2.76,1.717,6.256,1.717,9.017,0c21.533-13.388,59.925-40.337,74.867-70.212
				C355.15,237.238,354.467,199.451,333.675,180.071z M320.225,266.246C307.7,291.279,273.958,315.4,256,326.967
				c-17.958-11.567-51.708-35.708-64.341-60.933c-16.05-29.933-16.734-59.463-1.7-73.479c6.864-5.999,15.71-9.236,24.825-9.083
				c13.911-0.016,26.813,7.263,33.992,19.179c1.664,2.337,4.356,3.725,7.225,3.725c2.869,0,5.561-1.388,7.225-3.725
				c6.251-10.327,16.85-17.259,28.817-18.846c10.795-1.557,21.735,1.634,30,8.75C337.075,206.571,336.392,236.1,320.225,266.246z"/>
			<path d="M120.442,119.65c-3.4,0.44-6.654,1.656-9.508,3.554c-2.855-1.899-6.108-3.115-9.508-3.554
				c-6.585-0.885-13.215,1.267-18.025,5.85c-8.175,8.025-8.817,22.317-1.733,36.208c6.046,10.108,14.493,18.568,24.592,24.629
				c2.839,1.861,6.511,1.861,9.35,0c10.036-6.015,18.443-14.4,24.483-24.421c7.192-14.1,6.55-28.392-1.625-36.417
				C133.655,120.919,127.026,118.768,120.442,119.65z M124.783,154.375c-3.497,5.772-8.227,10.701-13.849,14.433
				c-5.681-3.785-10.449-8.786-13.958-14.642c-4.233-8.312-3.5-14.646-1.625-16.483c0.883-0.774,2.026-1.185,3.2-1.15
				c0.234-0.001,0.468,0.014,0.7,0.046c1.868,0.281,3.488,1.44,4.358,3.117c1.652,2.421,4.394,3.869,7.325,3.869
				c2.931,0,5.673-1.448,7.325-3.869c0.87-1.677,2.491-2.835,4.358-3.117c1.399-0.227,2.827,0.177,3.9,1.104
				C128.391,139.521,129.124,145.854,124.783,154.375z"/>
			<path d="M124.125,39.9c-1.183-3.45-4.428-5.768-8.075-5.767h-10.233c-3.647-0.001-6.892,2.316-8.075,5.767L77.258,99.633
				c-1.525,4.458,0.851,9.31,5.308,10.838c4.458,1.528,9.312-0.846,10.842-5.304l3.875-11.3h27.3l3.875,11.3
				c1.528,4.46,6.382,6.836,10.842,5.308c4.46-1.528,6.836-6.382,5.308-10.842L124.125,39.9z M103.134,76.8l7.799-22.746
				l7.799,22.746H103.134z"/>
			<path d="M405.742,325.662c-2.84-1.858-6.51-1.858-9.35,0c-10.036,6.015-18.443,14.4-24.483,24.421
				c-7.192,14.1-6.55,28.392,1.625,36.417c4.075,3.908,9.513,6.072,15.158,6.033c0.958-0.001,1.916-0.062,2.867-0.183
				c3.4-0.44,6.654-1.656,9.508-3.554c2.855,1.898,6.108,3.115,9.508,3.554c6.586,0.895,13.22-1.258,18.025-5.85
				c8.175-8.025,8.817-22.317,1.733-36.208C424.287,340.184,415.84,331.724,405.742,325.662z M416.65,374.317
				c-1.071,0.93-2.5,1.335-3.9,1.104c-1.868-0.281-3.488-1.44-4.358-3.117c-1.652-2.421-4.394-3.869-7.325-3.869
				c-2.931,0-5.673,1.448-7.325,3.869c-0.87,1.677-2.49,2.835-4.358,3.117c-1.4,0.232-2.829-0.173-3.9-1.104
				c-1.876-1.838-2.609-8.171,1.733-16.692c3.497-5.772,8.227-10.701,13.85-14.433c5.681,3.785,10.449,8.786,13.958,14.642
				C419.258,366.146,418.525,372.479,416.65,374.317z"/>
			<path d="M429.433,401.525c-4.46-1.528-9.314,0.849-10.842,5.308l-3.875,11.3h-27.3l-3.875-11.3
				c-1.528-4.46-6.382-6.836-10.842-5.308s-6.836,6.382-5.308,10.842l20.483,59.733c1.183,3.45,4.428,5.768,8.075,5.767h10.233
				c3.647,0.001,6.892-2.316,8.075-5.767l20.483-59.733C436.27,407.907,433.893,403.053,429.433,401.525z M401.067,457.946
				l-7.799-22.746h15.598L401.067,457.946z"/>
		</g>
	</g>
</g>
<g>
</g>
<g>
</g>
<g>
</g>
<g>
</g>
<g>
</g>
<g>
</g>
<g>
</g>
<g>
</g>
<g>
</g>
<g>
</g>
<g>
</g>
<g>
</g>
<g>
</g>
<g>
</g>
<g>
</g>
</svg>
