<?xml version="1.0" encoding="iso-8859-1"?>
<!-- Generator: Adobe Illustrator 19.0.0, SVG Export Plug-In . SVG Version: 6.00 Build 0)  -->
<svg version="1.1" id="Capa_1" xmlns="http://www.w3.org/2000/svg" xmlns:xlink="http://www.w3.org/1999/xlink" x="0px" y="0px"
	 viewBox="0 0 512 512" style="enable-background:new 0 0 512 512;" xml:space="preserve">
<g>
	<g>
		<g>
			<polygon points="411.429,472.375 419.785,448 403.072,448 			"/>
			<path d="M326.758,188.022c-8.855-7.624-20.577-11.043-32.142-9.375c-12.821,1.7-24.178,9.127-30.875,20.192
				c-1.783,2.504-4.667,3.991-7.741,3.991c-3.074,0-5.958-1.487-7.741-3.991c-7.692-12.767-21.515-20.566-36.42-20.549
				c-9.766-0.163-19.244,3.305-26.598,9.732c-16.107,15.018-15.375,46.656,1.821,78.728c13.536,27.027,49.696,52.893,68.937,65.286
				c19.241-12.393,55.393-38.237,68.812-65.058C342.133,234.679,342.865,203.04,326.758,188.022z"/>
			<polygon points="92.215,64 108.928,64 100.571,39.625 			"/>
			<path d="M457.143,0H54.857c-5.047,0.005-9.138,4.095-9.143,9.143v493.714c0.005,5.047,4.095,9.138,9.143,9.143h402.286
				c5.047-0.005,9.138-4.095,9.143-9.143V9.143C466.281,4.095,462.19,0.005,457.143,0z M131.813,155.196
				c-6.472,10.737-15.479,19.721-26.232,26.165c-3.042,1.994-6.976,1.994-10.018,0c-10.82-6.495-19.87-15.559-26.348-26.388
				c-7.589-14.884-6.902-30.196,1.857-38.795c5.154-4.91,12.258-7.216,19.312-6.268c3.643,0.471,7.129,1.774,10.188,3.808
				c3.059-2.034,6.544-3.337,10.188-3.808c7.055-0.945,14.157,1.36,19.312,6.268C138.83,124.777,139.518,140.089,131.813,155.196z
				 M130.964,100.076L130.964,100.076c-2.294,0.792-4.809,0.638-6.989-0.428c-2.18-1.067-3.845-2.958-4.627-5.255l-4.152-12.107
				h-29.25l-4.152,12.107c-1.637,4.778-6.838,7.325-11.616,5.688c-4.778-1.637-7.325-6.838-5.688-11.616l21.946-64
				c1.267-3.697,4.744-6.18,8.652-6.179h10.964c3.908-0.001,7.385,2.482,8.652,6.179l21.946,64
				C138.286,93.241,135.74,98.439,130.964,100.076z M341.045,275.393c-16.009,32.009-57.143,60.884-80.214,75.227
				c-2.958,1.839-6.703,1.839-9.661,0c-23.071-14.344-64.205-43.219-80.339-75.455c-21.063-39.268-20.33-79.754,1.946-100.518
				c12.812-11.392,29.992-16.563,46.964-14.134c13.883,1.755,26.712,8.318,36.259,18.55c9.547-10.231,22.376-16.794,36.259-18.549
				c16.972-2.425,34.15,2.745,46.964,14.134C361.5,195.41,362.232,235.897,341.045,275.393z M447.509,423.536l-21.946,64
				c-1.267,3.697-4.744,6.18-8.652,6.179h-10.964c-3.908,0.001-7.385-2.482-8.652-6.179l-21.946-64
				c-1.059-3.091-0.389-6.512,1.759-8.975s5.445-3.593,8.652-2.964c3.206,0.628,5.834,2.92,6.893,6.011l4.152,12.107h29.25
				l4.152-12.107c1.637-4.778,6.838-7.325,11.616-5.688C446.6,413.557,449.146,418.758,447.509,423.536z M440.929,395.822
				c-5.148,4.92-12.257,7.227-19.312,6.268c-3.643-0.471-7.129-1.774-10.188-3.808c-3.059,2.034-6.544,3.337-10.188,3.808
				c-1.019,0.13-2.044,0.195-3.071,0.197c-6.049,0.042-11.875-2.277-16.241-6.464c-8.759-8.598-9.446-23.911-1.741-39.018
				c6.472-10.737,15.479-19.721,26.232-26.165c3.042-1.991,6.975-1.991,10.018,0c10.82,6.495,19.87,15.559,26.348,26.388
				C450.375,371.911,449.688,387.223,440.929,395.822z"/>
			<path d="M113.089,128.049c-2.001,0.302-3.737,1.543-4.67,3.339c-1.77,2.594-4.708,4.145-7.848,4.145
				c-3.14,0-6.078-1.551-7.848-4.145c-0.932-1.796-2.668-3.038-4.67-3.339c-0.249-0.034-0.499-0.051-0.75-0.049
				c-1.258-0.038-2.483,0.403-3.429,1.232c-2.009,1.969-2.795,8.754,1.741,17.661c3.76,6.274,8.868,11.633,14.955,15.688
				c6.025-3.999,11.092-9.28,14.839-15.464c4.652-9.13,3.866-15.915,1.857-17.884C116.118,128.239,114.588,127.806,113.089,128.049z
				"/>
			<path d="M411.429,349.42c-6.025,3.999-11.092,9.28-14.839,15.464c-4.652,9.129-3.866,15.915-1.857,17.884
				c1.147,0.998,2.679,1.431,4.178,1.183c2.001-0.302,3.737-1.543,4.67-3.339c1.77-2.594,4.708-4.145,7.848-4.145
				s6.078,1.551,7.848,4.145c0.932,1.796,2.668,3.038,4.67,3.339c1.499,0.247,3.031-0.187,4.178-1.183
				c2.009-1.969,2.795-8.754-1.741-17.661C422.624,358.833,417.516,353.475,411.429,349.42z"/>
		</g>
	</g>
</g>
<g>
</g>
<g>
</g>
<g>
</g>
<g>
</g>
<g>
</g>
<g>
</g>
<g>
</g>
<g>
</g>
<g>
</g>
<g>
</g>
<g>
</g>
<g>
</g>
<g>
</g>
<g>
</g>
<g>
</g>
</svg>
