<?xml version="1.0" encoding="iso-8859-1"?>
<!-- Generator: Adobe Illustrator 19.0.0, SVG Export Plug-In . SVG Version: 6.00 Build 0)  -->
<svg version="1.1" id="Capa_1" xmlns="http://www.w3.org/2000/svg" xmlns:xlink="http://www.w3.org/1999/xlink" x="0px" y="0px"
	 viewBox="0 0 512 512" style="enable-background:new 0 0 512 512;" xml:space="preserve">
<path style="fill:#E0230D;" d="M375.25,15c-3.52,0-7,0.14-10.44,0.42L256,497c116.3-91.88,248.5-221.77,248.5-352.75
	C504.5,72.87,446.63,15,375.25,15z"/>
<path style="fill:#FF5440;" d="M364.81,15.42c55.8,5.31,99.69,60.97,99.69,128.83C464.5,275.23,353.58,405.12,256,497
	C139.7,405.12,7.5,275.23,7.5,144.25C7.5,72.87,65.37,15,136.75,15c53.68,0,99.72,32.73,119.25,79.32
	C274.25,50.78,315.65,19.35,364.81,15.42z"/>
<path d="M375.25,7.5c-49.963,0-95.23,26.92-119.25,69.747C231.98,34.42,186.713,7.5,136.75,7.5C61.346,7.5,0,68.846,0,144.25
	c0,58.103,25.414,121.018,75.536,186.997c2.506,3.299,7.21,3.941,10.509,1.435c3.298-2.506,3.94-7.211,1.435-10.509
	C39.386,258.863,15,199.001,15,144.25C15,77.117,69.617,22.5,136.75,22.5c49.212,0,93.306,29.331,112.333,74.724
	c1.168,2.787,3.895,4.601,6.917,4.601c3.022,0,5.749-1.814,6.917-4.601C281.944,51.831,326.038,22.5,375.25,22.5
	C442.383,22.5,497,77.117,497,144.25c0,100.426-81.086,215.876-241,343.178c-61.626-49.061-112.062-96.828-149.966-142.039
	c-2.662-3.174-7.392-3.59-10.566-0.929s-3.59,7.392-0.929,10.566c39.509,47.125,92.269,96.872,156.812,147.859
	c1.363,1.076,3.006,1.615,4.649,1.615c1.643,0,3.286-0.538,4.649-1.615c71.43-56.427,128.324-111.252,169.104-162.951
	C484.328,270.743,512,204.906,512,144.25C512,68.846,450.654,7.5,375.25,7.5z"/>
<g>
</g>
<g>
</g>
<g>
</g>
<g>
</g>
<g>
</g>
<g>
</g>
<g>
</g>
<g>
</g>
<g>
</g>
<g>
</g>
<g>
</g>
<g>
</g>
<g>
</g>
<g>
</g>
<g>
</g>
</svg>
