<svg height="512pt" viewBox="-26 0 512 512" width="512pt" xmlns="http://www.w3.org/2000/svg"><path d="m153.601562 324.265625c-2.851562 0-5.523437-1.425781-7.101562-3.796875l-17.066406-25.597656c-.9375-1.410156-1.433594-3.058594-1.433594-4.738282v-51.199218c0-4.710938 3.824219-8.535156 8.535156-8.535156h34.132813c4.710937 0 8.53125 3.824218 8.53125 8.535156v51.199218c0 1.679688-.496094 3.328126-1.433594 4.738282l-17.066406 25.597656c-1.578125 2.371094-4.25 3.796875-7.097657 3.796875zm-8.535156-36.71875 8.535156 12.800781 8.53125-12.800781v-40.082031h-17.066406zm0 0"/><path d="m307.199219 324.265625c-2.847657 0-5.519531-1.425781-7.097657-3.796875l-17.066406-25.597656c-.941406-1.410156-1.433594-3.058594-1.433594-4.738282v-51.199218c0-4.710938 3.820313-8.535156 8.53125-8.535156h34.132813c4.710937 0 8.535156 3.824218 8.535156 8.535156v51.199218c0 1.679688-.496093 3.328126-1.433593 4.738282l-17.066407 25.597656c-1.578125 2.371094-4.25 3.796875-7.101562 3.796875zm-8.53125-36.71875 8.53125 12.800781 8.535156-12.800781v-40.082031h-17.066406zm0 0"/><path d="m230.398438 238.933594c-2.183594 0-4.367188-.835938-6.03125-2.5l-34.132813-34.132813c-3.335937-3.335937-3.335937-8.730469 0-12.066406l34.132813-34.132813c3.328124-3.335937 8.738281-3.335937 12.066406 0l34.132812 34.132813c3.335938 3.335937 3.335938 8.730469 0 12.066406l-34.132812 34.132813c-1.664063 1.664062-3.847656 2.5-6.035156 2.5zm-22.066407-42.667969 22.066407 22.066406 22.070312-22.066406-22.070312-22.066406zm0 0"/><path d="m273.066406 435.191406h-85.332031c-4.710937 0-8.535156-3.824218-8.535156-8.535156v-34.132812c0-4.710938 3.824219-8.53125 8.535156-8.53125h85.332031c4.710938 0 8.535156 3.820312 8.535156 8.53125v34.132812c0 4.710938-3.824218 8.535156-8.535156 8.535156zm-76.800781-17.066406h68.269531v-17.066406h-68.269531zm0 0"/><path d="m293.453125 469.324219h-126.105469c-35.816406 0-64.949218-29.140625-64.949218-64.945313v-37.453125c0-9.414062 7.648437-17.058593 17.050781-17.058593h221.894531c9.410156 0 17.054688 7.644531 17.054688 17.058593v37.453125c0 35.804688-29.140626 64.945313-64.945313 64.945313zm47.878906-102.398438-221.882812.007813.015625 37.433594c0 26.402343 21.480468 47.882812 47.882812 47.882812h126.097656c26.402344 0 47.878907-21.480469 47.878907-47.882812v-37.441407zm0 0"/><path d="m332.800781 511.992188h-204.800781c-4.710938 0-8.535156-3.824219-8.535156-8.535157v-58.699219c0-3.429687 2.058594-6.527343 5.214844-7.859374 3.167968-1.324219 6.820312-.640626 9.277343 1.75 9 8.78125 20.863281 13.609374 33.390625 13.609374h126.097656c12.527344 0 24.386719-4.828124 33.390626-13.609374 2.457031-2.390626 6.109374-3.082032 9.273437-1.75 3.167969 1.324218 5.222656 4.421874 5.222656 7.859374v58.699219c0 4.710938-3.820312 8.535157-8.53125 8.535157zm-196.265625-17.066407h187.730469v-33.375c-9.378906 5.078125-19.90625 7.773438-30.8125 7.773438h-126.105469c-10.914062 0-21.445312-2.695313-30.8125-7.773438zm0 0"/><path d="m384 512c-2.371094 0-4.632812-.988281-6.246094-2.722656-1.613281-1.742188-2.433594-4.078125-2.261718-6.441406 2.808593-37.921876 2.808593-76.542969 0-114.808594l-.027344-12.5625c0-4.707032 3.816406-8.53125 8.527344-8.53125l51.132812-.070313c14.164062 0 25.675781 11.511719 25.675781 25.671875v93.726563c0 14.160156-11.511719 25.671875-25.667969 25.671875l-51.125.066406zm8.535156-128.007812v3.414062c2.625 35.4375 2.832032 71.722656.605469 107.519531l41.984375-.050781c4.75 0 8.609375-3.859375 8.609375-8.601562v-93.738282c0-4.746094-3.859375-8.601562-8.601563-8.601562zm0 0"/><path d="m76.800781 512h-.007812l-51.132813-.066406c-14.148437 0-25.660156-11.511719-25.660156-25.671875v-93.726563c0-14.160156 11.511719-25.671875 25.667969-25.671875l51.140625.070313c4.710937 0 8.523437 3.824218 8.523437 8.53125v11.949218c0 .203126-.007812.417969-.023437.621094-2.808594 38.246094-2.808594 76.871094 0 114.800782.179687 2.363281-.640625 4.699218-2.261719 6.441406-1.613281 1.734375-3.875 2.722656-6.246094 2.722656zm-51.140625-128.066406c-4.738281 0-8.59375 3.855468-8.59375 8.601562v93.726563c0 4.746093 3.855469 8.601562 8.601563 8.601562l42 .054688c-2.226563-35.695313-2.019531-71.921875.597656-107.820313v-3.113281zm51.140625 3.480468h.085938zm0 0"/><path d="m170.667969 162.132812h-34.132813c-4.710937 0-8.535156-3.824218-8.535156-8.53125v-113.589843c0-7.945313 6.46875-14.410157 14.414062-14.410157h22.363282c7.953125 0 14.421875 6.464844 14.421875 14.410157v113.589843c0 4.707032-3.820313 8.53125-8.53125 8.53125zm-25.601563-17.066406h17.066406v-102.398437h-17.066406zm0 0"/><path d="m324.265625 162.132812h-34.132813c-4.710937 0-8.53125-3.824218-8.53125-8.53125v-113.589843c0-7.945313 6.464844-14.410157 14.410157-14.410157h22.367187c7.953125 0 14.421875 6.464844 14.421875 14.410157v113.589843c0 4.707032-3.824219 8.53125-8.535156 8.53125zm-25.597656-17.066406h17.066406v-102.398437h-17.066406zm0 0"/><path d="m290.132812 136.535156h-119.464843c-4.710938 0-8.535157-3.824218-8.535157-8.535156v-85.332031c0-4.710938 3.824219-8.535157 8.535157-8.535157h119.464843c4.710938 0 8.535157 3.824219 8.535157 8.535157v85.332031c0 4.710938-3.824219 8.535156-8.535157 8.535156zm-110.933593-17.070312h102.402343v-68.265625h-102.402343zm0 0"/><path d="m136.535156 136.535156h-35.664062c-17.976563 0-32.605469-14.628906-32.605469-32.609375v-37.1875c0-17.980469 14.628906-32.605469 32.605469-32.605469h35.664062c4.707032 0 8.53125 3.824219 8.53125 8.535157v85.332031c0 4.710938-3.824218 8.535156-8.53125 8.535156zm-35.664062-85.335937c-8.566406 0-15.539063 6.972656-15.539063 15.539062v37.179688c0 8.578125 6.972657 15.546875 15.539063 15.546875h27.128906v-68.265625zm0 0"/><path d="m359.925781 136.535156h-35.660156c-4.710937 0-8.53125-3.824218-8.53125-8.535156v-85.332031c0-4.710938 3.820313-8.535157 8.53125-8.535157h35.660156c17.980469 0 32.609375 14.625 32.609375 32.605469v37.179688c0 17.988281-14.628906 32.617187-32.609375 32.617187zm-27.125-17.070312h27.125c8.570313 0 15.539063-6.96875 15.539063-15.539063v-37.1875c0-8.566406-6.96875-15.539062-15.539063-15.539062h-27.125zm0 0"/><path d="m187.734375 247.464844h-68.269531c-4.707032 0-8.53125-3.820313-8.53125-8.53125 0-4.710938 3.824218-8.535156 8.53125-8.535156h68.269531c4.710937 0 8.53125 3.824218 8.53125 8.535156 0 4.710937-3.820313 8.53125-8.53125 8.53125zm0 0"/><path d="m341.332031 247.464844h-68.265625c-4.710937 0-8.53125-3.820313-8.53125-8.53125 0-4.710938 3.820313-8.535156 8.53125-8.535156h68.265625c4.710938 0 8.535157 3.824218 8.535157 8.535156 0 4.710937-3.824219 8.53125-8.535157 8.53125zm0 0"/><path d="m372.191406 290.132812h-47.925781c-4.710937 0-8.53125-3.824218-8.53125-8.53125v-34.136718h-17.066406v34.136718c0 4.707032-3.824219 8.53125-8.535157 8.53125h-119.464843c-4.710938 0-8.535157-3.824218-8.535157-8.53125v-34.136718h-17.066406v34.136718c0 4.707032-3.824218 8.53125-8.53125 8.53125h-47.839844c-11.136718 0-20.539062-8.6875-21.417968-19.769531-.382813-4.917969-.769532-10.285156-.90625-14.046875-.109375-2.917968-.179688-5.828125-.21875-8.738281-.539063-40.441406 5.664062-80.410156 18.457031-118.785156l1.160156-3.488281c1.167969-3.492188 4.429688-5.839844 8.097657-5.839844h42.667968c4.707032 0 8.53125 3.824218 8.53125 8.535156v17.066406h17.066406v-17.066406c0-4.710938 3.824219-8.535156 8.535157-8.535156h119.464843c4.710938 0 8.535157 3.824218 8.535157 8.535156v17.066406h17.066406v-17.066406c0-4.710938 3.820313-8.535156 8.53125-8.535156h42.667969c3.667968 0 6.929687 2.347656 8.097656 5.839844l1.160156 3.488281c13.738282 41.214843 19.875 84.121093 18.234375 127.53125-.175781 4.71875-.449219 9.4375-.808593 14.148437-.84375 11.023438-10.257813 19.660156-21.425782 19.660156zm-39.390625-17.066406h39.390625c2.300782 0 4.238282-1.714844 4.410156-3.898437.339844-4.488281.605469-8.988281.777344-13.492188 1.527344-40.535156-4.054687-80.605469-16.597656-119.140625h-27.980469v17.066406c0 4.707032-3.824219 8.53125-8.535156 8.53125h-34.132813c-4.710937 0-8.53125-3.824218-8.53125-8.53125v-17.066406h-102.402343v17.066406c0 4.707032-3.820313 8.53125-8.53125 8.53125h-34.132813c-4.710937 0-8.535156-3.824218-8.535156-8.53125v-17.066406h-27.972656c-11.664063 35.839844-17.324219 73.113282-16.808594 110.8125.03125 2.773438.109375 5.554688.210938 8.335938.136718 3.566406.496093 8.679687.863281 13.339844.179687 2.269531 2.105469 4.042968 4.402343 4.042968h39.304688v-34.132812c0-4.710938 3.824219-8.535156 8.535156-8.535156h34.132813c4.710937 0 8.53125 3.824218 8.53125 8.535156v34.132812h102.402343v-34.132812c0-4.710938 3.820313-8.535156 8.53125-8.535156h34.132813c4.710937 0 8.535156 3.824218 8.535156 8.535156zm0 0"/><path d="m384 512h-307.199219c-4.472656 0-8.175781-3.449219-8.507812-7.902344-5.5625-75.085937-.453125-144.707031 16.074219-219.109375l1.164062-5.238281c.867188-3.902344 4.332031-6.683594 8.335938-6.683594h42.667968c4.707032 0 8.53125 3.824219 8.53125 8.535156v5.945313l8.535156 12.800781 8.53125-12.800781v-5.945313c0-4.710937 3.824219-8.535156 8.535157-8.535156h119.464843c4.710938 0 8.535157 3.824219 8.535157 8.535156v5.945313l8.53125 12.800781 8.535156-12.800781v-5.945313c0-4.710937 3.820313-8.535156 8.53125-8.535156h42.667969c4 0 7.464844 2.78125 8.328125 6.683594l1.160156 5.238281c16.539063 74.402344 21.640625 144.023438 16.085937 219.109375-.332031 4.453125-4.035156 7.902344-8.507812 7.902344zm-299.238281-17.066406h291.269531c4.480469-69.886719-.625-135.238282-15.949219-204.800782h-27.28125c0 1.679688-.503906 3.328126-1.433593 4.726563l-17.066407 25.601563c-3.167969 4.753906-11.035156 4.753906-14.199219 0l-17.066406-25.601563c-.933594-1.398437-1.433594-3.046875-1.433594-4.726563h-102.402343c0 1.679688-.503907 3.328126-1.433594 4.726563l-17.066406 25.601563c-3.164063 4.753906-11.03125 4.753906-14.199219 0l-17.066406-25.601563c-.929688-1.398437-1.433594-3.046875-1.433594-4.726563h-27.289062c-15.328126 69.574219-20.429688 134.914063-15.949219 204.800782zm0 0"/><path d="m273.066406 51.199219h-85.332031c-4.710937 0-8.535156-3.820313-8.535156-8.53125v-17.042969c0-14.128906 12.339843-25.625 27.511719-25.625h47.378906c15.171875 0 27.511718 11.496094 27.511718 25.625v17.042969c0 4.710937-3.824218 8.53125-8.535156 8.53125zm-76.800781-17.066407h68.269531v-8.507812c0-4.71875-4.6875-8.558594-10.445312-8.558594h-47.378906c-5.757813 0-10.445313 3.839844-10.445313 8.558594zm0 0"/></svg>