<svg height="512pt" viewBox="-35 0 512 512.00883" width="512pt" xmlns="http://www.w3.org/2000/svg"><path d="m308.96875 132.414062v-88.277343h-17.652344v105.933593h17.652344zm0 0"/><path d="m335.453125 379.578125-229.527344.007813.007813 38.726562c0 13.972656 5.847656 26.597656 15.183594 35.609375 2.226562 2.148437 4.609374 4.0625 7.132812 5.738281.195312.125.398438.230469.59375.363282 11.882812 7.636718 25.933594 7.945312 39.652344 7.9375 34.726562-.027344 69.464844-.046876 104.191406-.074219 8.792969-.007813 17.664062-.015625 26.226562-2.019531 21.425782-5.003907 36.546876-25.785157 36.546876-47.554688v-38.734375zm-61.792969 61.800781c0 4.875-3.957031 8.828125-8.828125 8.828125h-88.277343c-4.871094 0-8.824219-3.953125-8.824219-8.828125v-35.308594c0-4.875 3.953125-8.828124 8.824219-8.828124h88.277343c4.871094 0 8.828125 3.953124 8.828125 8.828124zm0 0"/><path d="m311.230469 480.679688c-2.199219.980468-4.457031 1.773437-6.867188 2.1875-5.5625.964843-11.175781 1.597656-16.808593 2.023437-11.148438.839844-22.335938.847656-33.5.847656-24.921876.007813-49.839844.007813-74.753907.015625-18.421875 0-39.132812.679688-55.710937-8.304687v34.523437h194.207031v-34.523437c-.359375.195312-.75.328125-1.113281.511719-1.816406.960937-3.617188 1.898437-5.453125 2.71875zm0 0"/><path d="m185.382812 414.898438h70.621094v17.652343h-70.621094zm0 0"/><path d="m.00390625 406.070312v96.960938c0 4.90625 3.99218775 8.898438 8.89843775 8.898438l43.449218.050781c-.195312-3.097657-.265624-6.222657-.421874-9.328125-.257813-4.96875-.511719-9.949219-.671876-14.875-.132812-4.191406-.1875-8.394532-.265624-12.597656-.078126-4.976563-.183594-9.976563-.167969-14.925782.007812-7.292968.160156-14.585937.363281-21.886718.027344-.96875.027344-1.949219.0625-2.921876.359375-11.675781.871094-23.355468 1.71875-35v-3.222656l-44.074219-.050781c-4.898437 0-8.89062475 3.988281-8.89062475 8.898437zm0 0"/><path d="m308.96875 297.464844v-41.464844h-17.652344v41.464844l8.824219 13.238281zm0 0"/><path d="m354.855469 300.136719h-28.230469c0 .476562-.132812.9375-.203125 1.414062-.0625.378907-.0625.777344-.175781 1.148438-.246094.828125-.617188 1.613281-1.105469 2.339843l-17.652344 26.480469c-1.632812 2.453125-4.398437 3.929688-7.347656 3.929688-2.945313 0-5.699219-1.476563-7.34375-3.929688l-17.652344-26.480469c-.964843-1.449218-1.484375-3.152343-1.484375-4.890624h-105.929687c0 .476562-.132813.933593-.203125 1.410156-.0625.378906-.0625.777344-.179688 1.148437-.246094.828125-.617187 1.613281-1.101562 2.339844l-17.65625 26.480469c-1.632813 2.457031-4.394532 3.929687-7.34375 3.929687-2.949219 0-5.703125-1.472656-7.34375-3.929687l-17.65625-26.480469c-.960938-1.449219-1.484375-3.152344-1.484375-4.890625h-28.230469c-11.308594 51.3125-17.132812 100.414062-17.925781 150.570312-.039063 3.011719-.160157 6.011719-.167969 9.023438-.011719 2.542969.078125 5.109375.09375 7.660156.054688 7.074219.152344 14.132813.390625 21.179688.105469 3.140625.300781 6.320312.449219 9.472656.210937 4.660156.476562 9.3125.769531 13.945312h35.785156v-48.445312c-10.925781-11.953125-17.65625-27.804688-17.65625-45.230469v-38.746093c0-9.726563 7.910157-17.644532 17.648438-17.644532h229.542969c9.730468 0 17.636718 7.90625 17.636718 17.644532v38.746093c0 17.433594-6.726562 33.277344-17.652344 45.230469v48.4375h35.785157c.292969-4.632812.554687-9.277344.769531-13.929688.148438-3.160156.34375-6.347656.449219-9.5.238281-7.015624.335937-14.0625.386719-21.105468.019531-2.578125.109374-5.183594.097656-7.75 0-2.964844-.121094-5.933594-.15625-8.90625-.777344-50.1875-6.613282-99.328125-17.921875-150.671875zm0 0"/><path d="m273.660156 61.792969v-35.285157c0-14.617187-12.765625-26.507812-28.460937-26.507812h-49.011719c-15.695312 0-28.457031 11.890625-28.457031 26.507812v97.078126h105.929687zm-88.277344-35.285157c0-4.878906 4.847657-8.851562 10.804688-8.851562h49.011719c5.957031 0 10.804687 3.972656 10.804687 8.851562v26.457032h-70.621094zm0 0"/><path d="m150.074219 297.464844v-41.464844h-17.65625v41.464844l8.828125 13.238281zm0 0"/><path d="m150.074219 132.414062v-88.277343h-17.65625v105.933593h17.65625zm0 0"/><path d="m199.855469 203.824219 22.824219-22.828125 22.828124 22.828125-22.828124 22.828125zm0 0"/><path d="m354.6875 141.242188h-28.0625v17.65625c0 4.871093-3.953125 8.824218-8.828125 8.824218h-35.308594c-4.875 0-8.828125-3.953125-8.828125-8.824218v-17.65625h-105.929687v17.65625c0 4.871093-3.957031 8.824218-8.828125 8.824218h-35.3125c-4.871094 0-8.828125-3.953125-8.828125-8.824218v-17.65625h-28.945313c-12.066406 37.074218-17.910156 75.632812-17.390625 114.632812.035157 2.871094.117188 5.75.222657 8.625.140624 3.691406.519531 8.980469.898437 13.796875.179687 2.351563 2.183594 4.1875 4.546875 4.1875h40.660156v-26.484375h-8.828125c-4.871093 0-8.828125-3.953125-8.828125-8.828125 0-4.871094 3.957032-8.828125 8.828125-8.828125h70.621094c4.875 0 8.828125 3.957031 8.828125 8.828125 0 4.875-3.953125 8.828125-8.828125 8.828125h-8.828125v26.484375h105.933594v-26.484375h-8.828125c-4.875 0-8.828125-3.953125-8.828125-8.828125 0-4.871094 3.953125-8.828125 8.828125-8.828125h70.621093c4.871094 0 8.824219 3.957031 8.824219 8.828125 0 4.875-3.953125 8.828125-8.824219 8.828125h-8.828124v26.484375h40.746093c2.394531 0 4.386719-1.777344 4.566407-4.035156.351562-4.644531.625-9.296875.792968-13.957031 1.582032-41.929688-4.191406-83.386719-17.167968-123.25zm-92.441406 68.035156-35.3125 35.308594c-1.71875 1.722656-3.980469 2.585937-6.238282 2.585937-2.261718 0-4.519531-.863281-6.242187-2.585937l-35.308594-35.308594c-3.453125-3.453125-3.453125-9.03125 0-12.484375l35.308594-35.308594c3.441406-3.453125 9.039063-3.453125 12.480469 0l35.3125 35.308594c3.441406 3.453125 3.441406 9.03125 0 12.484375zm0 0"/><path d="m86.699219 123.585938h28.0625v-70.621094h-28.0625c-8.863281 0-16.074219 7.210937-16.074219 16.074218v38.464844c0 8.871094 7.210938 16.082032 16.074219 16.082032zm0 0"/><path d="m370.761719 107.511719v-38.460938c0-8.863281-7.210938-16.078125-16.074219-16.078125h-28.0625v70.621094h28.0625c8.863281-.007812 16.074219-7.21875 16.074219-16.082031zm0 0"/><path d="m432.484375 397.171875-44.066406.050781v3.53125c.855469 11.511719 1.367187 23.121094 1.730469 34.753906.027343.8125.027343 1.625.054687 2.429688.203125 7.46875.359375 14.945312.359375 22.4375.007812 4.785156-.078125 9.605469-.15625 14.417969-.074219 4.351562-.132812 8.683593-.277344 13.035156-.164062 4.902344-.414062 9.835937-.667968 14.769531-.160157 3.125-.230469 6.257813-.425782 9.382813l43.433594-.050781c4.917969 0 8.90625-3.992188 8.90625-8.898438v-96.960938c.007812-4.910156-3.980469-8.898437-8.890625-8.898437zm0 0"/></svg>