<svg height="512" viewBox="0 0 60 60" width="512" xmlns="http://www.w3.org/2000/svg"><g id="Page-1" fill="none" fill-rule="evenodd"><g id="033---Knife" fill="rgb(0,0,0)" fill-rule="nonzero"><path id="Shape" d="m59.5.134c-.3094011-.1786328-.6905989-.1786328-1 0-1.291.745-2.666 1.566-4.207 2.515-9.6763001 5.90942432-18.7544346 12.7466602-27.106 20.415-.9116852-.176075-1.8533533.0827266-2.547.7l-1.49 1.336c-.5946402.5294449-.9525994 1.2748931-.994 2.07 0 .053.007.1.007.158-4.454 4.119-12.309 11.661-17.374 18.1-.008.008-.013.018-.02.026-2.819 3.587-4.769 6.829-4.769 8.936 0 2.872 1.928 4.917 5.157 5.47.57226875.0961003 1.15172579.1429387 1.732.14 3.734 0 7.854-1.878 9.054-5.279 1.681-4.76 7.275-11.944 14.807-16.748.4666114.3414443 1.0226082.5395182 1.6.57h.168c.7384571.0017915 1.4512412-.2708484 2-.765l1.482-1.328c.5971069-.5286502.9573155-1.2746422 1-2.071.0030323-.1379121-.0029806-.2758747-.018-.413 1.968-1.438 4.458-3.261 7.613-5.579 11.369-8.339 15.405-19.965 15.405-27.387-.0000091-.35725651-.1906068-.68737174-.5-.866zm-30.516 23.985c7.5780454-6.8869579 15.7483212-13.0926331 24.416-18.545-1.8400038 7.2746471-6.2252561 13.6494225-12.361 17.969l-7.588 5.563zm-23.484 33.769c-1.311-.223-3.5-.975-3.5-3.498.08427091-.9300983.37757126-1.8291425.858-2.63 1.85096537 1.2366527 3.98940051 1.9754099 6.209 2.145.59264315.0622506 1.1880974.0939592 1.784.095 1.1444646.0083627 2.2851174-.1328321 3.393-.42-.062.16-.132.324-.187.479-1.009 2.858-5.35 4.378-8.557 3.829zm10.113-7.152c-.863.8-3.172 1.505-6.335 1.18-1.93619479-.1242383-3.80136012-.7765101-5.393-1.886.638-.977 1.416-2.043 2.311-3.177.013-.013.021-.029.033-.042 5.1593908-6.1975926 10.7392437-12.0327155 16.7-17.464l6.412 7.158c-5.6158258 3.6187598-10.3164915 8.4898858-13.733 14.231zm19.054-15.776-1.489 1.334c-.4111922.368604-1.0433288.3341319-1.412-.077l-7.359-8.217c-.1773219-.1975134-.2688434-.4574216-.2544004-.7224613.0144431-.2650397.1336656-.5134636.3314004-.6905387l1.49-1.334c.1976416-.1771991.4576267-.2685472.7226695-.2539164s.5133937.1340399.6903305.3319164l7.358 8.214c.1778215.1977415.2695545.4581685.2549174.7237018-.0146372.2655333-.1344389.5142998-.3329174.6912982zm8.741-8.186c-2.974 2.185-5.36 3.933-7.272 5.33l-1.344-1.5 7.429-5.447c10.189-7.467 12.831-16.893 13.514-21.044.763-.467 1.494-.91 2.186-1.321-.596 6.938-4.628 16.734-14.513 23.982z"/><circle id="Oval" cx="11" cy="48" r="1"/><circle id="Oval" cx="23" cy="36" r="1"/></g></g></svg>