<svg height="512" viewBox="0 0 60 60" width="512" xmlns="http://www.w3.org/2000/svg"><g id="Page-1" fill="none" fill-rule="evenodd"><g id="033---Knife" fill-rule="nonzero"><path id="Shape" d="m59 1c0 8.25-4.88 19.16-15 26.58-3.43 2.52-6.08 4.46-8.12 5.95-.0930554-.2367946-.2248544-.4564595-.39-.65l-2.18-2.43 8.32-6.1c10.18-7.46 12.61-16.85 13.19-20.84v-.01c1.43-.88 2.83-1.72 4.18-2.5z" fill="#cfd8dc"/><path id="Shape" d="m54.82 3.5v.01c-.58 3.99-3.01 13.38-13.19 20.84l-8.32 6.1-5.18-5.78c-.1838514-.2114132-.4128127-.3788624-.67-.49 7.67-7.36 18.18-15 27.36-20.68z" fill="#7f8e94"/><path id="Shape" d="m35.33 35.7-1.49 1.34c-.3938506.3555978-.9136257.5387963-1.4434036.508738-.5297778-.0300583-1.0254955-.2708734-1.3765964-.668738l-.15-.17-7.21-8.04c-.3551532-.3959963-.537926-.9171588-.5079003-1.4482382s.270376-1.0283197.6679003-1.3817618l1.49-1.33c.5853596-.5317952 1.4320948-.6617593 2.15-.33.2571873.1111376.4861486.2785868.67.49l5.18 5.78 2.18 2.43c.1651456.1935405.2969446.4132054.39.65.2783017.7677151.0603772 1.627526-.55 2.17z" fill="#825a2c"/><path id="Shape" d="m35.88 33.53c-.0930554-.2367946-.2248544-.4564595-.39-.65l-2.18-2.43-5.18-5.78c-.1838514-.2114132-.4128127-.3788624-.67-.49-.7179052-.3317593-1.5646404-.2017952-2.15.33l-.18.16 5.18 5.78 2.18 2.43c.1651456.1935405.2969446.4132054.39.65.2783017.7677151.0603772 1.627526-.55 2.17l-1.311 1.179c.3511009.3978646.8468186.6386797 1.3765964.668738.5297779.0300583 1.049553-.1531402 1.4434036-.508738l1.49-1.34c.6103145-.5420646.8286081-1.4013728.551-2.169z" fill="#624421"/><path id="Shape" d="m30.87 36.71c-5.9545363 3.6388875-10.9289882 8.6785669-14.49 14.68-1.2 1.21-4.02 1.85-7.21 1.52-2.98-.31-5.47-1.4-6.55-2.71.87943478-1.4063083 1.8376286-2.761802 2.87-4.06h.01c5.64-7.14 14.91-15.84 17.69-18.4.0721462.3459413.2342662.666732.47.93z" fill="#a0522d"/><path id="Shape" d="m23.66 28.67c-.2357338-.263268-.3978538-.5840587-.47-.93-.45.415-1.085 1-1.832 1.708l6.512 7.262c-5.9545363 3.6388875-10.9289882 8.6785669-14.49 14.68-1.1725677.9394474-2.6173852 1.4747209-4.119 1.526 3.152.308 5.931-.328 7.119-1.526 3.5610118-6.0014331 8.5354637-11.0411125 14.49-14.68z" fill="#783e22"/><path id="Shape" d="m16.38 51.39c-.5420478.9601795-1.0036261 1.9636105-1.38 3-2 5.67-14 6.61-14 0 .1851502-1.509155.74177215-2.948813 1.62-4.19 1.08 1.31 3.57 2.4 6.55 2.71 3.19.33 6.01-.31 7.21-1.52z" fill="#cfd8dc"/><g fill="#000"><path id="Shape" d="m59.5.134c-.3094011-.1786328-.6905989-.1786328-1 0-1.291.745-2.666 1.566-4.207 2.515-9.6763001 5.90942432-18.7544346 12.7466602-27.106 20.415-.9116852-.176075-1.8533533.0827266-2.547.7l-1.49 1.336c-.5946402.5294449-.9525994 1.2748931-.994 2.07 0 .053.007.1.007.158-4.454 4.119-12.309 11.661-17.374 18.1-.008.008-.013.018-.02.026-2.819 3.587-4.769 6.829-4.769 8.936 0 2.872 1.928 4.917 5.157 5.47.57226875.0961003 1.15172579.1429387 1.732.14 3.734 0 7.854-1.878 9.054-5.279 1.681-4.76 7.275-11.944 14.807-16.748.4666114.3414443 1.0226082.5395182 1.6.57h.168c.7384571.0017915 1.4512412-.2708484 2-.765l1.482-1.328c.5971069-.5286502.9573155-1.2746422 1-2.071.0030323-.1379121-.0029806-.2758747-.018-.413 1.968-1.438 4.458-3.261 7.613-5.579 11.369-8.339 15.405-19.965 15.405-27.387-.0000091-.35725651-.1906068-.68737174-.5-.866zm-30.516 23.985c7.5780454-6.8869579 15.7483212-13.0926331 24.416-18.545-1.8400038 7.2746471-6.2252561 13.6494225-12.361 17.969l-7.588 5.563zm-23.484 33.769c-1.311-.223-3.5-.975-3.5-3.498.08427091-.9300983.37757126-1.8291425.858-2.63 1.85096537 1.2366527 3.98940051 1.9754099 6.209 2.145.59264315.0622506 1.1880974.0939592 1.784.095 1.1444646.0083627 2.2851174-.1328321 3.393-.42-.062.16-.132.324-.187.479-1.009 2.858-5.35 4.378-8.557 3.829zm10.113-7.152c-.863.8-3.172 1.505-6.335 1.18-1.93619479-.1242383-3.80136012-.7765101-5.393-1.886.638-.977 1.416-2.043 2.311-3.177.013-.013.021-.029.033-.042 5.1593908-6.1975926 10.7392437-12.0327155 16.7-17.464l6.412 7.158c-5.6158258 3.6187598-10.3164915 8.4898858-13.733 14.231zm19.054-15.776-1.489 1.334c-.4111922.368604-1.0433288.3341319-1.412-.077l-7.359-8.217c-.1773219-.1975134-.2688434-.4574216-.2544004-.7224613.0144431-.2650397.1336656-.5134636.3314004-.6905387l1.49-1.334c.1976416-.1771991.4576267-.2685472.7226695-.2539164s.5133937.1340399.6903305.3319164l7.358 8.214c.1778215.1977415.2695545.4581685.2549174.7237018-.0146372.2655333-.1344389.5142998-.3329174.6912982zm8.741-8.186c-2.974 2.185-5.36 3.933-7.272 5.33l-1.344-1.5 7.429-5.447c10.189-7.467 12.831-16.893 13.514-21.044.763-.467 1.494-.91 2.186-1.321-.596 6.938-4.628 16.734-14.513 23.982z"/><circle id="Oval" cx="11" cy="48" r="1"/><circle id="Oval" cx="23" cy="36" r="1"/></g></g></g></svg>