<svg height="512pt" viewBox="0 -47 512 512" width="512pt" xmlns="http://www.w3.org/2000/svg"><path d="m256 384c-1.519531 0-3.039062-.402344-4.386719-1.21875l-40.644531-24.382812h-168.300781c-4.710938 0-8.535157-3.820313-8.535157-8.53125v-341.332032c0-4.710937 3.824219-8.535156 8.535157-8.535156h170.664062c28.230469 0 51.203125 22.964844 51.203125 51.199219v324.265625c0 3.074218-1.65625 5.914062-4.328125 7.425781-1.304687.742187-2.757812 1.109375-4.207031 1.109375zm-204.800781-42.667969h162.132812c1.546875 0 3.066407.417969 4.386719 1.222657l29.746094 17.84375v-309.199219c0-18.824219-15.308594-34.132813-34.132813-34.132813h-162.132812zm0 0"/><path d="m256 418.132812c-1.519531 0-3.039062-.402343-4.386719-1.21875l-40.644531-24.378906h-202.433594c-4.710937 0-8.535156-3.824218-8.535156-8.535156v-341.332031c0-4.710938 3.824219-8.535157 8.535156-8.535157h34.132813c4.710937 0 8.53125 3.824219 8.53125 8.535157v298.664062h162.132812c1.546875 0 3.066407.417969 4.386719 1.222657l38.28125 22.960937 38.28125-22.960937c1.320312-.804688 2.839844-1.222657 4.386719-1.222657h162.132812v-298.664062c0-4.710938 3.820313-8.535157 8.53125-8.535157h34.132813c4.710937 0 8.535156 3.824219 8.535156 8.535157v341.332031c0 4.710938-3.824219 8.535156-8.535156 8.535156h-202.433594l-40.644531 24.378906c-1.347657.816407-2.867188 1.21875-4.386719 1.21875zm-238.933594-42.667968h196.265625c1.546875 0 3.066407.421875 4.386719 1.222656l38.28125 22.960938 38.28125-22.960938c1.320312-.800781 2.839844-1.222656 4.386719-1.222656h196.265625v-324.265625h-17.066406v298.667969c0 4.710937-3.824219 8.53125-8.535157 8.53125h-168.300781l-40.644531 24.382812c-2.695313 1.621094-6.078125 1.621094-8.78125 0l-40.636719-24.382812h-168.300781c-4.710938 0-8.535157-3.820313-8.535157-8.53125v-298.667969h-17.066406zm0 0"/><path d="m256 384c-1.449219 0-2.902344-.367188-4.207031-1.109375-2.671875-1.511719-4.328125-4.351563-4.328125-7.425781v-324.265625c0-28.234375 22.972656-51.199219 51.203125-51.199219h170.664062c4.710938 0 8.535157 3.824219 8.535157 8.535156v341.332032c0 4.710937-3.824219 8.53125-8.535157 8.53125h-168.300781l-40.644531 24.382812c-1.347657.816406-2.867188 1.21875-4.386719 1.21875zm42.667969-366.933594c-18.824219 0-34.132813 15.308594-34.132813 34.132813v309.199219l29.746094-17.84375c1.320312-.804688 2.839844-1.222657 4.386719-1.222657h162.132812v-324.265625zm0 0"/><path d="m221.867188 290.132812h-17.066407c-4.710937 0-8.535156-3.824218-8.535156-8.53125 0-4.710937 3.824219-8.535156 8.535156-8.535156h17.066407c4.710937 0 8.53125 3.824219 8.53125 8.535156 0 4.707032-3.820313 8.53125-8.53125 8.53125zm0 0"/><path d="m170.667969 290.132812h-93.867188c-4.710937 0-8.535156-3.824218-8.535156-8.53125 0-4.710937 3.824219-8.535156 8.535156-8.535156h93.867188c4.710937 0 8.53125 3.824219 8.53125 8.535156 0 4.707032-3.820313 8.53125-8.53125 8.53125zm0 0"/><path d="m93.867188 324.265625h-17.066407c-4.710937 0-8.535156-3.820313-8.535156-8.53125s3.824219-8.535156 8.535156-8.535156h17.066407c4.710937 0 8.53125 3.824219 8.53125 8.535156s-3.820313 8.53125-8.53125 8.53125zm0 0"/><path d="m221.867188 324.265625h-93.867188c-4.710938 0-8.535156-3.820313-8.535156-8.53125s3.824218-8.535156 8.535156-8.535156h93.867188c4.710937 0 8.53125 3.824219 8.53125 8.535156s-3.820313 8.53125-8.53125 8.53125zm0 0"/><path d="m145.066406 187.734375c-42.351562 0-76.800781-34.457031-76.800781-76.800781s34.449219-76.800782 76.800781-76.800782c42.351563 0 76.800782 34.457032 76.800782 76.800782s-34.449219 76.800781-76.800782 76.800781zm0-136.535156c-32.9375 0-59.734375 26.796875-59.734375 59.734375s26.796875 59.734375 59.734375 59.734375 59.734375-26.796875 59.734375-59.734375-26.796875-59.734375-59.734375-59.734375zm0 0"/><path d="m221.867188 256h-145.066407c-4.710937 0-8.535156-3.824219-8.535156-8.535156v-34.132813c0-4.710937 3.824219-8.53125 8.535156-8.53125h145.066407c4.710937 0 8.53125 3.820313 8.53125 8.53125v34.132813c0 4.710937-3.820313 8.535156-8.53125 8.535156zm-136.535157-17.066406h128v-17.066406h-128zm0 0"/><path d="m307.199219 93.867188h-17.066407c-4.710937 0-8.53125-3.824219-8.53125-8.535157 0-4.710937 3.820313-8.53125 8.53125-8.53125h17.066407c4.710937 0 8.535156 3.820313 8.535156 8.53125 0 4.710938-3.824219 8.535157-8.535156 8.535157zm0 0"/><path d="m435.199219 93.867188h-93.867188c-4.710937 0-8.53125-3.824219-8.53125-8.535157 0-4.710937 3.820313-8.53125 8.53125-8.53125h93.867188c4.710937 0 8.535156 3.820313 8.535156 8.53125 0 4.710938-3.824219 8.535157-8.535156 8.535157zm0 0"/><path d="m435.199219 59.734375h-17.066407c-4.710937 0-8.53125-3.824219-8.53125-8.535156 0-4.710938 3.820313-8.53125 8.53125-8.53125h17.066407c4.710937 0 8.535156 3.820312 8.535156 8.53125 0 4.710937-3.824219 8.535156-8.535156 8.535156zm0 0"/><path d="m384 59.734375h-93.867188c-4.710937 0-8.53125-3.824219-8.53125-8.535156 0-4.710938 3.820313-8.53125 8.53125-8.53125h93.867188c4.710938 0 8.535156 3.820312 8.535156 8.53125 0 4.710937-3.824218 8.535156-8.535156 8.535156zm0 0"/><path d="m435.199219 162.132812h-145.066407c-4.710937 0-8.53125-3.824218-8.53125-8.53125v-34.136718c0-4.707032 3.820313-8.53125 8.53125-8.53125h145.066407c4.710937 0 8.535156 3.824218 8.535156 8.53125v34.136718c0 4.707032-3.824219 8.53125-8.535156 8.53125zm-136.53125-17.066406h128v-17.066406h-128zm0 0"/><path d="m145.066406 187.734375c-22.410156 0-34.132812-38.632813-34.132812-76.800781 0-38.167969 11.722656-76.800782 34.132812-76.800782s34.132813 38.632813 34.132813 76.800782c0 38.167968-11.722657 76.800781-34.132813 76.800781zm0-136.535156c-4.949218 0-17.066406 20.933593-17.066406 59.734375 0 38.800781 12.117188 59.734375 17.066406 59.734375 4.949219 0 17.066406-20.933594 17.066406-59.734375 0-38.800782-12.117187-59.734375-17.066406-59.734375zm0 0"/><path d="m213.332031 119.464844h-136.53125c-4.710937 0-8.535156-3.820313-8.535156-8.53125 0-4.710938 3.824219-8.535156 8.535156-8.535156h136.53125c4.710938 0 8.535157 3.824218 8.535157 8.535156 0 4.710937-3.824219 8.53125-8.535157 8.53125zm0 0"/><path d="m324.265625 298.667969c-1.773437 0-3.53125-.09375-5.246094-.273438-14.148437-1.503906-26.410156-9.710937-32.820312-21.964843-6.195313-11.84375-6.085938-25.882813.300781-37.53125l30.292969-55.269532c2.992187-5.46875 11.972656-5.46875 14.964843 0l30.292969 55.269532c6.382813 11.648437 6.496094 25.6875.300781 37.53125-6.410156 12.253906-18.679687 20.460937-32.8125 21.964843-1.738281.179688-3.496093.273438-5.273437.273438zm0-93.175781-22.808594 41.609374c-3.6875 6.730469-3.746093 14.539063-.144531 21.417969 3.8125 7.285157 10.921875 11.988281 19.488281 12.902344 2.261719.238281 4.660157.238281 6.9375 0 8.558594-.90625 15.667969-5.609375 19.484375-12.902344 3.601563-6.878906 3.539063-14.6875-.144531-21.417969zm0 0"/><path d="m324.265625 324.265625c-4.710937 0-8.53125-3.820313-8.53125-8.53125v-51.199219c0-4.710937 3.820313-8.535156 8.53125-8.535156s8.535156 3.824219 8.535156 8.535156v51.199219c0 4.710937-3.824219 8.53125-8.535156 8.53125zm0 0"/><path d="m435.199219 238.933594h-34.132813c-4.710937 0-8.53125-3.824219-8.53125-8.535156v-34.132813c0-4.710937 3.820313-8.53125 8.53125-8.53125h34.132813c4.710937 0 8.535156 3.820313 8.535156 8.53125v34.132813c0 4.710937-3.824219 8.535156-8.535156 8.535156zm-25.597657-17.066406h17.066407v-17.066407h-17.066407zm0 0"/><path d="m435.199219 315.734375h-34.132813c-4.710937 0-8.53125-3.824219-8.53125-8.535156v-34.132813c0-4.710937 3.820313-8.53125 8.53125-8.53125h34.132813c4.710937 0 8.535156 3.820313 8.535156 8.53125v34.132813c0 4.710937-3.824219 8.535156-8.535156 8.535156zm-25.597657-17.066406h17.066407v-17.066407h-17.066407zm0 0"/></svg>