<svg height="512pt" viewBox="0 -47 512.01707 512" width="512pt" xmlns="http://www.w3.org/2000/svg"><path d="m503.464844 34.140625h-25.597656v-25.597656c0-4.710938-3.824219-8.5351565-8.535157-8.5351565h-170.664062c-17.792969 0-33.484375 9.1406255-42.667969 22.9648435-9.183594-13.824218-24.867188-22.9648435-42.667969-22.9648435h-170.664062c-4.710938 0-8.535157 3.8242185-8.535157 8.5351565v25.597656h-25.597656c-4.710937 0-8.535156 3.824219-8.535156 8.535156v341.332031c0 4.710938 3.824219 8.535157 8.535156 8.535157h202.433594l40.644531 24.378906c1.347657.808594 2.867188 1.21875 4.386719 1.21875s3.039062-.398437 4.394531-1.21875l40.652344-24.378906h202.4375c4.710937 0 8.53125-3.824219 8.53125-8.535157v-341.332031c-.015625-4.710937-3.839844-8.535156-8.550781-8.535156zm-281.597656 273.066406c4.710937 0 8.53125 3.824219 8.53125 8.535157 0 4.710937-3.820313 8.53125-8.53125 8.53125h-93.867188c-4.710938 0-8.535156-3.820313-8.535156-8.53125 0-4.710938 3.824218-8.535157 8.535156-8.535157zm-25.601563-25.597656c0-4.710937 3.824219-8.535156 8.535156-8.535156h17.066407c4.710937 0 8.53125 3.824219 8.53125 8.535156s-3.820313 8.53125-8.53125 8.53125h-17.066407c-4.710937 0-8.535156-3.820313-8.535156-8.53125zm89.925781-5.171875c-6.195312-11.84375-6.085937-25.882812.296875-37.53125l30.292969-55.269531c2.996094-5.46875 11.972656-5.46875 14.96875 0l30.292969 55.269531c6.390625 11.648438 6.503906 25.6875.300781 37.53125-5.90625 11.289062-16.8125 19.082031-29.542969 21.417969v17.886719c0 4.710937-3.824219 8.53125-8.535156 8.53125s-8.53125-3.820313-8.53125-8.53125v-17.894532c-12.742187-2.339844-23.636719-10.121094-29.542969-21.410156zm114.875-11.894531h34.132813c4.710937 0 8.535156 3.820312 8.535156 8.53125v34.132812c0 4.710938-3.824219 8.535157-8.535156 8.535157h-34.132813c-4.710937 0-8.53125-3.824219-8.53125-8.535157v-34.132812c0-4.710938 3.820313-8.53125 8.53125-8.53125zm-8.53125-34.132813v-34.136718c0-4.707032 3.820313-8.53125 8.53125-8.53125h34.132813c4.710937 0 8.535156 3.824218 8.535156 8.53125v34.136718c0 4.707032-3.824219 8.53125-8.535156 8.53125h-34.132813c-4.710937 0-8.53125-3.824218-8.53125-8.53125zm25.597656-187.734375h17.066407c4.710937 0 8.535156 3.824219 8.535156 8.53125 0 4.710938-3.824219 8.535157-8.535156 8.535157h-17.066407c-4.710937 0-8.53125-3.824219-8.53125-8.535157 0-4.707031 3.820313-8.53125 8.53125-8.53125zm25.601563 42.667969c0 4.707031-3.824219 8.53125-8.535156 8.53125h-93.867188c-4.710937 0-8.53125-3.824219-8.53125-8.53125 0-4.710938 3.820313-8.535156 8.53125-8.535156h93.867188c4.710937 0 8.535156 3.824218 8.535156 8.535156zm-153.601563-42.667969h93.867188c4.710938 0 8.535156 3.824219 8.535156 8.53125 0 4.710938-3.824218 8.535157-8.535156 8.535157h-93.867188c-4.710937 0-8.53125-3.824219-8.53125-8.535157 0-4.707031 3.820313-8.53125 8.53125-8.53125zm0 34.132813h17.066407c4.710937 0 8.535156 3.824218 8.535156 8.535156 0 4.707031-3.824219 8.53125-8.535156 8.53125h-17.066407c-4.710937 0-8.53125-3.824219-8.53125-8.53125 0-4.710938 3.820313-8.535156 8.53125-8.535156zm-8.53125 42.667968c0-4.710937 3.820313-8.535156 8.53125-8.535156h145.066407c4.710937 0 8.535156 3.824219 8.535156 8.535156v34.132813c0 4.710937-3.824219 8.53125-8.535156 8.53125h-145.066407c-4.710937 0-8.53125-3.820313-8.53125-8.53125zm-136.535156-85.335937c42.351563 0 76.800782 34.457031 76.800782 76.800781s-34.449219 76.800782-76.800782 76.800782c-42.34375 0-76.800781-34.457032-76.800781-76.800782s34.449219-76.800781 76.800781-76.800781zm-76.800781 179.203125c0-4.710938 3.824219-8.535156 8.535156-8.535156h145.066407c4.710937 0 8.53125 3.824218 8.53125 8.535156v34.132812c0 4.710938-3.820313 8.53125-8.53125 8.53125h-145.066407c-4.710937 0-8.535156-3.820312-8.535156-8.53125zm8.535156 59.730469h93.867188c4.710937 0 8.53125 3.824219 8.53125 8.535156s-3.820313 8.53125-8.53125 8.53125h-93.867188c-4.710937 0-8.535156-3.820313-8.535156-8.53125s3.824219-8.535156 8.535156-8.535156zm0 34.132812h17.066407c4.710937 0 8.53125 3.824219 8.53125 8.535157 0 4.710937-3.820313 8.53125-8.53125 8.53125h-17.066407c-4.710937 0-8.535156-3.820313-8.535156-8.53125 0-4.710938 3.824219-8.535157 8.535156-8.535157zm418.132813 68.269531h-196.265625c-1.546875 0-3.066407.417969-4.386719 1.21875l-38.28125 22.964844-38.273438-22.964844c-1.320312-.792968-2.839843-1.21875-4.394531-1.21875h-196.265625v-324.269531h17.066406v298.667969c0 4.710938 3.824219 8.535156 8.535157 8.535156h168.300781l40.644531 24.378906c.027344.015626.070313.023438.09375.042969.035157.015625.050781.050781.085938.066407.410156.230468.851562.367187 1.289062.519531.238281.085937.46875.222656.707031.292969.625.167968 1.265626.230468 1.902344.253906.207032.007812.402344.007812.597656 0 .640626-.023438 1.28125-.09375 1.902344-.253906.25-.070313.472656-.199219.710938-.292969.433594-.160157.878906-.289063 1.289062-.519531.03125-.015626.058594-.050782.082032-.066407.035156-.019531.070312-.027343.105468-.042969l40.644532-24.378906h168.300781c4.710937 0 8.535156-3.824218 8.535156-8.535156v-298.667969h17.066406zm0 0"/><path d="m120.285156 56.652344c-18.105468 8.304687-31.34375 25.363281-34.277344 45.757812h25.128907c.785156-16.898437 3.867187-33.257812 9.148437-45.757812zm0 0"/><path d="m204.117188 102.410156c-2.933594-20.386718-16.171876-37.453125-34.277344-45.757812 5.28125 12.492187 8.363281 28.859375 9.136718 45.757812zm0 0"/><path d="m204.117188 119.476562h-25.140626c-.773437 16.894532-3.855468 33.253907-9.136718 45.753907 18.117187-8.300781 31.34375-25.367188 34.277344-45.753907zm0 0"/><path d="m120.285156 165.230469c-5.28125-12.492188-8.363281-28.859375-9.136718-45.753907h-25.132813c2.9375 20.386719 16.164063 37.453126 34.269531 45.753907zm0 0"/><path d="m145.066406 170.675781c4.574219 0 15.242188-17.894531 16.84375-51.199219h-33.679687c1.59375 33.304688 12.261719 51.199219 16.835937 51.199219zm0 0"/><path d="m145.066406 51.207031c-4.574218 0-15.242187 17.894531-16.84375 51.203125h33.679688c-1.605469-33.308594-12.261719-51.203125-16.835938-51.203125zm0 0"/><path d="m85.332031 221.875h128v17.066406h-128zm0 0"/><path d="m409.601562 204.808594h17.066407v17.066406h-17.066407zm0 0"/><path d="m409.601562 281.609375h17.066407v17.066406h-17.066407zm0 0"/><path d="m315.734375 264.542969c0-4.710938 3.820313-8.535157 8.53125-8.535157s8.535156 3.824219 8.535156 8.535157v15.742187c6.253907-1.917968 11.390625-5.980468 14.421875-11.765625 3.601563-6.878906 3.546875-14.6875-.144531-21.417969l-22.8125-41.609374-22.808594 41.609374c-3.6875 6.730469-3.738281 14.539063-.144531 21.417969 3.019531 5.785157 8.164062 9.835938 14.421875 11.757813zm0 0"/><path d="m298.667969 128.007812h128v17.066407h-128zm0 0"/></svg>