<svg id="Layer_1" enable-background="new 0 0 512 512" height="512" viewBox="0 0 512 512" width="512" xmlns="http://www.w3.org/2000/svg">
	<g>
		<path d="m413.421 222.8h-314.842c-4.078 0-7.981-1.661-10.81-4.6-27.797-28.892-33.655-76.334-11.732-114.301 18.753-32.479 54.891-52.282 91.587-49.173 15.518-33.028 50.508-54.726 88.376-54.726 37.816 0 72.837 21.654 88.376 54.727 36.853-3.12 72.915 16.833 91.587 49.174 21.927 37.973 16.06 85.413-11.732 114.3-2.829 2.938-6.732 4.599-10.81 4.599z" fill="#faf7f5" />
		<path d="m424.23 218.2c27.792-28.887 33.659-76.327 11.732-114.3-18.672-32.341-54.734-52.293-91.587-49.174-15.538-33.072-50.559-54.726-88.375-54.726v222.8h157.421c4.078 0 7.981-1.661 10.809-4.6z" fill="#dce0e3" />
		<path d="m83.908 278.349 65.888-65.888c9.449-9.449 25.607-2.757 25.607 10.607v145.402c0 8.212-6.606 14.975-14.818 15h-32.944c-25.075.076-47.496-14.862-57.083-38.014-9.561-23.097-4.32-49.437 13.35-67.107z" fill="#dce0e3" />
		<path d="m428.093 278.347-65.888-65.888c-9.449-9.449-25.607-2.757-25.607 10.607v145.402c0 8.212 6.606 14.975 14.818 15h32.944c25.075.076 47.496-14.862 57.083-38.014 9.561-23.097 4.32-49.437-13.35-67.107z" fill="#bec8d2" />
		<path d="m441.394 404.117-38.221-38.223c-2.813-2.813-6.628-4.393-10.607-4.393h-273.132c-3.978 0-7.794 1.58-10.607 4.393l-38.22 38.222c-24.847 24.843-38.514 57.888-38.474 93.039.01 8.224 6.776 14.846 15 14.846h417.733c8.223 0 14.99-6.622 15-14.845.043-35.147-13.624-68.195-38.472-93.039z" fill="brown" />
		<path d="m479.867 497.155c.042-35.146-13.625-68.194-38.473-93.038l-38.221-38.223c-2.813-2.813-6.628-4.393-10.607-4.393h-136.566v150.499h208.867c8.223 0 14.99-6.622 15-14.845z" fill="brown" />
		<path d="m350.266 319.2h-188.532c-3.978 0-7.794 1.58-10.607 4.393l-42.3 42.3c-5.858 5.857-5.858 15.355 0 21.213l32.535 32.535c27.771 27.771 72.964 27.778 100.742 0l13.896-13.895 13.896 13.896c27.771 27.771 72.964 27.778 100.742 0l32.535-32.535c5.858-5.857 5.858-15.355 0-21.213l-42.3-42.3c-2.813-2.813-6.628-4.394-10.607-4.394z" fill="#faf7f5" />
		<path d="m370.638 419.642 32.535-32.535c5.858-5.857 5.858-15.355 0-21.213l-42.3-42.3c-2.813-2.813-6.628-4.393-10.606-4.393h-94.267v86.546l13.896 13.896c27.771 27.77 72.963 27.777 100.742-.001z" fill="#dce0e3" />
		<path d="m143.533 287.066h-32.133c-25.989 0-47.134-21.144-47.134-47.133s21.145-47.133 47.134-47.133h32.133c8.284 0 15 6.716 15 15v64.267c0 8.284-6.716 14.999-15 14.999z" fill="#ffc1b6" />
		<path d="m400.6 287.066h-32.133c-8.284 0-15-6.716-15-15v-64.266c0-8.284 6.716-15 15-15h32.133c25.989 0 47.134 21.145 47.134 47.134s-21.145 47.132-47.134 47.132z" fill="#fc9e98" />
		<path d="m256 399.533c-70.285 0-127.467-57.182-127.467-127.467v-64.282c0-56.513 44.538-111.384 112.467-111.384 8.284 0 15 6.716 15 15 0 27.173 22.094 49.267 49.25 49.267h63.217c8.284 0 15 6.716 15 15v96.399c0 70.286-57.182 127.467-127.467 127.467z" fill="#ffe1d0" />
		<path d="m383.467 272.066v-96.399c0-8.284-6.716-15-15-15h-63.217c-27.156 0-49.25-22.094-49.25-49.267 0-.001 0-.002 0-.004v288.136c70.285.001 127.467-57.18 127.467-127.466z" fill="#ffc1b6" />
	</g>
</svg>
