<svg xmlns="http://www.w3.org/2000/svg" height="504pt" viewBox="-60 0 504 504.01229" width="504pt">
	<path d="m304.007812 368.011719h-49.363281c-30.878906 23.519531-62.636719 32-62.636719 32s-31.761718-8.480469-62.640624-32h-49.359376c-35.363281 0-64 28.640625-64 64v56c0 4.402343 3.597657 8 8 8h336c4.398438 0 8-3.597657 8-8v-56c0-35.359375-28.640624-64-64-64zm0 0" fill="#e6e9ed" />
	<path d="m304.007812 368.011719h-32c35.359376 0 64 28.640625 64 64v56c0 4.402343-3.601562 8-8 8h32c4.398438 0 8-3.597657 8-8v-56c0-35.359375-28.640624-64-64-64zm0 0" fill="#ccd1d9" />
	<path d="m280.007812 8.011719 26 104h-228l26-104c48 0 49.359376 16 88 16 38.636719 0 48-16 88-16zm0 0" fill="#965353" />
	<path d="m280.007812 8.011719c-12.839843 0-22.511718 1.65625-31.027343 3.898437l25.027343 100.101563h32zm0 0" fill="#844747" />
	<path d="m72.007812 256.011719h240c0 54.320312-28.242187 89.761719-57.28125 112h-.082031c-30.878906 23.519531-62.636719 32-62.636719 32s-31.761718-8.480469-62.640624-32h-.082032c-29.039062-22.238281-57.277344-57.679688-57.277344-112zm0 0" fill="#ed5565" />
	<path d="m72.007812 192.011719h240v64h-240zm0 0" fill="#eac6bb" />
	<path d="m280.007812 192.011719h32v64h-32zm0 0" fill="#d3b1a9" />
	<path d="m222.726562 368.011719h-.082031c-17.148437 13.066406-34.535156 21.472656-46.636719 26.375 1.03125.425781 2.007813.800781 2.957032 1.167969.210937.082031.449218.167968.65625.25.832031.328124 1.617187.617187 2.386718.894531.300782.113281.613282.226562.910157.335937.679687.242188 1.320312.472656 1.929687.6875.300782.105469.605469.210938.886719.304688.558594.191406 1.105469.375 1.589844.535156.273437.089844.53125.167969.785156.25.425781.144531.839844.273438 1.199219.390625.234375.074219.457031.144531.65625.199219.289062.089844.59375.179687.816406.242187.242188.070313.441406.136719.601562.175781.085938.023438.222657.0625.296876.078126.191406.074218.328124.113281.328124.113281s31.757813-8.480469 62.636719-32h.082031c29.039063-22.238281 57.28125-57.679688 57.28125-112h-32c0 54.320312-28.242187 89.761719-57.28125 112zm0 0" fill="#da4453" />
	<path d="m306.007812 112.011719 6 24h-40v-24zm0 0" fill="#da4453" />
	<path d="m232.007812 112.011719h40v24h-40zm0 0" fill="#ed5565" />
	<path d="m192.007812 112.011719h40v24h-40zm0 0" fill="#da4453" />
	<path d="m152.007812 112.011719h40v24h-40zm0 0" fill="#ed5565" />
	<path d="m112.007812 112.011719h40v24h-40zm0 0" fill="#da4453" />
	<path d="m78.007812 112.011719h34v24h-40zm0 0" fill="#ed5565" />
	<path d="m40.007812 136.011719h304c0-8.800781 7.199219-16 16-16 8.796876 0 16 7.199219 16 16 0 30.960937-25.042968 56-56 56h-256c-30.960937 0-56-25.039063-56-56 0-8.800781 7.199219-16 16-16 8.796876 0 16 7.199219 16 16zm0 0" fill="#965353" />
	<path d="m360.007812 120.011719c-8.800781 0-16 7.199219-16 16 0 30.960937-25.042968 56-56 56h32c30.957032 0 56-25.039063 56-56 0-8.800781-7.203124-16-16-16zm0 0" fill="#844747" />
	<path d="m16.007812 440.035156c-4.425781 0-8-3.574218-8-8 0-39.710937 32.300782-72.015625 72.015626-72.015625 4.421874 0 8 3.578125 8 8 0 4.425781-3.578126 8-8 8-30.890626 0-56.015626 25.128907-56.015626 56.015625 0 4.425782-3.578124 8-8 8zm0 0" style="&#10;    fill: rgb(204, 209, 217);&#10;" />
	<path d="m368.007812 440.027344c-4.425781 0-8-3.574219-8-8 0-30.871094-25.128906-56-56-56-4.425781 0-8-3.574219-8-8 0-4.421875 3.574219-8 8-8 39.703126 0 72 32.296875 72 72 0 4.425781-3.578124 8-8 8zm0 0" style="&#10;    fill: rgb(204, 209, 217);&#10;" />
	<path d="m16.015625 496.011719c-4.417969 0-8-3.574219-8-8l-.007813-55.976563c0-4.414062 3.574219-8 8-8 4.414063 0 8 3.578125 8 8l.007813 55.976563c0 4.417969-3.578125 8-8 8zm0 0" style="&#10;    fill: rgb(204, 209, 217);&#10;" />
	<path d="m368.007812 496.011719c-4.425781 0-8-3.574219-8-8v-55.984375c0-4.421875 3.574219-8 8-8 4.421876 0 8 3.578125 8 8v55.984375c0 4.425781-3.578124 8-8 8zm0 0" style="&#10;    fill: rgb(204, 209, 217);&#10;" />
	<path d="m192.246094 432.035156c-4.425782 0-8.039063-3.574218-8.039063-8 0-4.421875 3.535157-8 7.949219-8h.089844c4.417968 0 8 3.578125 8 8 0 4.425782-3.582032 8-8 8zm0 0" />
	<path d="m192.246094 472.042969c-4.425782 0-8.039063-3.574219-8.039063-8 0-4.421875 3.535157-8 7.949219-8h.089844c4.417968 0 8 3.578125 8 8 0 4.425781-3.582032 8-8 8zm0 0" />
	<path d="m96.007812 504.011719c-4.425781 0-8-3.574219-8-8v-127.984375c0-4.421875 3.574219-8 8-8 4.421876 0 8 3.578125 8 8v127.984375c0 4.425781-3.578124 8-8 8zm0 0" />
	<path d="m288.007812 504.011719c-4.425781 0-8-3.574219-8-8v-127.992188c0-4.421875 3.574219-8 8-8 4.421876 0 8 3.578125 8 8v127.992188c0 4.425781-3.578124 8-8 8zm0 0" />
</svg>
