<svg height="512pt" viewBox="-1 0 512 512.001" width="512pt" xmlns="http://www.w3.org/2000/svg"><path d="m500.042969 501.960938c-.1875-2.074219-.453125-4.140626-.722657-6.203126-2.050781-15.542968-9.097656-57.214843-28.726562-91.476562 0 0 0-.003906-.003906-.003906-3.683594-6.429688-7.804688-12.601563-12.425782-18.285156-30.679687-37.753907-74.144531-50.40625-99.839843-54.652344-.011719 0-.023438-.003906-.039063-.003906-2.449218-.40625-4.738281-.734376-6.839844-1-3.417968-.4375-6.847656-.773438-10.285156-.976563 2.726563 11.402344 1.832032 23.320313-2.328125 34.261719-8.414062 22.167968-31.808593 47.382812-83.75 72.609375-81.445312-39.558594-92.710937-79.082031-86.074219-106.871094-16.308593.945313-77.421874 7.777344-117.125 56.632813-35.527343 43.714843-41.882812 116.007812-41.882812 116.007812h490.046875s0-.015625-.003906-.039062zm0 0" fill="#e8e7e9"/><path d="m349.324219 134.035156c-24.335938 2.738282-55.421875 4.730469-94.304688 4.730469-39.34375 0-70.507812-2.070313-94.292969-4.730469l7.570313-65.371094c1.214844-8.613281 7.371094-14.300781 14.003906-14.300781 2.089844 0 4.222657.558594 6.261719 1.773438 6.804688 4.054687 15.03125.925781 18.699219-7.09375l4.390625-9.621094c4.125-9.042969 10.109375-16.375 17.199218-21.453125 7.082032-5.089844 15.269532-7.929688 23.816407-7.96875 17.082031-.089844 32.890625 10.984375 41.335937 28.972656l4.5 9.574219c3.746094 7.984375 12.003906 11.015625 18.765625 6.890625l.867188-.527344c8.207031-5 18.136719.617188 20.257812 11.453125zm0 0" fill="#dca98b"/><path d="m255.074219 178.609375c-85.3125 0-136.378907-9.375-162.585938-16.359375-11.953125-3.183594-18.089843-16.429688-12.851562-27.632812 4.085937-8.746094 13.851562-13.289063 23.175781-10.792969 5.648438 1.515625 12.90625 3.222656 21.929688 4.925781 24.238281 4.570312 66.527343 10.019531 130.332031 10.019531 82.609375 0 130.023437-9.023437 152.21875-14.933593 9.269531-2.472657 18.972656 2.046874 23.074219 10.71875v.003906c5.308593 11.214844-.820313 24.527344-12.8125 27.71875-26.238282 6.984375-77.28125 16.332031-162.480469 16.332031zm0 0" fill="#dca98b"/><path d="m349.996094 175.472656v43.914063c0 52.449219-42.523438 94.972656-94.972656 94.972656-52.453126 0-94.972657-42.523437-94.972657-94.972656v-43.914063c0-.488281 0-.976562.019531-1.464844 25.339844 2.71875 56.714844 4.601563 95 4.601563 38.230469 0 69.585938-1.882813 94.902344-4.59375.023438.480469.023438.96875.023438 1.457031zm0 0" fill="#ffd4be"/><path d="m388.886719 211.316406c0 8.050782-3.269531 15.332032-8.535157 20.597656-5.269531 5.28125-12.5625 8.539063-20.597656 8.539063h-12.105468c1.546874-6.773437 2.351562-13.824219 2.351562-21.066406v-25.976563c0-3.796875 0-11.226562 0-11.226562h9.753906c16.085938 0 29.132813 13.046875 29.132813 29.132812zm0 0" fill="#ffd4be"/><path d="m162.398438 240.453125h-12.101563c-8.046875 0-15.328125-3.257813-20.597656-8.539063-5.28125-5.265624-8.539063-12.546874-8.539063-20.597656 0-16.085937 13.050782-29.132812 29.136719-29.132812h9.753906s-.003906 7.429687-.003906 11.226562v25.976563c0 7.242187.808594 14.292969 2.351563 21.066406zm0 0" fill="#ffd4be"/><path d="m192.617188 290.980469s-.019532.039062-.050782.121093c-1.960937 4.890626-2.886718 9.917969-2.886718 14.859376 0 17.441406 11.542968 33.695312 29.523437 38.585937 11.792969 2.648437 23.792969 3.976563 35.804687 3.976563 12.011719 0 24.023438-1.328126 35.816407-3.976563 23.070312-6.273437 35.550781-31.265625 26.636719-53.445313-.03125-.082031-.050782-.121093-.050782-.121093" fill="#ffd4be"/><path d="m255.078125 436.230469c-149.511719-72.617188-62.511719-145.128907-62.511719-145.128907-1.960937 4.886719-2.886718 9.917969-2.886718 14.859376 0 17.441406 11.542968 33.695312 29.523437 38.585937 11.792969 2.648437 23.792969 3.972656 35.804687 3.972656 12.011719 0 24.023438-1.324219 35.816407-3.972656 23.070312-6.273437 35.550781-31.265625 26.636719-53.445313h.128906c-.015625.054688 86.972656 72.613282-62.511719 145.128907zm0 0" fill="#f5737f"/><g fill="#dca98b"><path d="m170.519531 502h-160.519531s6.355469-72.292969 41.882812-116.007812c39.703126-48.855469 100.816407-55.6875 117.125-56.632813-2.410156 10.078125-2.460937 21.691406 2.339844 34.300781 0 0 .007813.03125.03125.089844 0 .011719 0 .019531.007813.03125.996093 3.1875 21.214843 69.53125-.867188 138.21875zm0 0"/><path d="m170.519531 502h-51.195312c12.101562-29.363281 14.222656-59.902344 13.289062-83.238281-.96875-24.082031 14.738281-45.675781 37.90625-52.339844l1.734375.339844c3.875 14.03125 18.046875 73.691406-1.734375 135.238281zm0 0"/><path d="m500.046875 502h-160.398437c-22.082032-68.6875-2.050782-135.097656-.867188-138.21875 2.589844-6.839844 3.648438-13.46875 3.894531-17.882812.308594-5.550782-.222656-11.132813-1.515625-16.539063 16.484375.984375 77.402344 7.898437 117.003906 56.632813 35.527344 43.714843 41.882813 116.007812 41.882813 116.007812zm0 0"/><path d="m389.210938 502h-49.5625c-19.953126-62.054688-5.371094-122.191406-1.644532-135.578125h.011719c23.167969 6.664063 38.875 28.253906 37.90625 52.339844-.9375 23.335937 1.183594 53.875 13.289063 83.238281zm0 0"/></g><path d="m170.519531 502h-51.195312c12.101562-29.363281 14.222656-59.902344 13.289062-83.238281-.96875-24.082031 14.738281-45.675781 37.90625-52.339844l1.734375.339844c3.875 14.03125 18.046875 73.691406-1.734375 135.238281zm0 0" fill="#8690a6"/><path d="m389.210938 502h-49.5625c-19.953126-62.054688-5.371094-122.191406-1.644532-135.578125h.011719c23.167969 6.664063 38.875 28.253906 37.90625 52.339844-.9375 23.335937 1.183594 53.875 13.289063 83.238281zm0 0" fill="#8690a6"/><path d="m246.632812 250.453125h22.300782c5.523437 0 10-4.476563 10-10s-4.476563-10-10-10h-8.089844l5.636719-15.710937c1.867187-5.195313-.835938-10.921876-6.035157-12.789063-5.195312-1.863281-10.921874.835937-12.789062 6.035156l-10.4375 29.085938c-1.097656 3.0625-.636719 6.46875 1.234375 9.132812 1.875 2.660157 4.925781 4.246094 8.179687 4.246094zm0 0"/><path d="m510.007812 501.125c-.203124-2.324219-5.296874-57.410156-30.738281-101.816406-2.746093-4.792969-8.859375-6.453125-13.648437-3.707032-4.792969 2.746094-6.453125 8.855469-3.707032 13.648438 16.839844 29.394531 24.046876 65.140625 26.753907 82.75h-55.851563v-25.058594c0-5.523437-4.476562-10-10-10-5.523437 0-10 4.476563-10 10v25.058594h-16.746094c-9.648437-26.785156-10.910156-54.082031-10.15625-72.835938 1.015626-25.28125-13.230468-48.15625-35.546874-58.726562 1.757812-6.457031 2.582031-13.152344 2.359374-19.84375 12.039063 1.707031 29.511719 5.480469 47.808594 13.828125 5.023438 2.289063 10.953125.074219 13.246094-4.949219 2.292969-5.023437.078125-10.957031-4.945312-13.25-24.046876-10.964844-46.855469-14.867187-60-16.253906-4.371094-12.570312-11.5625-22.476562-17.214844-28.890625 10.722656-11.445313 18.917968-25.285156 23.679687-40.625h4.449219c10.464844 0 20.292969-4.074219 27.671875-11.464844 7.390625-7.394531 11.464844-17.21875 11.464844-27.667969 0-12.953124-6.332031-24.453124-16.058594-31.578124 15.328125-2.496094 27.648437-5.230469 37.300781-7.800782 8.574219-2.28125 15.636719-8.210937 19.375-16.269531 3.738282-8.058594 3.714844-17.285156-.0625-25.324219-.011718-.023437-.019531-.042968-.03125-.066406-6.171875-13.042969-20.761718-19.816406-34.691406-16.105469-9.59375 2.554688-24.949219 5.921875-47.054688 8.777344l-9.394531-58.179687c-.019531-.109376-.039062-.21875-.058593-.328126-1.738282-8.882812-7.269532-16.164062-14.796876-19.480468-6.695312-2.953125-14.160156-2.441406-20.480468 1.410156l-.867188.527344c-.789062.480468-1.339844.410156-1.726562.292968-1.039063-.3125-2.074219-1.394531-2.785156-2.902343l-4.5-9.566407c-10.066407-21.441406-29.277344-34.726562-50.171876-34.726562-.085937 0-.175781 0-.261718 0-10.472656.0507812-20.707032 3.453125-29.589844 9.839844-8.628906 6.179687-15.710938 14.972656-20.476562 25.429687l-4.390626 9.617188c-.691406 1.511719-1.722656 2.605469-2.765624 2.929687-.382813.121094-.929688.199219-1.722657-.273437-3.496093-2.078125-7.429687-3.179688-11.378906-3.179688-11.980469 0-22.03125 9.632813-23.90625 22.90625-.011719.082031-.019531.164063-.03125.246094l-6.414063 55.382813c-10.003906-1.296876-18.433593-2.671876-25.351562-3.976563-7.710938-1.453125-14.839844-3.054687-21.191406-4.753906-14.035156-3.757813-28.679688 3.0625-34.828125 16.214843-3.757813 8.042969-3.761719 17.269532-.007813 25.316407 3.746094 8.027343 10.796875 13.9375 19.34375 16.214843 9.65625 2.574219 21.984375 5.3125 37.324219 7.8125-9.734375 7.125-16.074219 18.628907-16.074219 31.59375 0 10.460938 4.074219 20.289063 11.457032 27.660157 7.386718 7.398437 17.214843 11.472656 27.679687 11.472656h4.445313c4.773437 15.363281 12.984374 29.222656 23.734374 40.683594-5.535156 6.300781-12.742187 16.207031-17.136718 28.816406-24.335938 2.515625-79.519532 13.34375-117.21875 59.730469-37.035156 45.570312-43.8125 118.363281-44.0820315 121.441406-.2460935 2.792969.6914065 5.5625 2.5859375 7.628906 1.894531 2.070313 4.570312 3.246094 7.375 3.246094h490.046875c2.804687 0 5.480469-1.175781 7.375-3.246094 1.894531-2.066406 2.832031-4.835937 2.585937-7.628906zm-339.515624-273.050781c0-.011719 0-.023438 0-.035157-.289063-2.84375-.4375-5.730468-.4375-8.652343v-34.332031c15.082031 1.371093 31.976562 2.433593 50.832031 3.023437 17.714843.558594 35.449219.679687 53.167969.367187 4.90625-.085937 9.808593-.199218 14.710937-.351562 19.015625-.585938 36.042969-1.652344 51.230469-3.03125v34.320312c0 2.921876-.148438 5.808594-.4375 8.65625 0 .011719 0 .023438-.003906.035157-4.363282 42.789062-40.609376 76.28125-84.527344 76.28125-43.921875 0-80.167969-33.492188-84.535156-76.28125zm139.597656 81.609375c-.546875 4.390625-2.066406 8.636718-4.445313 12.371094-8.886719 13.945312-26.378906 15.253906-41.402343 16.15625-15.378907.925781-37.203126 1.625-50.683594-7.003907-7.726563-4.945312-12.917969-13.25-13.753906-22.585937 16.050781 9.96875 34.972656 15.734375 55.21875 15.734375 20.234374 0 39.140624-5.757813 55.1875-15.714844-.03125.347656-.074219.695313-.121094 1.042969zm-127.867188 11.980468c4.113282 12.363282 13.152344 22.921876 24.773438 28.824219 3.152344 1.597657 6.554687 3.035157 10.015625 3.816407 12.453125 2.796874 25.238281 4.21875 38 4.21875s25.550781-1.421876 38.007812-4.21875c.144531-.03125.289063-.066407.433594-.105469 13.765625-3.746094 25.304687-13.21875 31.65625-25.992188 1.078125-2.167969 2.003906-4.429687 2.753906-6.730469 3.558594 7.785157 5.863281 17.164063 4.460938 27.542969-3.539063 26.234375-30.21875 52.480469-77.242188 76.0625-42.761719-21.464843-68.683593-45.113281-75.71875-68.949219-3.363281-11.535156-2.078125-23.585937 2.859375-34.46875zm7.191406 83.804688c15.136719 13.988281 35.582032 27.269531 61.296876 39.757812 1.378906.671876 2.875 1.003907 4.367187 1.003907s2.988281-.332031 4.367187-1c25.710938-12.476563 46.15625-25.746094 61.289063-39.730469-2.421875 23.757812-2.457031 54.390625 5.65625 86.5h-142.613281c8.109375-32.121094 8.058594-62.789062 5.636718-86.53125zm183.859376-180.617188c-3.605469 3.613282-8.40625 5.601563-13.523438 5.601563h-.328125c.382813-3.664063.578125-7.359375.578125-11.066406v-27.203125c10.4375.136718 18.886719 8.667968 18.886719 19.132812 0 5.109375-1.992188 9.914063-5.613281 13.535156zm-195.0625-154.894531c.574218-3.8125 2.769531-5.59375 4.089843-5.59375.226563 0 .597657.039063 1.144531.363281 5.519532 3.289063 11.878907 4.0625 17.910157 2.183594 6.472656-2.019531 11.9375-7.015625 15-13.710937l4.394531-9.625c3.324219-7.285157 8.136719-13.328125 13.9375-17.484375 5.503906-3.953125 11.738281-6.058594 18.035156-6.085938h.148438c13.066406 0 25.347656 8.886719 32.082031 23.230469l4.496094 9.558594c3.125 6.660156 8.636719 11.597656 15.121093 13.550781 6.054688 1.824219 12.414063.984375 17.90625-2.363281l.863282-.527344c.726562-.441406 1.308594-.496094 2.007812-.1875 1.121094.492187 2.617188 2.066406 3.207032 4.886719l9.207031 57.023437c-13.480469 1.285157-28.859375 2.335938-46.285157 2.960938-14.277343.515625-28.574218.707031-42.859374.613281-14.136719-.09375-28.269532-.441406-42.386719-1.144531-7.324219-.367188-14.640625-.835938-21.949219-1.394531-4.339844-.335938-8.488281-.699219-12.460938-1.078126zm-89.519532 77.285157c-1.242187-2.667969-1.242187-5.726563.003906-8.394532 1.660157-3.546875 5.191407-5.703125 8.957032-5.703125.851562 0 1.714844.109375 2.574218.339844 6.835938 1.832031 14.460938 3.542969 22.664063 5.089844 36.417969 6.867187 73.691406 9.230469 110.691406 9.980469 38.734375.785156 78.714844.890624 117.15625-4.628907 20.546875-2.292969 41.058594-5.617187 59.128907-10.429687 4.585937-1.21875 9.394531 1.007812 11.445312 5.304687.007812.011719.011719.023438.019531.035157 1.261719 2.671874 1.273438 5.738281.03125 8.417968-.726562 1.5625-2.515625 4.332032-6.375 5.359375-14.769531 3.929688-36.101562 8.265625-65.519531 11.429688-22.992188 1.179687-45.8125 3.726562-68.875 4.269531-13.367188.3125-26.742188.378906-40.113281.199219-3.75-.050781-7.503907-.117188-11.253907-.207031-22.980468-.546876-45.722656-3.078126-68.628906-4.269532-29.429687-3.171875-50.765625-7.511718-65.535156-11.449218-3.851562-1.027344-5.644531-3.789063-6.371094-5.34375zm61.605469 83.210937c-5.113281 0-9.917969-1.988281-13.535156-5.613281-3.609375-3.605469-5.601563-8.40625-5.601563-13.523438 0-10.464844 8.449219-18.996094 18.886719-19.132812v27.203125c0 3.707031.191406 7.402343.578125 11.066406zm-90.652344 161.847656c30.351563-37.351562 74.09375-48.449219 97.792969-51.738281-.21875 6.464844.546875 12.957031 2.175781 19.214844-23.144531 10.253906-38.03125 33.566406-36.996093 59.386718.753906 18.753907-.503907 46.050782-10.15625 72.835938h-18.605469v-25.058594c0-5.523437-4.476563-10-10-10-5.523438 0-10 4.476563-10 10v25.058594h-52.484375c3.242187-21.179688 12.992187-68.597656 38.273437-99.699219zm82.960938 26.058594c-.664063-16.488281 8.253906-31.480469 22.421875-38.996094 4.464844 20.742188 11.109375 65.898438-1.945313 112.636719h-29.519531c6.980469-22.242188 10.09375-47.398438 9.042969-73.640625zm204.480469 73.640625c-.398438-1.421875-.777344-2.84375-1.140626-4.261719-.007812-.035156-.015624-.066406-.023437-.097656-11.328125-44.523437-5.316406-86.894531-.957031-107.46875 13.316406 7.75 21.605468 22.269531 20.964844 38.1875-1.050782 26.242187 2.058593 51.398437 9.042968 73.640625zm0 0"/><path d="m438.84375 360.578125c-3.792969 1.582031-6.296875 5.433594-6.164062 9.546875.132812 4.117188 2.882812 7.828125 6.78125 9.152344 3.988281 1.359375 8.535156-.007813 11.113281-3.34375 2.484375-3.214844 2.765625-7.710938.703125-11.210938-2.5-4.242187-7.886719-6.003906-12.433594-4.144531zm0 0"/></svg>