<svg xmlns="http://www.w3.org/2000/svg" xmlns:xlink="http://www.w3.org/1999/xlink" version="1.1" id="Capa_1" x="0px" y="0px" viewBox="0 0 512 512" style="enable-background:new 0 0 512 512;" xml:space="preserve">
	<path style="fill:#F94646;" d="M136.843,268.77c-3.989,2.116-7.803,4.781-11.16,8.138c-18.246,18.246-16.077,49.996-16.077,49.996  s30.068,2.054,48.498-14.651" />
	<path style="fill:#CF5530;" d="M353.895,312.254c18.43,16.705,48.498,14.651,48.498,14.651s2.169-31.751-16.077-49.996  c-3.357-3.357-7.171-6.023-11.16-8.138" />
	<path style="fill:#69803A;" d="M185.645,374.737c-39.875,0.164-69.896,0.416-71.413,0.754  c-29.771,6.583-52.036,33.135-52.036,64.889V502h387.605v-61.62c0-32.901-23.913-60.222-55.31-65.535  c-1.157-0.195-29.542-0.305-67.843-0.332" />
	<polyline style="fill:#EDC183;" points="203.391,347.377 184.552,373.91 255.994,428.017 327.447,373.91 308.609,347.377 " />
	<path style="fill:#CF5530;" d="M197.332,218.736h-64.234v9.379c0,95.379,45.697,98.077,122.902,154.083  c11.409-8.276,22.13-15.389,32.117-21.808" />
	<path style="fill:#F94646;" d="M197.332,218.736v9.379c0,81.284,33.189,95.256,90.785,132.275  c57.595-37.02,90.785-50.991,90.785-132.275v-9.379H197.332z" />
	<polyline style="fill:#EDC183;" points="141.064,174.685 141.064,218.736 370.936,218.736 370.936,174.508 " />
	<path style="fill:#AF5042;" d="M452.728,129.674c-8.112,22.296-74.514,57.391-196.731,57.391  c-123.921,0-188.639-35.136-196.731-57.391c-3.897-10.717-2.913-19.906,2.769-25.865c6.666-6.964,17.917-8.04,33.464-3.169  c34.664,10.83,42.464,15.466,51.807,17.435V72.633c0-21.291,8.143-39.31,22.911-50.715c14.84-11.445,34.449-14.768,55.196-9.343  c6.153,1.928,22.881,6.676,30.47,6.676c7.599,0,24.327-4.748,30.131-6.584c20.952-5.579,40.52-2.338,55.381,9.076  c14.881,11.435,23.075,29.506,23.075,50.889v45.483c9.251-1.938,17.051-6.553,52.033-17.476c15.527-4.861,26.798-3.795,33.454,3.169  C455.641,109.768,456.636,118.957,452.728,129.674z" />
</svg>
