<svg height="504pt" viewBox="-60 0 504 504.01229" width="504pt" xmlns="http://www.w3.org/2000/svg"><path d="m304.007812 368.011719h-49.363281c-30.878906 23.519531-62.636719 32-62.636719 32s-31.761718-8.480469-62.640624-32h-49.359376c-35.363281 0-64 28.640625-64 64v56c0 4.402343 3.597657 8 8 8h336c4.398438 0 8-3.597657 8-8v-56c0-35.359375-28.640624-64-64-64zm0 0" fill="#e6e9ed"/><path d="m304.007812 368.011719h-32c35.359376 0 64 28.640625 64 64v56c0 4.402343-3.601562 8-8 8h32c4.398438 0 8-3.597657 8-8v-56c0-35.359375-28.640624-64-64-64zm0 0" fill="#ccd1d9"/><path d="m280.007812 8.011719 26 104h-228l26-104c48 0 49.359376 16 88 16 38.636719 0 48-16 88-16zm0 0" fill="#965353"/><path d="m280.007812 8.011719c-12.839843 0-22.511718 1.65625-31.027343 3.898437l25.027343 100.101563h32zm0 0" fill="#844747"/><path d="m72.007812 256.011719h240c0 54.320312-28.242187 89.761719-57.28125 112h-.082031c-30.878906 23.519531-62.636719 32-62.636719 32s-31.761718-8.480469-62.640624-32h-.082032c-29.039062-22.238281-57.277344-57.679688-57.277344-112zm0 0" fill="#ed5565"/><path d="m72.007812 192.011719h240v64h-240zm0 0" fill="#eac6bb"/><path d="m280.007812 192.011719h32v64h-32zm0 0" fill="#d3b1a9"/><path d="m222.726562 368.011719h-.082031c-17.148437 13.066406-34.535156 21.472656-46.636719 26.375 1.03125.425781 2.007813.800781 2.957032 1.167969.210937.082031.449218.167968.65625.25.832031.328124 1.617187.617187 2.386718.894531.300782.113281.613282.226562.910157.335937.679687.242188 1.320312.472656 1.929687.6875.300782.105469.605469.210938.886719.304688.558594.191406 1.105469.375 1.589844.535156.273437.089844.53125.167969.785156.25.425781.144531.839844.273438 1.199219.390625.234375.074219.457031.144531.65625.199219.289062.089844.59375.179687.816406.242187.242188.070313.441406.136719.601562.175781.085938.023438.222657.0625.296876.078126.191406.074218.328124.113281.328124.113281s31.757813-8.480469 62.636719-32h.082031c29.039063-22.238281 57.28125-57.679688 57.28125-112h-32c0 54.320312-28.242187 89.761719-57.28125 112zm0 0" fill="#da4453"/><path d="m306.007812 112.011719 6 24h-40v-24zm0 0" fill="#da4453"/><path d="m232.007812 112.011719h40v24h-40zm0 0" fill="#ed5565"/><path d="m192.007812 112.011719h40v24h-40zm0 0" fill="#da4453"/><path d="m152.007812 112.011719h40v24h-40zm0 0" fill="#ed5565"/><path d="m112.007812 112.011719h40v24h-40zm0 0" fill="#da4453"/><path d="m78.007812 112.011719h34v24h-40zm0 0" fill="#ed5565"/><path d="m40.007812 136.011719h304c0-8.800781 7.199219-16 16-16 8.796876 0 16 7.199219 16 16 0 30.960937-25.042968 56-56 56h-256c-30.960937 0-56-25.039063-56-56 0-8.800781 7.199219-16 16-16 8.796876 0 16 7.199219 16 16zm0 0" fill="#965353"/><path d="m360.007812 120.011719c-8.800781 0-16 7.199219-16 16 0 30.960937-25.042968 56-56 56h32c30.957032 0 56-25.039063 56-56 0-8.800781-7.203124-16-16-16zm0 0" fill="#844747"/><path d="m16.007812 440.035156c-4.425781 0-8-3.574218-8-8 0-39.710937 32.300782-72.015625 72.015626-72.015625 4.421874 0 8 3.578125 8 8 0 4.425781-3.578126 8-8 8-30.890626 0-56.015626 25.128907-56.015626 56.015625 0 4.425782-3.578124 8-8 8zm0 0"/><path d="m368.007812 440.027344c-4.425781 0-8-3.574219-8-8 0-30.871094-25.128906-56-56-56-4.425781 0-8-3.574219-8-8 0-4.421875 3.574219-8 8-8 39.703126 0 72 32.296875 72 72 0 4.425781-3.578124 8-8 8zm0 0"/><path d="m129.359375 376.027344-49.335937-.007813c-4.425782 0-8-3.582031-8-8 0-4.421875 3.582031-8 8-8l49.335937.007813c4.421875 0 8 3.585937 8 8 0 4.425781-3.585937 8-8 8zm0 0"/><path d="m304.007812 376.027344h-49.355468c-4.421875 0-8-3.574219-8-8 0-4.421875 3.578125-8 8-8h49.355468c4.421876 0 8 3.578125 8 8 0 4.425781-3.578124 8-8 8zm0 0"/><path d="m16.015625 496.011719c-4.417969 0-8-3.574219-8-8l-.007813-55.976563c0-4.414062 3.574219-8 8-8 4.414063 0 8 3.578125 8 8l.007813 55.976563c0 4.417969-3.578125 8-8 8zm0 0"/><path d="m24.015625 504.011719c-8.824219 0-16-7.175781-16-16 0-4.421875 3.574219-8 8-8 4.421875 0 8 3.578125 8 8v.015625c4.421875 0 8 3.570312 8 7.992187 0 4.417969-3.578125 7.992188-8 7.992188zm0 0"/><path d="m360.007812 504.011719c-4.425781 0-8-3.574219-8-8 0-4.421875 3.574219-8 8-8h.015626c0-4.421875 3.566406-8 7.992187-8 4.414063 0 7.992187 3.578125 7.992187 8 0 8.824219-7.175781 16-16 16zm0 0"/><path d="m368.007812 496.011719c-4.425781 0-8-3.574219-8-8v-55.984375c0-4.421875 3.574219-8 8-8 4.421876 0 8 3.578125 8 8v55.984375c0 4.425781-3.578124 8-8 8zm0 0"/><path d="m360.007812 504.011719h-335.992187c-4.425781 0-8-3.574219-8-8 0-4.421875 3.574219-8 8-8h335.992187c4.421876 0 8 3.578125 8 8 0 4.425781-3.578124 8-8 8zm0 0"/><path d="m72.007812 264.019531c-4.425781 0-8-3.574219-8-8v-64.007812c0-4.421875 3.574219-8 8-8 4.421876 0 8 3.578125 8 8v64.007812c0 4.425781-3.578124 8-8 8zm0 0"/><path d="m312.007812 264.019531c-4.425781 0-8-3.574219-8-8v-64.007812c0-4.421875 3.574219-8 8-8 4.421876 0 8 3.578125 8 8v64.007812c0 4.425781-3.578124 8-8 8zm0 0"/><path d="m192.246094 432.035156c-4.425782 0-8.039063-3.574218-8.039063-8 0-4.421875 3.535157-8 7.949219-8h.089844c4.417968 0 8 3.578125 8 8 0 4.425782-3.582032 8-8 8zm0 0"/><path d="m192.246094 472.042969c-4.425782 0-8.039063-3.574219-8.039063-8 0-4.421875 3.535157-8 7.949219-8h.089844c4.417968 0 8 3.578125 8 8 0 4.425781-3.582032 8-8 8zm0 0"/><path d="m96.007812 504.011719c-4.425781 0-8-3.574219-8-8v-127.984375c0-4.421875 3.574219-8 8-8 4.421876 0 8 3.578125 8 8v127.984375c0 4.425781-3.578124 8-8 8zm0 0"/><path d="m288.007812 504.011719c-4.425781 0-8-3.574219-8-8v-127.992188c0-4.421875 3.574219-8 8-8 4.421876 0 8 3.578125 8 8v127.992188c0 4.425781-3.578124 8-8 8zm0 0"/><path d="m40.007812 144.011719c-4.425781 0-8-3.574219-8-8 0-4.414063-3.585937-8-8-8-4.417968 0-8 3.585937-8 8 0 4.425781-3.578124 8-8 8-4.425781 0-7.9999995-3.574219-7.9999995-8 0-13.230469 10.7656255-24 23.9999995-24 13.230469 0 24 10.769531 24 24 0 4.425781-3.578124 8-8 8zm0 0"/><path d="m64.007812 200.011719c-35.289062 0-63.9999995-28.710938-63.9999995-64 0-4.421875 3.5742185-8 7.9999995-8 4.421876 0 8 3.578125 8 8 0 26.472656 21.527344 48 48 48 4.421876 0 8 3.578125 8 8 0 4.425781-3.578124 8-8 8zm0 0"/><path d="m376.007812 144.011719c-4.425781 0-8-3.574219-8-8 0-4.414063-3.585937-8-8-8-4.417968 0-8 3.585937-8 8 0 4.425781-3.578124 8-8 8-4.425781 0-8-3.574219-8-8 0-13.230469 10.765626-24 24-24 13.230469 0 24 10.769531 24 24 0 4.425781-3.578124 8-8 8zm0 0"/><path d="m320.007812 200.011719c-4.425781 0-8-3.574219-8-8 0-4.421875 3.574219-8 8-8 26.46875 0 48-21.527344 48-48 0-4.421875 3.574219-8 8-8 4.421876 0 8 3.578125 8 8 0 35.289062-28.714843 64-64 64zm0 0"/><path d="m320.007812 200.011719h-256c-4.425781 0-8-3.574219-8-8 0-4.421875 3.574219-8 8-8h256c4.421876 0 8 3.578125 8 8 0 4.425781-3.578124 8-8 8zm0 0"/><path d="m40.007812 152.011719c-4.425781 0-8-3.574219-8-8v-8c0-4.421875 3.574219-8 8-8 4.421876 0 8 3.578125 8 8v8c0 4.425781-3.578124 8-8 8zm0 0"/><path d="m344.007812 152.011719c-4.425781 0-8-3.574219-8-8v-8c0-4.421875 3.574219-8 8-8 4.421876 0 8 3.578125 8 8v8c0 4.425781-3.578124 8-8 8zm0 0"/><path d="m344.007812 144.011719h-304c-4.425781 0-8-3.574219-8-8 0-4.421875 3.574219-8 8-8h304c4.421876 0 8 3.578125 8 8 0 4.425781-3.578124 8-8 8zm0 0"/><path d="m72.015625 144.011719c-.640625 0-1.296875-.078125-1.945313-.238281-4.289062-1.074219-6.894531-5.417969-5.824218-9.695313l32-128c1.0625-4.296875 5.417968-6.929687 9.695312-5.824219 4.289063 1.070313 6.898438 5.414063 5.824219 9.695313l-32 128c-.910156 3.640625-4.167969 6.0625-7.75 6.0625zm0 0"/><path d="m312 144.011719c-3.585938 0-6.84375-2.421875-7.753906-6.0625l-32-128c-1.078125-4.28125 1.527344-8.625 5.824218-9.695313 4.253907-1.105468 8.625 1.519532 9.695313 5.824219l32 128c1.082031 4.277344-1.527344 8.621094-5.824219 9.695313-.648437.160156-1.304687.238281-1.941406.238281zm0 0"/><path d="m192.007812 32.011719c-19.691406 0-30.738281-3.976563-41.417968-7.832031-11.152344-4.007813-22.6875-8.167969-46.582032-8.167969-4.425781 0-8-3.574219-8-8 0-4.421875 3.574219-8.0000002 8-8.0000002 26.695313 0 40.140626 4.8398432 52.007813 9.1210932 10.246094 3.695313 19.09375 6.878907 35.992187 6.878907 17.886719 0 28.964844-3.640625 40.695313-7.503907 12.710937-4.175781 25.847656-8.4960932 47.304687-8.4960932 4.421876 0 8 3.5781252 8 8.0000002 0 4.425781-3.578124 8-8 8-18.890624 0-30.265624 3.746093-42.304687 7.703125-12.417969 4.082031-25.242187 8.296875-45.695313 8.296875zm0 0"/><path d="m192.015625 408.011719c-.691406 0-1.378906-.085938-2.074219-.269531-1.253906-.339844-125.933594-34.929688-125.933594-151.722657 0-4.421875 3.574219-8 8-8 4.421876 0 8 3.578125 8 8 0 104.632813 112.917969 135.960938 114.0625 136.265625 4.265626 1.136719 6.808594 5.511719 5.664063 9.792969-.953125 3.574219-4.191406 5.933594-7.71875 5.933594zm0 0"/><path d="m192 408.011719c-3.53125 0-6.761719-2.359375-7.722656-5.925781-1.144532-4.265626 1.394531-8.648438 5.65625-9.800782 4.65625-1.25 114.074218-31.871094 114.074218-136.265625 0-4.421875 3.574219-8 8-8 4.421876 0 8 3.578125 8 8 0 116.792969-124.683593 151.382813-125.9375 151.722657-.695312.183593-1.382812.269531-2.070312.269531zm0 0"/><path d="m312.007812 264.019531h-240c-4.425781 0-8-3.574219-8-8 0-4.421875 3.574219-8 8-8h240c4.421876 0 8 3.578125 8 8 0 4.425781-3.578124 8-8 8zm0 0"/><path d="m96.246094 288.011719c-4.425782 0-8.039063-3.574219-8.039063-8 0-4.421875 3.535157-8 7.949219-8h.089844c4.417968 0 8 3.578125 8 8 0 4.425781-3.582032 8-8 8zm0 0"/><path d="m128.246094 320.011719c-4.425782 0-8.039063-3.574219-8.039063-8 0-4.421875 3.535157-8 7.949219-8h.089844c4.417968 0 8 3.578125 8 8 0 4.425781-3.582032 8-8 8zm0 0"/><path d="m160.246094 352.011719c-4.425782 0-8.039063-3.574219-8.039063-8 0-4.421875 3.535157-8 7.949219-8h.089844c4.417968 0 8 3.578125 8 8 0 4.425781-3.582032 8-8 8zm0 0"/><path d="m192.246094 384.011719c-4.425782 0-8.039063-3.574219-8.039063-8 0-4.421875 3.535157-8 7.949219-8h.089844c4.417968 0 8 3.578125 8 8 0 4.425781-3.582032 8-8 8zm0 0"/><path d="m160.246094 288.011719c-4.425782 0-8.039063-3.574219-8.039063-8 0-4.421875 3.535157-8 7.949219-8h.089844c4.417968 0 8 3.578125 8 8 0 4.425781-3.582032 8-8 8zm0 0"/><path d="m192.246094 320.011719c-4.425782 0-8.039063-3.574219-8.039063-8 0-4.421875 3.535157-8 7.949219-8h.089844c4.417968 0 8 3.578125 8 8 0 4.425781-3.582032 8-8 8zm0 0"/><path d="m224.246094 352.011719c-4.425782 0-8.039063-3.574219-8.039063-8 0-4.421875 3.535157-8 7.949219-8h.089844c4.417968 0 8 3.578125 8 8 0 4.425781-3.582032 8-8 8zm0 0"/><path d="m224.246094 288.011719c-4.425782 0-8.039063-3.574219-8.039063-8 0-4.421875 3.535157-8 7.949219-8h.089844c4.417968 0 8 3.578125 8 8 0 4.425781-3.582032 8-8 8zm0 0"/><path d="m256.246094 320.011719c-4.425782 0-8.039063-3.574219-8.039063-8 0-4.421875 3.535157-8 7.949219-8h.089844c4.417968 0 8 3.578125 8 8 0 4.425781-3.582032 8-8 8zm0 0"/><path d="m288.246094 288.011719c-4.425782 0-8.039063-3.574219-8.039063-8 0-4.421875 3.535157-8 7.949219-8h.089844c4.417968 0 8 3.578125 8 8 0 4.425781-3.582032 8-8 8zm0 0"/><path d="m306.007812 120.011719h-228c-4.425781 0-8-3.574219-8-8 0-4.421875 3.574219-8 8-8h228c4.421876 0 8 3.578125 8 8 0 4.425781-3.578124 8-8 8zm0 0"/><path d="m112.007812 144.011719c-4.425781 0-8-3.574219-8-8v-24c0-4.421875 3.574219-8 8-8 4.421876 0 8 3.578125 8 8v24c0 4.425781-3.578124 8-8 8zm0 0"/><path d="m152.007812 144.011719c-4.425781 0-8-3.574219-8-8v-24c0-4.421875 3.574219-8 8-8 4.421876 0 8 3.578125 8 8v24c0 4.425781-3.578124 8-8 8zm0 0"/><path d="m192.007812 144.011719c-4.425781 0-8-3.574219-8-8v-24c0-4.421875 3.574219-8 8-8 4.421876 0 8 3.578125 8 8v24c0 4.425781-3.578124 8-8 8zm0 0"/><path d="m232.007812 144.011719c-4.425781 0-8-3.574219-8-8v-24c0-4.421875 3.574219-8 8-8 4.421876 0 8 3.578125 8 8v24c0 4.425781-3.578124 8-8 8zm0 0"/><path d="m272.007812 144.011719c-4.425781 0-8-3.574219-8-8v-24c0-4.421875 3.574219-8 8-8 4.421876 0 8 3.578125 8 8v24c0 4.425781-3.578124 8-8 8zm0 0"/></svg>