<?xml version="1.0" encoding="iso-8859-1"?>
<!-- Generator: Adobe Illustrator 19.0.0, SVG Export Plug-In . SVG Version: 6.00 Build 0)  -->
<svg version="1.1" id="Layer_1" xmlns="http://www.w3.org/2000/svg" xmlns:xlink="http://www.w3.org/1999/xlink" x="0px" y="0px"
	 viewBox="0 0 393.051 393.051" style="enable-background:new 0 0 393.051 393.051;" xml:space="preserve">
<path style="fill:#C19D7B;" d="M262.012,219.604H131.038c-59.992,0-108.735,48.485-108.735,108.477v64.97h348.444v-64.97
	C370.747,268.024,322.004,219.604,262.012,219.604z"/>
<g>
	<circle style="fill:#EEB490;" cx="196.525" cy="209.648" r="48.485"/>
	<path style="fill:#EEB490;" d="M98.521,118.626c-0.194,1.228-0.259,2.521-0.259,3.749c0,15.774,12.8,28.574,28.574,28.574
		s28.574-12.8,28.574-28.574c0-1.293-0.065-2.521-0.259-3.749H98.521z"/>
	<path style="fill:#EEB490;" d="M237.899,118.626c-0.194,1.228-0.259,2.521-0.259,3.749c0,15.774,12.8,28.574,28.574,28.574
		c15.774,0,28.574-12.8,28.574-28.574c0-1.293-0.065-2.521-0.259-3.749H237.899z"/>
</g>
<path style="fill:#FACCB4;" d="M123.41,118.238v34.327c0,40.339,32.776,73.115,73.115,73.115s73.115-32.776,73.115-73.115v-34.327
	H123.41z"/>
<path style="fill:#C19D7B;" d="M279.337,99.297V83.071C279.596,37.236,242.36,0,196.525,0s-83.071,37.236-83.071,83.071v16.226
	h-55.79v23.079h277.463V99.297C335.127,99.297,279.337,99.297,279.337,99.297z"/>
<path style="fill:#8A6753;" d="M303.709,318.125v-90.44c-10.731-4.461-22.562-7.305-34.844-8.145v98.521h-144.42v-98.457
	c-12.283,0.776-24.113,3.426-34.844,8.145v90.376H66.78v74.925h259.362v-74.925H303.709z"/>
<path style="fill:#C19D7B;" d="M245.01,369.455h-96.97c-2.909,0-5.236-2.327-5.236-5.236s2.327-5.236,5.236-5.236h96.97
	c2.909,0,5.236,2.327,5.236,5.236S248.113,369.455,245.01,369.455z"/>
<g>
</g>
<g>
</g>
<g>
</g>
<g>
</g>
<g>
</g>
<g>
</g>
<g>
</g>
<g>
</g>
<g>
</g>
<g>
</g>
<g>
</g>
<g>
</g>
<g>
</g>
<g>
</g>
<g>
</g>
</svg>
