<?xml version="1.0" encoding="iso-8859-1"?>
<!-- Generator: Adobe Illustrator 19.0.0, SVG Export Plug-In . SVG Version: 6.00 Build 0)  -->
<svg version="1.1" id="Capa_1" xmlns="http://www.w3.org/2000/svg" xmlns:xlink="http://www.w3.org/1999/xlink" x="0px" y="0px"
	 viewBox="0 0 512 512" style="enable-background:new 0 0 512 512;" xml:space="preserve">
<path style="fill:#F94646;" d="M136.843,268.77c-3.989,2.116-7.803,4.781-11.16,8.138c-18.246,18.246-16.077,49.996-16.077,49.996
	s30.068,2.054,48.498-14.651"/>
<path style="fill:#CF5530;" d="M353.895,312.254c18.43,16.705,48.498,14.651,48.498,14.651s2.169-31.751-16.077-49.996
	c-3.357-3.357-7.171-6.023-11.16-8.138"/>
<path style="fill:#69803A;" d="M185.645,374.737c-39.875,0.164-69.896,0.416-71.413,0.754
	c-29.771,6.583-52.036,33.135-52.036,64.889V502h387.605v-61.62c0-32.901-23.913-60.222-55.31-65.535
	c-1.157-0.195-29.542-0.305-67.843-0.332"/>
<polyline style="fill:#EDC183;" points="203.391,347.377 184.552,373.91 255.994,428.017 327.447,373.91 308.609,347.377 "/>
<path d="M108.729,476.25c-0.649,0-1.31-0.07-1.949-0.2c-0.641-0.13-1.271-0.32-1.87-0.57c-0.61-0.25-1.19-0.56-1.73-0.92
	c-0.55-0.359-1.06-0.779-1.52-1.24c-1.86-1.859-2.931-4.439-2.931-7.069c0-2.641,1.07-5.21,2.931-7.07
	c0.46-0.46,0.97-0.88,1.52-1.25c0.54-0.36,1.12-0.67,1.73-0.92c0.6-0.24,1.229-0.44,1.87-0.57c1.289-0.25,2.609-0.26,3.909,0
	c0.63,0.13,1.261,0.33,1.87,0.57c0.601,0.25,1.181,0.56,1.721,0.92c0.55,0.37,1.06,0.79,1.52,1.25c1.86,1.86,2.93,4.43,2.93,7.07
	c0,2.63-1.069,5.21-2.93,7.069c-0.46,0.461-0.97,0.881-1.52,1.24c-0.54,0.36-1.12,0.67-1.721,0.92c-0.609,0.25-1.24,0.44-1.87,0.57
	C110.04,476.18,109.38,476.25,108.729,476.25z"/>
<path style="fill:#CF5530;" d="M197.332,218.736h-64.234v9.379c0,95.379,45.697,98.077,122.902,154.083
	c11.409-8.276,22.13-15.389,32.117-21.808"/>
<path style="fill:#F94646;" d="M197.332,218.736v9.379c0,81.284,33.189,95.256,90.785,132.275
	c57.595-37.02,90.785-50.991,90.785-132.275v-9.379H197.332z"/>
<polyline style="fill:#EDC183;" points="141.064,174.685 141.064,218.736 370.936,218.736 370.936,174.508 "/>
<path style="fill:#AF5042;" d="M452.728,129.674c-8.112,22.296-74.514,57.391-196.731,57.391
	c-123.921,0-188.639-35.136-196.731-57.391c-3.897-10.717-2.913-19.906,2.769-25.865c6.666-6.964,17.917-8.04,33.464-3.169
	c34.664,10.83,42.464,15.466,51.807,17.435V72.633c0-21.291,8.143-39.31,22.911-50.715c14.84-11.445,34.449-14.768,55.196-9.343
	c6.153,1.928,22.881,6.676,30.47,6.676c7.599,0,24.327-4.748,30.131-6.584c20.952-5.579,40.52-2.338,55.381,9.076
	c14.881,11.435,23.075,29.506,23.075,50.889v45.483c9.251-1.938,17.051-6.553,52.033-17.476c15.527-4.861,26.798-3.795,33.454,3.169
	C455.641,109.768,456.636,118.957,452.728,129.674z"/>
<path d="M400.467,176.165c33.507-11.777,55.979-27.474,61.656-43.065c5.199-14.263,3.404-27.454-4.936-36.201
	c-9.508-9.945-24.199-11.897-43.663-5.805c-19.079,5.958-30.357,10.13-37.82,12.891c-0.422,0.155-0.833,0.308-1.232,0.455V72.633
	c0-24.56-9.582-45.448-26.983-58.819c-17.371-13.342-40.112-17.182-64.046-10.81c-0.148,0.039-0.296,0.082-0.442,0.129
	c-7.803,2.468-21.816,6.119-27.116,6.119c-4.774,0-17.722-3.162-27.48-6.22c-0.151-0.047-0.305-0.092-0.459-0.132
	c-23.811-6.227-46.48-2.284-63.839,11.103c-17.281,13.345-26.799,34.167-26.799,58.63v31.758c-0.416-0.154-0.843-0.313-1.283-0.476
	c-7.423-2.754-18.642-6.915-37.534-12.818c-19.465-6.096-34.159-4.146-43.691,5.812c-8.321,8.727-10.118,21.915-4.931,36.183
	c6.564,18.052,35.081,36.764,81.195,49.251v26.602c-4.547,0.94-7.965,4.967-7.965,9.792v9.379c0,13.474,0.92,25.27,2.684,35.719
	c-2.604,1.828-5.002,3.834-7.171,6.003c-21.218,21.218-19.084,56.268-18.982,57.749c0.341,4.985,4.31,8.954,9.295,9.295
	c0.263,0.019,1.644,0.104,3.855,0.104c8.218-0.001,27.901-1.188,44.272-11.46c9.186,8.895,19.996,16.648,32.128,24.592
	l-10.401,14.649c-63.664,0.283-65.15,0.614-66.707,0.96c-16.729,3.699-31.923,13.098-42.783,26.464
	c-11.022,13.565-17.093,30.679-17.093,48.189V502c0,5.522,4.478,10,10,10h387.605c5.522,0,10-4.478,10-10v-61.62
	c0-37.446-26.766-69.154-63.645-75.395c-1.143-0.193-2.433-0.411-63.114-0.467l-10.225-14.402
	c12.132-7.944,22.942-15.697,32.128-24.592c16.373,10.273,36.055,11.46,44.272,11.46c2.211,0,3.593-0.086,3.855-0.104
	c4.985-0.341,8.954-4.31,9.295-9.295c0.102-1.481,2.235-36.531-18.982-57.749c-2.169-2.169-4.567-4.175-7.171-6.002
	c1.764-10.449,2.684-22.245,2.684-35.719v-9.379c0-4.825-3.418-8.852-7.965-9.792v-26.715
	C388.328,180.208,394.829,178.147,400.467,176.165z M68.665,126.257c-1.466-4.031-3.336-11.411,0.595-15.533
	c2.168-2.264,5.525-3.098,9.293-3.098c4.513,0,9.614,1.195,13.965,2.559c18.401,5.749,28.892,9.641,36.551,12.481
	c6.707,2.488,11.138,4.132,16.177,5.194c2.947,0.622,6.021-0.12,8.362-2.019c2.341-1.899,3.7-4.753,3.7-7.767V72.633
	c0-18.127,6.756-33.327,19.019-42.796c12.29-9.479,28.74-12.188,46.341-7.644c3.256,1.013,23.125,7.059,33.218,7.059
	c10.263,0,30.376-6.184,32.912-6.977c17.714-4.665,34.225-2.037,46.508,7.398c12.36,9.498,19.168,24.755,19.168,42.959v45.483
	c0,3.012,1.357,5.863,3.695,7.763c2.339,1.898,5.405,2.642,8.355,2.024c4.995-1.046,9.421-2.684,16.12-5.161
	c7.27-2.689,18.257-6.754,36.85-12.56c6.532-2.044,18.238-4.694,23.229,0.526c3.95,4.144,2.078,11.515,0.61,15.539
	c0,0.003-0.001,0.005-0.002,0.007c-1.969,5.411-14.848,18.863-49.495,31.042c-6.937,2.438-15.268,5.002-25.066,7.447
	c-0.173,0.038-0.344,0.081-0.513,0.127c-26.409,6.544-63.37,12.194-112.26,12.194c-46.417,0-83.062-4.834-111.184-11.653
	c-0.86-0.348-1.78-0.581-2.74-0.677C94.033,152.629,71.762,134.775,68.665,126.257z M131.271,285.568
	c3.275,9.336,7.48,17.379,12.521,24.555c-8.043,4.285-17.202,5.924-23.91,6.527C120.688,307.812,123.282,294.711,131.271,285.568z
	 M146.708,267.116c-0.052-0.313-0.12-0.625-0.203-0.935c-2.238-10.49-3.374-22.749-3.405-37.444h44.233
	c0.168,79.823,32.822,100.469,82.185,131.678c0.051,0.032,0.103,0.065,0.154,0.098c-4.809,3.213-9.3,6.297-13.673,9.388
	c-14.604-10.315-28.023-18.801-40.028-26.391c-2.457-1.554-4.853-3.068-7.186-4.552c-0.022-0.014-0.043-0.028-0.065-0.041
	C175.264,317.631,154.569,302.544,146.708,267.116z M305.946,360.901l7.733,10.891l-57.686,43.681l-57.674-43.68l7.733-10.892
	c13.155,8.318,28.013,17.74,44.075,29.392c1.752,1.271,3.812,1.905,5.872,1.905c2.061,0,4.121-0.636,5.872-1.905
	c9.577-6.947,19.326-13.568,31.605-21.461c0.016-0.01,0.031-0.02,0.047-0.03C297.801,366.054,301.943,363.432,305.946,360.901z
	 M439.802,440.38v15.868h-288.1c-5.522,0-10,4.478-10,10s4.478,10,10,10h288.1V492H72.197v-51.62
	c0-26.073,18.296-49.1,43.607-54.991c2.223-0.117,13.172-0.408,66.5-0.637l67.652,51.237c1.785,1.353,3.911,2.028,6.037,2.028
	c2.126,0,4.252-0.676,6.037-2.027l67.975-51.473c41.956,0.034,60.09,0.162,63.314,0.276
	C420.285,389.598,439.802,412.895,439.802,440.38z M392.964,384.73c-0.053-0.009-0.098-0.017-0.135-0.023L392.964,384.73z
	 M303.284,338.913c-0.024,0.015-0.048,0.031-0.073,0.046c-2.332,1.484-4.726,2.997-7.182,4.55c-2.58,1.631-5.218,3.299-7.912,5.014
	c-2.694-1.715-5.332-3.382-7.912-5.014c-48.374-30.584-72.728-45.98-72.872-114.772H368.9c-0.031,14.697-1.167,26.956-3.406,37.448
	c-0.083,0.308-0.15,0.617-0.202,0.927C357.433,302.542,336.739,317.629,303.284,338.913z M392.139,316.631
	c-6.715-0.612-15.892-2.256-23.925-6.517c5.038-7.174,9.241-15.214,12.514-24.547C388.762,294.746,391.347,307.809,392.139,316.631z
	 M360.936,208.736H151.063V187.12c29.533,6.181,64.795,9.946,104.935,9.946c43.679,0,78.4-4.393,104.938-10.008V208.736z"/>
<path d="M330.418,139.498c-4.802,0-9.039-3.469-9.853-8.361c-0.092-0.557-0.137-1.109-0.137-1.655
	c0.001-4.801,3.47-9.036,8.361-9.85l0.502-0.083c5.451-0.909,10.599,2.776,11.504,8.225c0.093,0.556,0.138,1.108,0.138,1.654
	c-0.002,4.801-3.47,9.037-8.362,9.85l-0.501,0.084C331.515,139.453,330.963,139.498,330.418,139.498z"/>
<path d="M259.883,144.999c-28.421,0-55.55-2.352-80.633-6.99c-5.431-1.004-9.02-6.221-8.015-11.651
	c1.004-5.431,6.217-9.026,11.651-8.015c23.887,4.417,49.792,6.656,76.996,6.656c8.384,0,16.589-0.332,24.524-0.652l4.271-0.168
	c0.961-0.036,1.829-0.068,2.378-0.092c5.536-0.249,10.18,4.054,10.412,9.57c0.232,5.519-4.053,10.18-9.57,10.412
	c-0.569,0.023-1.469,0.058-2.464,0.096l-4.22,0.165C277.081,144.659,268.671,144.999,259.883,144.999z"/>
<g>
</g>
<g>
</g>
<g>
</g>
<g>
</g>
<g>
</g>
<g>
</g>
<g>
</g>
<g>
</g>
<g>
</g>
<g>
</g>
<g>
</g>
<g>
</g>
<g>
</g>
<g>
</g>
<g>
</g>
</svg>
