<svg xmlns="http://www.w3.org/2000/svg" height="512pt" viewBox="-1 0 512 512.001" width="512pt">
	<path d="m500.042969 501.960938c-.1875-2.074219-.453125-4.140626-.722657-6.203126-2.050781-15.542968-9.097656-57.214843-28.726562-91.476562 0 0 0-.003906-.003906-.003906-3.683594-6.429688-7.804688-12.601563-12.425782-18.285156-30.679687-37.753907-74.144531-50.40625-99.839843-54.652344-.011719 0-.023438-.003906-.039063-.003906-2.449218-.40625-4.738281-.734376-6.839844-1-3.417968-.4375-6.847656-.773438-10.285156-.976563 2.726563 11.402344 1.832032 23.320313-2.328125 34.261719-8.414062 22.167968-31.808593 47.382812-83.75 72.609375-81.445312-39.558594-92.710937-79.082031-86.074219-106.871094-16.308593.945313-77.421874 7.777344-117.125 56.632813-35.527343 43.714843-41.882812 116.007812-41.882812 116.007812h490.046875s0-.015625-.003906-.039062zm0 0" fill="#e8e7e9" />
	<path d="m349.324219 134.035156c-24.335938 2.738282-55.421875 4.730469-94.304688 4.730469-39.34375 0-70.507812-2.070313-94.292969-4.730469l7.570313-65.371094c1.214844-8.613281 7.371094-14.300781 14.003906-14.300781 2.089844 0 4.222657.558594 6.261719 1.773438 6.804688 4.054687 15.03125.925781 18.699219-7.09375l4.390625-9.621094c4.125-9.042969 10.109375-16.375 17.199218-21.453125 7.082032-5.089844 15.269532-7.929688 23.816407-7.96875 17.082031-.089844 32.890625 10.984375 41.335937 28.972656l4.5 9.574219c3.746094 7.984375 12.003906 11.015625 18.765625 6.890625l.867188-.527344c8.207031-5 18.136719.617188 20.257812 11.453125zm0 0" fill="#dca98b" />
	<path d="m255.074219 178.609375c-85.3125 0-136.378907-9.375-162.585938-16.359375-11.953125-3.183594-18.089843-16.429688-12.851562-27.632812 4.085937-8.746094 13.851562-13.289063 23.175781-10.792969 5.648438 1.515625 12.90625 3.222656 21.929688 4.925781 24.238281 4.570312 66.527343 10.019531 130.332031 10.019531 82.609375 0 130.023437-9.023437 152.21875-14.933593 9.269531-2.472657 18.972656 2.046874 23.074219 10.71875v.003906c5.308593 11.214844-.820313 24.527344-12.8125 27.71875-26.238282 6.984375-77.28125 16.332031-162.480469 16.332031zm0 0" fill="#dca98b" />
	<path d="m349.996094 175.472656v43.914063c0 52.449219-42.523438 94.972656-94.972656 94.972656-52.453126 0-94.972657-42.523437-94.972657-94.972656v-43.914063c0-.488281 0-.976562.019531-1.464844 25.339844 2.71875 56.714844 4.601563 95 4.601563 38.230469 0 69.585938-1.882813 94.902344-4.59375.023438.480469.023438.96875.023438 1.457031zm0 0" fill="#ffd4be" />
	<path d="m388.886719 211.316406c0 8.050782-3.269531 15.332032-8.535157 20.597656-5.269531 5.28125-12.5625 8.539063-20.597656 8.539063h-12.105468c1.546874-6.773437 2.351562-13.824219 2.351562-21.066406v-25.976563c0-3.796875 0-11.226562 0-11.226562h9.753906c16.085938 0 29.132813 13.046875 29.132813 29.132812zm0 0" fill="#ffd4be" />
	<path d="m162.398438 240.453125h-12.101563c-8.046875 0-15.328125-3.257813-20.597656-8.539063-5.28125-5.265624-8.539063-12.546874-8.539063-20.597656 0-16.085937 13.050782-29.132812 29.136719-29.132812h9.753906s-.003906 7.429687-.003906 11.226562v25.976563c0 7.242187.808594 14.292969 2.351563 21.066406zm0 0" fill="#ffd4be" />
	<path d="m192.617188 290.980469s-.019532.039062-.050782.121093c-1.960937 4.890626-2.886718 9.917969-2.886718 14.859376 0 17.441406 11.542968 33.695312 29.523437 38.585937 11.792969 2.648437 23.792969 3.976563 35.804687 3.976563 12.011719 0 24.023438-1.328126 35.816407-3.976563 23.070312-6.273437 35.550781-31.265625 26.636719-53.445313-.03125-.082031-.050782-.121093-.050782-.121093" fill="#ffd4be" />
	<path d="m255.078125 436.230469c-149.511719-72.617188-62.511719-145.128907-62.511719-145.128907-1.960937 4.886719-2.886718 9.917969-2.886718 14.859376 0 17.441406 11.542968 33.695312 29.523437 38.585937 11.792969 2.648437 23.792969 3.972656 35.804687 3.972656 12.011719 0 24.023438-1.324219 35.816407-3.972656 23.070312-6.273437 35.550781-31.265625 26.636719-53.445313h.128906c-.015625.054688 86.972656 72.613282-62.511719 145.128907zm0 0" fill="#f5737f" />
	<g fill="#dca98b">
		<path d="m170.519531 502h-160.519531s6.355469-72.292969 41.882812-116.007812c39.703126-48.855469 100.816407-55.6875 117.125-56.632813-2.410156 10.078125-2.460937 21.691406 2.339844 34.300781 0 0 .007813.03125.03125.089844 0 .011719 0 .019531.007813.03125.996093 3.1875 21.214843 69.53125-.867188 138.21875zm0 0" />
		<path d="m170.519531 502h-51.195312c12.101562-29.363281 14.222656-59.902344 13.289062-83.238281-.96875-24.082031 14.738281-45.675781 37.90625-52.339844l1.734375.339844c3.875 14.03125 18.046875 73.691406-1.734375 135.238281zm0 0" />
		<path d="m500.046875 502h-160.398437c-22.082032-68.6875-2.050782-135.097656-.867188-138.21875 2.589844-6.839844 3.648438-13.46875 3.894531-17.882812.308594-5.550782-.222656-11.132813-1.515625-16.539063 16.484375.984375 77.402344 7.898437 117.003906 56.632813 35.527344 43.714843 41.882813 116.007812 41.882813 116.007812zm0 0" />
		<path d="m389.210938 502h-49.5625c-19.953126-62.054688-5.371094-122.191406-1.644532-135.578125h.011719c23.167969 6.664063 38.875 28.253906 37.90625 52.339844-.9375 23.335937 1.183594 53.875 13.289063 83.238281zm0 0" />
	</g>
	<path d="m170.519531 502h-51.195312c12.101562-29.363281 14.222656-59.902344 13.289062-83.238281-.96875-24.082031 14.738281-45.675781 37.90625-52.339844l1.734375.339844c3.875 14.03125 18.046875 73.691406-1.734375 135.238281zm0 0" fill="#8690a6" />
	<path d="m389.210938 502h-49.5625c-19.953126-62.054688-5.371094-122.191406-1.644532-135.578125h.011719c23.167969 6.664063 38.875 28.253906 37.90625 52.339844-.9375 23.335937 1.183594 53.875 13.289063 83.238281zm0 0" fill="#8690a6" />
</svg>
