<svg id="Capa_1" enable-background="new 0 0 512.011 512.011" height="512" viewBox="0 0 512.011 512.011" width="512" xmlns="http://www.w3.org/2000/svg"><g><g clip-rule="evenodd" fill-rule="evenodd"><path d="m178.741 312.537c-14.122-14.121-28.243-28.243-42.365-42.364l-14.123 14.122c-46.598 46.598-46.598 122.852 0 169.45l28.24 28.24c3.883 3.883 10.237 3.883 14.121 0l42.364-42.365c3.883-3.883 3.883-10.237 0-14.121l-28.238-28.238c-23.299-23.299-23.299-61.425.001-84.724z" fill="#b58867"/><path d="m206.979 439.62-42.364 42.365 14.17 14.17c7.794 7.794 20.547 7.794 28.341 0l14.024-14.023c7.794-7.794 7.794-20.547 0-28.341z" fill="#eebf50"/><path d="m178.741 312.537c19.033-19.033 38.066-38.066 57.099-57.099 9.289-9.289 8.891-18.115-.619-27.626l-28.242-28.242-42.261 42.261-28.342 28.341c14.121 14.122 28.243 28.244 42.365 42.365z" fill="#b5bacc"/><path d="m136.376 270.173 28.342-28.341-18.245-18.245c-7.794-7.794-20.547-7.794-28.341 0s-7.794 20.548 0 28.341c6.081 6.082 12.162 12.163 18.244 18.245z" fill="#eebf50"/><path d="m355.117 122.182c-21.655 14.537-52.001 37.735-119.897 105.63 9.51 9.51 9.908 18.337.619 27.626 7.766 7.766 20.474 7.766 28.24 0l98.025-98.025c7.766-7.766 7.767-20.476 0-28.242z" fill="#b58867"/><path d="m235.221 227.813c67.895-67.895 98.242-91.093 119.896-105.63 21.462-14.408 34.387-20.31 66.867-52.791 3.799-3.799 3.73-10.084-.153-13.968-14.154-14.154-28.309-28.309-42.464-42.464-3.883-3.883-10.169-3.952-13.968-.153-65.253 65.253-23.235 51.577-158.421 186.764z" fill="#eebf50"/></g><g><path d="m429.056 76.463c7.707-7.708 7.639-20.318-.153-28.11l-42.464-42.465c-7.793-7.792-20.401-7.858-28.11-.153-27.498 27.498-36.578 41.537-47.093 57.792-.9 1.393-1.812 2.803-2.751 4.243-3.014 4.628-1.705 10.822 2.923 13.837 4.628 3.014 10.823 1.706 13.837-2.923.949-1.457 1.873-2.886 2.784-4.295 10.283-15.897 18.408-28.46 44.278-54.348l42.431 42.455c-25.882 25.86-38.441 33.984-54.334 44.264-22.354 14.459-50.032 32.365-125.169 106.924l-14.127-14.127c18.227-18.366 33.712-34.53 47.151-49.219 3.728-4.075 3.446-10.4-.629-14.129-4.076-3.728-10.401-3.445-14.129.629-14.938 16.33-32.469 34.538-53.593 55.662l-35.19 35.189-11.174-11.174c-11.713-11.711-30.77-11.713-42.482 0-5.659 5.658-8.775 13.202-8.776 21.242 0 8.04 3.116 15.584 8.774 21.242l11.173 11.173-7.051 7.051c-50.616 50.616-50.616 132.976 0 183.592l28.24 28.24c3.767 3.767 8.785 5.841 14.131 5.841h.001c1.764 0 3.486-.247 5.145-.685l9.015 9.015c5.856 5.856 13.549 8.784 21.241 8.784 7.693 0 15.386-2.928 21.242-8.784l14.022-14.023c5.659-5.658 8.775-13.202 8.775-21.242 0-8.039-3.116-15.583-8.774-21.241l-9.014-9.014c.438-1.66.685-3.382.685-5.146 0-5.346-2.075-10.364-5.842-14.132l-28.238-28.238c-17.039-17.038-19.158-43.432-6.359-62.798l12.131 12.131c8.535 8.535 19.747 12.803 30.958 12.803s22.423-4.268 30.958-12.803l33.211-33.212c5.646-5.645 8.755-13.171 8.755-21.192s-3.109-15.547-8.754-21.191l-8.49-8.49 90.954-90.954c11.116-11.116 11.648-28.86 1.615-40.623.158-.102.316-.205.474-.306 16.255-10.513 30.292-19.593 57.792-47.092zm-250.316 221.931-28.222-28.221 56.46-56.459 21.17 21.17c6.079 6.078 5.524 8.578.619 13.483zm-53.538-53.537c-1.881-1.881-2.917-4.402-2.917-7.1s1.036-5.219 2.918-7.1c3.913-3.913 10.283-3.915 14.198 0l11.174 11.174-14.199 14.199zm88.876 230.204-14.023 14.023c-3.914 3.915-10.284 3.913-14.198 0l-7.1-7.1 28.222-28.222 7.1 7.1c1.881 1.881 2.917 4.402 2.917 7.1s-1.036 5.218-2.918 7.099zm-42.409-70.728 28.238 28.217-42.343 42.364-28.24-28.24c-42.818-42.818-42.818-112.488 0-155.307l7.052-7.051 28.735 28.735c-20.476 27.361-18.298 66.425 6.558 91.282zm100.901-112.164-33.212 33.212c-9.271 9.273-24.359 9.271-33.631 0l-12.844-12.844 14.343-14.344c7.989 5.905 17.436 9.77 27.325 11.066.441.058.879.086 1.312.086 4.944 0 9.243-3.667 9.902-8.701.718-5.477-3.14-10.497-8.615-11.215-5.528-.725-10.845-2.668-15.547-5.614l15.453-15.453c4.069 1.936 8.484 2.91 12.902 2.91s8.834-.974 12.903-2.91l9.708 9.708c1.867 1.867 2.896 4.371 2.896 7.049.001 2.679-1.027 5.182-2.895 7.05zm82.463-155.929c3.888 3.889 3.888 10.214 0 14.102l-98.025 98.025c-1.754 1.754-4.005 2.709-6.304 2.88 3.044-7.431 2.327-15.163-2.142-22.61 56.165-55.783 85.192-79.296 105.369-93.499z"/><path d="m290.388 119.61c5.522 0 10-4.478 10-10s-4.478-10-10-10h-.008c-5.522 0-9.996 4.478-9.996 10s4.481 10 10.004 10z"/></g></g></svg>