<?xml version="1.0"?>
<svg xmlns="http://www.w3.org/2000/svg" id="Line_cutting_cut_Ex" data-name="Line cutting cut Ex" width="512" height="512" viewBox="0 0 512 512"><path d="M456,316V260a28.0314,28.0314,0,0,0-28-28H378.3752a64.2075,64.2075,0,0,0-6.3273-4.9014,48.0407,48.0407,0,0,0-7.3108-49.9895A27.83,27.83,0,0,0,368,164V148a28.0314,28.0314,0,0,0-28-28H328a8,8,0,0,0-8-8H308.5293L286.86,75.8838a8.0011,8.0011,0,0,0-13.7208,0L251.4707,112H192a8,8,0,0,0-8,8h-8V84a52.0589,52.0589,0,0,1,52-52h56a52.0589,52.0589,0,0,1,52,52v20h16V84a68.0773,68.0773,0,0,0-68-68H228a68.0773,68.0773,0,0,0-68,68v38.7041A28.0363,28.0363,0,0,0,144,148v16a27.83,27.83,0,0,0,3.2629,13.1091,48.0407,48.0407,0,0,0-7.3108,49.9895A64.2075,64.2075,0,0,0,133.6248,232H84a28.0314,28.0314,0,0,0-28,28v56a28.0311,28.0311,0,0,0,15.4277,25.0151L58.3691,465.0693A28.0016,28.0016,0,0,0,86.2158,496H425.7842a28.0018,28.0018,0,0,0,27.8467-30.9316L440.5723,341.0151A28.0311,28.0311,0,0,0,456,316Zm-16-56v56a12.0131,12.0131,0,0,1-12,12H415.5181a27.9691,27.9691,0,0,0-16.4888-20.5488l-4.354-1.8662A64.2593,64.2593,0,0,0,391.481,248H428A12.0131,12.0131,0,0,1,440,260ZM400,480H376V388.96A17.9971,17.9971,0,0,0,384,374V362a17.9971,17.9971,0,0,0-8-14.9595V314.9888l16.7266,7.1684A11.99,11.99,0,0,1,400,333.1875ZM168,301.2754V344H152V308.1326ZM146,376a2.0027,2.0027,0,0,1-2-2V362a2.0027,2.0027,0,0,1,2-2h28a2.0027,2.0027,0,0,1,2,2v12a2.0027,2.0027,0,0,1-2,2ZM184,388.96A17.9971,17.9971,0,0,0,192,374V362a17.9971,17.9971,0,0,0-8-14.9595V294.4182l18.3765-7.8757,5.54,5.5415a68.08,68.08,0,0,0,96.168-.001l5.5395-5.5405L328,294.418v52.6225A17.9971,17.9971,0,0,0,320,362v12a17.9971,17.9971,0,0,0,8,14.9595V480H184Zm72.874-158.37a2.0093,2.0093,0,0,1-1.7969.0049l-42.915-21.458a21.8724,21.8724,0,0,1-12.1484-18.8943L256,176.2461l55.9734,13.9932a21.8858,21.8858,0,0,1-12.0349,18.5439Zm-8.9511,14.3164a18.0717,18.0717,0,0,0,16.1806-.0429l15.0071-7.5991,15.5906,41.5747-1.9307,1.9306a52.0607,52.0607,0,0,1-73.54.001l-1.9317-1.9316,15.5508-41.47ZM360,344H344V301.2749l16,6.8569Zm-22,32a2.0027,2.0027,0,0,1-2-2V362a2.0027,2.0027,0,0,1,2-2h28a2.0027,2.0027,0,0,1,2,2v12a2.0027,2.0027,0,0,1-2,2Zm46-96a48.0165,48.0165,0,0,1-4.0315,19.2822l-72.1018-30.9006-14.396-38.3889,13.6963-6.9351A37.7976,37.7976,0,0,0,327.8955,192H340a27.8269,27.8269,0,0,0,13.4219-3.4321A32.0039,32.0039,0,0,1,354.7,225.6436a8.001,8.001,0,0,0,3.04,11.5488A47.83,47.83,0,0,1,384,280ZM340,136a12.0131,12.0131,0,0,1,12,12v16a12.0131,12.0131,0,0,1-12,12H328V136Zm-84-8a8.0017,8.0017,0,0,0,6.86-3.8838L280,95.5488l17.14,28.5674A8.0017,8.0017,0,0,0,304,128h8v45.7542l-54.06-13.5149a8.0029,8.0029,0,0,0-3.8808,0L200,173.7542V128Zm-96,20a12.0131,12.0131,0,0,1,12-12h12v40H172a12.0131,12.0131,0,0,1-12-12Zm-5.74,89.1924a8.001,8.001,0,0,0,3.04-11.5488,32.0039,32.0039,0,0,1,1.2783-37.0757A27.8269,27.8269,0,0,0,172,192h12.0833a37.77,37.77,0,0,0,20.9226,31.4473l13.4545,6.7275-14.3273,38.2068L132.0317,299.283A48.049,48.049,0,0,1,154.26,237.1924ZM72,260a12.0131,12.0131,0,0,1,12-12h36.519a64.2588,64.2588,0,0,0-3.1938,57.5859l-4.3545,1.8662A27.9667,27.9667,0,0,0,96.4819,328H84a12.0131,12.0131,0,0,1-12-12ZM96,424v56H86.2158a12.0009,12.0009,0,0,1-11.9346-13.2559L87.2021,344H96v64h16V333.1875a11.987,11.987,0,0,1,7.2734-11.0293L136,314.99v32.0508A17.9971,17.9971,0,0,0,128,362v12a17.9971,17.9971,0,0,0,8,14.9595V480H112V424Zm56,56V392h16v88Zm192,0V392h16v88Zm90.7021-3.9707A11.8593,11.8593,0,0,1,425.7842,480H416V344h8.7979l12.9209,122.7432A11.8629,11.8629,0,0,1,434.7021,476.0293Z"/></svg>
