<?xml version="1.0" encoding="iso-8859-1"?>
<!-- Generator: Adobe Illustrator 19.0.0, SVG Export Plug-In . SVG Version: 6.00 Build 0)  -->
<svg version="1.1" id="Capa_1" xmlns="http://www.w3.org/2000/svg" xmlns:xlink="http://www.w3.org/1999/xlink" x="0px" y="0px"
	 viewBox="0 0 470 470" style="enable-background:new 0 0 470 470;" xml:space="preserve">
<g>
	<path style="fill:#E9B264;" d="M235,278.583c49.262,0,89.783,38.124,93.617,86.417h14.635V123.985H126.748V365h14.635
		C145.217,316.707,185.738,278.583,235,278.583z M149.248,190.374h39.037l8.82-45.322c0.687-3.524,3.772-6.067,7.362-6.067h61.066
		c3.59,0,6.676,2.544,7.362,6.067l8.82,45.322h39.037c4.143,0,7.5,3.358,7.5,7.5s-3.357,7.5-7.5,7.5h-35.605
		c0.367,2.471,0.562,4.973,0.562,7.5c0,27.961-22.748,50.709-50.709,50.709s-50.709-22.748-50.709-50.709
		c0-2.527,0.195-5.03,0.562-7.5h-35.605c-4.143,0-7.5-3.358-7.5-7.5S145.105,190.374,149.248,190.374z"/>
	<path style="fill:#E3C498;" d="M66.748,455h48.191l9.489-16.277c1.344-2.305,3.812-3.723,6.479-3.723s5.136,1.417,6.479,3.723
		L146.877,455h256.375V15H66.748V455z M350.752,410h-29.335c-4.143,0-7.5-3.358-7.5-7.5s3.357-7.5,7.5-7.5h29.335
		c4.143,0,7.5,3.358,7.5,7.5S354.895,410,350.752,410z M113.764,45.385c2.823-3.029,7.57-3.195,10.6-0.369l33.466,31.214
		l33.467-31.214c2.881-2.687,7.35-2.688,10.23,0l33.468,31.214l33.468-31.214c2.881-2.687,7.35-2.688,10.23,0l33.472,31.215
		l33.473-31.215c3.03-2.826,7.776-2.658,10.601,0.37c2.824,3.029,2.659,7.775-0.37,10.6L317.279,91.97
		c-1.44,1.343-3.278,2.015-5.115,2.015c-1.838,0-3.675-0.671-5.115-2.015l-33.472-31.215L240.109,91.97
		c-2.881,2.687-7.35,2.687-10.23,0l-33.468-31.214L162.944,91.97c-2.881,2.688-7.35,2.687-10.23,0l-38.581-35.985
		C111.104,53.159,110.938,48.414,113.764,45.385z M111.748,116.485c0-4.142,3.357-7.5,7.5-7.5h231.504c4.143,0,7.5,3.358,7.5,7.5
		V372.5c0,4.142-3.357,7.5-7.5,7.5H119.248c-4.143,0-7.5-3.358-7.5-7.5V116.485z M119.248,395h172.169c4.143,0,7.5,3.358,7.5,7.5
		s-3.357,7.5-7.5,7.5H119.248c-4.143,0-7.5-3.358-7.5-7.5S115.105,395,119.248,395z"/>
	<path style="fill:#8A6F64;" d="M235,293.583c-40.984,0-74.76,31.408-78.551,71.417h157.103
		C309.76,324.991,275.984,293.583,235,293.583z"/>
	<polygon style="fill:#F59B45;" points="266.433,190.374 259.352,153.985 210.648,153.985 203.567,190.374 	"/>
	<path style="fill:#F5C9B0;" d="M269.916,205.374h-69.831c-0.523,2.45-0.793,4.957-0.793,7.5c0,19.69,16.019,35.709,35.709,35.709
		s35.709-16.019,35.709-35.709C270.709,210.331,270.439,207.824,269.916,205.374z"/>
	<path style="fill:#34150C;" d="M410.752,0H59.248c-4.143,0-7.5,3.358-7.5,7.5v455c0,4.142,3.357,7.5,7.5,7.5h60
		c2.668,0,5.136-1.417,6.479-3.723l5.181-8.886l5.181,8.886c1.344,2.305,3.812,3.723,6.479,3.723h268.184c4.143,0,7.5-3.358,7.5-7.5
		V7.5C418.252,3.358,414.895,0,410.752,0z M403.252,455H146.877l-9.489-16.277c-1.344-2.305-3.812-3.723-6.479-3.723
		s-5.136,1.417-6.479,3.723L114.939,455H66.748V15h336.504V455z"/>
	<path style="fill:#34150C;" d="M350.752,395h-29.335c-4.143,0-7.5,3.358-7.5,7.5s3.357,7.5,7.5,7.5h29.335
		c4.143,0,7.5-3.358,7.5-7.5S354.895,395,350.752,395z"/>
	<path style="fill:#34150C;" d="M119.248,410h172.169c4.143,0,7.5-3.358,7.5-7.5s-3.357-7.5-7.5-7.5H119.248
		c-4.143,0-7.5,3.358-7.5,7.5S115.105,410,119.248,410z"/>
	<path style="fill:#34150C;" d="M152.714,91.97c2.881,2.687,7.35,2.688,10.23,0l33.467-31.214l33.468,31.214
		c2.881,2.687,7.35,2.687,10.23,0l33.468-31.214l33.472,31.215c1.44,1.344,3.277,2.015,5.115,2.015c1.837,0,3.675-0.672,5.115-2.015
		l38.588-35.985c3.029-2.825,3.194-7.571,0.37-10.6c-2.824-3.029-7.57-3.196-10.601-0.37L312.164,76.23l-33.472-31.215
		c-2.881-2.688-7.35-2.686-10.23,0l-33.468,31.214l-33.468-31.214c-2.881-2.688-7.35-2.687-10.23,0l-33.467,31.214l-33.466-31.214
		c-3.029-2.826-7.776-2.659-10.6,0.369c-2.825,3.029-2.66,7.775,0.369,10.6L152.714,91.97z"/>
	<path style="fill:#34150C;" d="M119.248,380h231.504c4.143,0,7.5-3.358,7.5-7.5V116.485c0-4.142-3.357-7.5-7.5-7.5H119.248
		c-4.143,0-7.5,3.358-7.5,7.5V372.5C111.748,376.642,115.105,380,119.248,380z M126.748,123.985h216.504V365h-14.635
		c-3.834-48.293-44.356-86.417-93.617-86.417S145.217,316.707,141.383,365h-14.635V123.985z M235,293.583
		c40.984,0,74.76,31.408,78.551,71.417H156.449C160.24,324.991,194.016,293.583,235,293.583z"/>
	<path style="fill:#34150C;" d="M149.248,205.374h35.605c-0.367,2.47-0.562,4.973-0.562,7.5c0,27.961,22.748,50.709,50.709,50.709
		s50.709-22.748,50.709-50.709c0-2.527-0.195-5.029-0.562-7.5h35.605c4.143,0,7.5-3.358,7.5-7.5s-3.357-7.5-7.5-7.5h-39.037
		l-8.82-45.322c-0.687-3.524-3.772-6.067-7.362-6.067h-61.066c-3.59,0-6.676,2.544-7.362,6.067l-8.82,45.322h-39.037
		c-4.143,0-7.5,3.358-7.5,7.5S145.105,205.374,149.248,205.374z M259.352,153.985l7.081,36.389h-62.866l7.081-36.389H259.352z
		 M235,248.583c-19.69,0-35.709-16.019-35.709-35.709c0-2.543,0.27-5.05,0.793-7.5h69.831c0.523,2.45,0.793,4.957,0.793,7.5
		C270.709,232.564,254.69,248.583,235,248.583z"/>
</g>
<g>
</g>
<g>
</g>
<g>
</g>
<g>
</g>
<g>
</g>
<g>
</g>
<g>
</g>
<g>
</g>
<g>
</g>
<g>
</g>
<g>
</g>
<g>
</g>
<g>
</g>
<g>
</g>
<g>
</g>
</svg>
