<?xml version="1.0"?>
<svg xmlns="http://www.w3.org/2000/svg" id="Solid" width="512" height="512" viewBox="0 0 512 512"><path d="M440,260v56a12.0131,12.0131,0,0,1-12,12H415.5181a27.9691,27.9691,0,0,0-16.4888-20.5488l-4.354-1.866A64.26,64.26,0,0,0,391.481,248H428A12.0131,12.0131,0,0,1,440,260ZM400,480H376V388.96A17.9971,17.9971,0,0,0,384,374V362a17.9971,17.9971,0,0,0-8-14.9595V314.9888l16.7266,7.1684A11.99,11.99,0,0,1,400,333.1875ZM168,301.2754V344H152V308.1326ZM146,376a2.0027,2.0027,0,0,1-2-2V362a2.0027,2.0027,0,0,1,2-2h28a2.0027,2.0027,0,0,1,2,2v12a2.0027,2.0027,0,0,1-2,2ZM184,388.96A17.9971,17.9971,0,0,0,192,374V362a17.9971,17.9971,0,0,0-8-14.9595v-52.622l18.3767-7.8758,5.5393,5.5413a68.08,68.08,0,0,0,96.168-.001l5.5395-5.5405L328,294.418v52.6225A17.9971,17.9971,0,0,0,320,362v12a17.9971,17.9971,0,0,0,8,14.9595V480H184Zm34.06-112.1516L232.85,237.3694l15.0733,7.5368a18.0717,18.0717,0,0,0,16.1806-.0429l15.0071-7.5991L293.94,276.8079l-1.0909,2.5456.9366.4014-1.0147,1.0146a52.0607,52.0607,0,0,1-73.54.001l-1.0157-1.0156.9366-.4014ZM340,136a12.0131,12.0131,0,0,1,12,12v16a12.0131,12.0131,0,0,1-12,12H328V136Zm-28,37.7542-54.06-13.5149a8.0029,8.0029,0,0,0-3.8808,0L200,173.7542V128h56a8.0017,8.0017,0,0,0,6.86-3.8838L280,95.5488l17.14,28.5674A8.0017,8.0017,0,0,0,304,128h8Zm-56,2.4919,55.9734,13.9932a21.8858,21.8858,0,0,1-12.0349,18.5439L256.874,230.59a2.0093,2.0093,0,0,1-1.7969.0049l-42.915-21.458a21.8724,21.8724,0,0,1-12.1484-18.8943ZM360,344H344V301.2749l16,6.8569Zm-22,32a2.0027,2.0027,0,0,1-2-2V362a2.0027,2.0027,0,0,1,2-2h28a2.0027,2.0027,0,0,1,2,2v12a2.0027,2.0027,0,0,1-2,2Zm46-96a48.0165,48.0165,0,0,1-4.0315,19.2822l-72.1018-30.9006-14.396-38.3887,13.6963-6.9353A37.7976,37.7976,0,0,0,327.8955,192H340a27.8269,27.8269,0,0,0,13.4219-3.4321A32.0039,32.0039,0,0,1,354.7,225.6436a8.001,8.001,0,0,0,3.04,11.5488A47.83,47.83,0,0,1,384,280ZM228,32h56a52.0589,52.0589,0,0,1,52,52v36h-8a8,8,0,0,0-8-8H308.5293L286.86,75.8838a8.0011,8.0011,0,0,0-13.7208,0L251.4707,112H192a8,8,0,0,0-8,8h-8V84A52.0589,52.0589,0,0,1,228,32ZM160,148a12.0131,12.0131,0,0,1,12-12h12v40H172a12.0131,12.0131,0,0,1-12-12Zm-5.74,89.1924a8.001,8.001,0,0,0,3.04-11.5488,32.0039,32.0039,0,0,1,1.2783-37.0757A27.8269,27.8269,0,0,0,172,192h12.0833a37.77,37.77,0,0,0,20.9226,31.4473l13.4545,6.7275-14.3273,38.207L132.0317,299.283A48.049,48.049,0,0,1,154.26,237.1924ZM72,260a12.0131,12.0131,0,0,1,12-12h36.519a64.2588,64.2588,0,0,0-3.1938,57.5859l-4.3545,1.8662A27.9667,27.9667,0,0,0,96.4819,328H84a12.0131,12.0131,0,0,1-12-12Zm5.2979,216.0293a11.862,11.862,0,0,1-3.0167-9.2852L87.2021,344H96V480H86.2158A11.8593,11.8593,0,0,1,77.2979,476.0293ZM112,333.1875a11.987,11.987,0,0,1,7.2734-11.0293L136,314.99v32.0508A17.9971,17.9971,0,0,0,128,362v12a17.9971,17.9971,0,0,0,8,14.9595V480H112ZM152,480V392h16v88Zm192,0V392h16v88Zm90.7021-3.9707A11.8593,11.8593,0,0,1,425.7842,480H416V344h8.7979l12.9209,122.7432A11.8629,11.8629,0,0,1,434.7021,476.0293Z"/></svg>
