<?xml version="1.0" encoding="iso-8859-1"?>
<!-- Generator: Adobe Illustrator 19.0.0, SVG Export Plug-In . SVG Version: 6.00 Build 0)  -->
<svg version="1.1" id="Capa_1" xmlns="http://www.w3.org/2000/svg" xmlns:xlink="http://www.w3.org/1999/xlink" x="0px" y="0px"
	 viewBox="0 0 469.952 469.952" style="enable-background:new 0 0 469.952 469.952;" xml:space="preserve">
<g>
	<path style="fill:#F59B45;" d="M58.187,245.246c-32.819,35.004-48.182,83.174-41.752,130.56h82.438
		c-14.325-43.136-11.225-89.589,8.647-130.56H58.187z"/>
	<path style="fill:#8A856E;" d="M119.962,208.103c-4.142,0-7.5-3.358-7.5-7.5v-43.957c0-4.142,3.358-7.5,7.5-7.5l0.001-15
		c-4.143,0-7.501-3.358-7.501-7.5v-12.5H90.319V134.5c0,0.005,0,95.746,0,95.746h128.116c4.136,0,7.5-3.365,7.5-7.5v-14.643H119.962
		z"/>
	<path style="fill:#8A856E;" d="M62.462,213.392v16.854h12.857v-35.761C67.799,197.479,62.462,204.817,62.462,213.392z"/>
	<path style="fill:#A7A393;" d="M127.462,156.646v36.457h98.473v-78.957h-98.473v12.5c0,4.142-3.357,7.5-7.499,7.5v15
		C124.105,149.146,127.462,152.504,127.462,156.646z"/>
	<rect x="240.936" y="148.824" style="fill:#A7A393;" width="138.803" height="12.857"/>
	<rect x="240.936" y="114.146" style="fill:#E3C498;" width="214.017" height="19.678"/>
	<path style="fill:#34150C;" d="M462.452,99.146H82.819c-4.142,0-7.5,3.358-7.5,7.5v24.528c-4.937,4.002-11.045,6.179-17.488,6.179
		c-7.436,0-14.427-2.896-19.685-8.154c-2.929-2.929-7.678-2.929-10.606,0c-2.929,2.929-2.929,7.678,0,10.607
		c8.091,8.091,18.849,12.547,30.291,12.547c6.129,0,12.057-1.29,17.488-3.721v30.21c-15.905,3.45-27.857,17.626-27.857,34.549
		v16.854H45.89c-4.142,0-7.5,3.358-7.5,7.5c0,1.948,0.749,3.716,1.966,5.049C7.767,282.023-6.287,334.043,2.629,384.608
		c0.632,3.584,3.747,6.198,7.386,6.198h99.594c2.491,0,4.82-1.237,6.215-3.302s1.673-4.687,0.743-6.998
		c-17.811-44.268-14.927-93.318,7.799-135.26h10.499v15.102c0,15.715,12.785,28.5,28.5,28.5h26.667c15.715,0,28.5-12.785,28.5-28.5
		v-15.104c12.362-0.053,22.404-10.123,22.404-22.498v-46.064h118.803v1.943c0,4.142,3.357,7.5,7.5,7.5s7.5-3.358,7.5-7.5v-1.943
		h12.5c4.143,0,7.5-3.358,7.5-7.5v-20.357h67.714c4.143,0,7.5-3.358,7.5-7.5v-34.678C469.952,102.504,466.595,99.146,462.452,99.146
		z M240.936,161.682v-12.857h138.803v12.857H240.936z M218.435,230.246H90.319v-95.74c0-0.005,0-20.36,0-20.36h22.143v12.5
		c0,4.142,3.358,7.5,7.5,7.5c4.143,0,7.5-3.358,7.5-7.5v-12.5h98.473v78.957h-98.473v-36.457c0-4.142-3.357-7.5-7.499-7.5
		c-4.143,0-7.501,3.358-7.501,7.5v43.957c0,4.142,3.358,7.5,7.5,7.5h105.973v14.643
		C225.935,226.881,222.571,230.246,218.435,230.246z M98.873,375.806H16.435c-6.43-47.385,8.934-95.556,41.752-130.56h49.333
		C87.648,286.217,84.548,332.67,98.873,375.806z M75.319,230.246H62.462v-16.854c0-8.575,5.337-15.913,12.857-18.907V230.246z
		 M454.952,133.824H240.936v-19.678h214.017V133.824z M190.032,273.848h-26.667c-7.444,0-13.5-6.056-13.5-13.5v-15.102h15v6.102
		c0,4.142,3.358,7.5,7.5,7.5s7.5-3.358,7.5-7.5v-6.102h23.667v15.102C203.532,267.791,197.476,273.848,190.032,273.848z"/>
	<path style="fill:#34150C;" d="M413.119,94.146h29.333c4.143,0,7.5-3.358,7.5-7.5s-3.357-7.5-7.5-7.5h-29.333
		c-4.143,0-7.5,3.358-7.5,7.5S408.977,94.146,413.119,94.146z"/>
</g>
<g>
</g>
<g>
</g>
<g>
</g>
<g>
</g>
<g>
</g>
<g>
</g>
<g>
</g>
<g>
</g>
<g>
</g>
<g>
</g>
<g>
</g>
<g>
</g>
<g>
</g>
<g>
</g>
<g>
</g>
</svg>
