<?xml version="1.0" encoding="iso-8859-1"?>
<!-- Generator: Adobe Illustrator 19.0.0, SVG Export Plug-In . SVG Version: 6.00 Build 0)  -->
<svg version="1.1" id="Layer_1" xmlns="http://www.w3.org/2000/svg" xmlns:xlink="http://www.w3.org/1999/xlink" x="0px" y="0px"
	 viewBox="0 0 511.999 511.999" style="enable-background:new 0 0 511.999 511.999;" xml:space="preserve">
<path style="fill:#CC9758;" d="M7.961,445.152l57.017,56.366l62.1-94.579c8.459-12.882,22.166-21.38,37.466-23.225l0,0
	c0,0-39.183-33.934,29.359-88.428s122.129-97.097,122.129-97.097l-25.761-32.402l-110.068,87.509
	c-14.521,11.544-26.421,26.045-34.912,42.537l-22.558,43.817c-3.322,6.454-9.694,10.779-16.918,11.485l-12.175,1.19
	c-5.334,0.521-10.252,3.11-13.701,7.212L7.961,445.152z"/>
<rect x="272.387" y="84.927" transform="matrix(-0.7828 0.6223 -0.6223 -0.7828 770.1251 -69.355)" style="fill:#CCCCCC;" width="249.56" height="29.606"/>
<path d="M510.27,28.7L491.846,5.526c-1.314-1.653-3.231-2.716-5.329-2.955c-2.1-0.24-4.204,0.364-5.857,1.678l-9.832,7.816
	l-1.282-1.613c-2.736-3.442-7.744-4.014-11.185-1.278s-4.013,7.743-1.278,11.185l1.283,1.614l-283.117,225.09
	c-15.507,12.328-27.968,27.509-37.037,45.126l-22.557,43.817c-2.094,4.067-6.062,6.76-10.615,7.206l-12.174,1.19
	c-7.45,0.727-14.205,4.283-19.021,10.013l-32.448,38.595c-2.83,3.366-2.396,8.388,0.97,11.216c3.363,2.83,8.386,2.394,11.215-0.97
	l32.449-38.595c2.122-2.524,5.099-4.091,8.381-4.412l12.175-1.19c9.962-0.973,18.642-6.866,23.222-15.765l22.557-43.817
	c5.915-11.489,13.465-21.804,22.516-30.805c5.607,1.22,16.763,4.368,25.46,11.322l-11.395,9.059
	c-28.413,22.589-43.05,45.032-43.505,66.705c-0.201,9.584,2.469,17.315,5.523,22.97c-12.421,4.32-23.179,12.625-30.543,23.841
	l-56.763,86.45l-44.88-44.367l18.067-21.489c2.83-3.365,2.396-8.388-0.97-11.216c-3.365-2.829-8.385-2.396-11.215,0.97
	L1.868,440.028c-2.671,3.176-2.454,7.868,0.497,10.784l57.017,56.367c1.498,1.482,3.512,2.3,5.596,2.3
	c0.277,0,0.555-0.015,0.834-0.045c2.373-0.251,4.51-1.552,5.82-3.547l62.1-94.579c7.187-10.946,18.765-18.123,31.765-19.692
	c3.127-0.377,5.737-2.563,6.658-5.575c0.921-3.012-0.02-6.284-2.401-8.346c-0.087-0.075-8.682-7.908-8.393-21.601
	c0.098-4.628,1.19-9.444,3.247-14.405c2.037,0.226,4.45,0.396,7.138,0.396c12.226,0,29.963-3.493,42.129-20.986
	c7.078-10.182,7.486-21.553,1.393-32.631l105.716-84.049c1.654-1.314,2.716-3.23,2.955-5.328c0.24-2.097-0.364-4.204-1.677-5.857
	l-2.383-2.996l46.146-36.689c3.442-2.736,4.013-7.744,1.278-11.185c-2.737-3.442-7.747-4.014-11.185-1.277l-46.147,36.689
	l-8.516-10.711L484.338,21.665l8.515,10.711l-117.355,93.302c-3.441,2.736-4.012,7.744-1.277,11.185
	c2.738,3.442,7.747,4.013,11.185,1.277l123.586-98.257C512.434,37.15,513.005,32.142,510.27,28.7z M189.308,256.227l18.705-14.871
	c5.19,1.051,17.2,4.144,26.433,11.527l-21.415,17.026C205.618,263.14,196.778,258.87,189.308,256.227z M200.805,312.011
	c-7.546,10.849-18.568,13.729-26.943,14.128c6.152-8.03,14.518-16.292,24.995-24.621l3.676-2.922
	C204.92,304.581,203.022,308.821,200.805,312.011z M247.131,242.798c-7.412-6.769-16.252-11.039-23.722-13.682l65.584-52.142
	l13.47,16.942c0.003,0.004,0.007,0.007,0.011,0.012l2.373,2.985L247.131,242.798z"/>
<g>
</g>
<g>
</g>
<g>
</g>
<g>
</g>
<g>
</g>
<g>
</g>
<g>
</g>
<g>
</g>
<g>
</g>
<g>
</g>
<g>
</g>
<g>
</g>
<g>
</g>
<g>
</g>
<g>
</g>
</svg>
