<svg height="480pt" viewBox="-8 0 480 480.00003" width="480pt" xmlns="http://www.w3.org/2000/svg">
	<path transform="translate(147, 0)" d="m135.59375 114-7.59375-106.566406c-.296875-4.195313-3.792969-7.4453128-8-7.433594h-8.078125c-2.683594 0-5.183594 1.34375-6.664063 3.574219l-9.1875 13.851562-8.957031-13.785156c-1.476562-2.273437-4.003906-3.640625-6.714843-3.640625h-16.476563c-2.683594 0-5.183594 1.34375-6.664063 3.574219l-9.1875 13.851562-8.957031-13.785156c-1.476562-2.273437-4.003906-3.640625-6.714843-3.640625h-8.398438c-4.207031-.0117188-7.703125 3.238281-8 7.433594l-7.59375 106.566406c-5.152344 2.777344-8.375 8.148438-8.40625 14v280c0 4.417969 3.582031 8 8 8h8v16h-8c-4.417969 0-8 3.582031-8 8v32c0 4.417969 3.582031 8 8 8h128c4.417969 0 8-3.582031 8-8v-32c0-4.417969-3.582031-8-8-8h-8v-16h8c4.417969 0 8-3.582031 8-8v-280c-.03125-5.851562-3.253906-11.222656-8.40625-14zm-104.480469-93.304688 10.175781 15.664063c1.46875 2.261719 3.976563 3.628906 6.671876 3.640625h.039062c2.679688 0 5.183594-1.34375 6.664062-3.574219l13.550782-20.425781h7.839844l13.234374 20.359375c1.476563 2.273437 4 3.640625 6.710938 3.640625 2.679688 0 5.183594-1.34375 6.664062-3.574219l10.238282-15.441406 6.503906 91.015625h-94.8125zm96.886719 443.304688h-112v-16h112zm-16-32h-80v-16h80zm16-32h-112v-272h112zm0 0" />
</svg>
