<svg height="597pt" viewBox="-28 -18 597 597.33331" width="597pt" xmlns="http://www.w3.org/2000/svg">
	<path transform="translate(147, 0)" d="m107.828125 25.53125c-1.847656 2.789062-4.980469 4.46875-8.328125 4.46875-3.371094-.015625-6.503906-1.722656-8.339844-4.550781l-16.59375-25.449219h-9.796875l-16.941406 25.53125c-1.847656 2.789062-4.980469 4.46875-8.328125 4.46875h-.050781c-3.367188-.015625-6.503907-1.722656-8.339844-4.550781l-12.71875-19.582031-8.148437 114.132812h118.515624l-8.128906-113.769531zm0 0" />
	<path transform="translate(147, 0)" d="m-.5 140h140v340h-140zm0 0" />
	<path transform="translate(147, 0)" d="m-.5 540h140v20h-140zm0 0" />
	<path transform="translate(147, 0)" d="m19.5 500h100v20h-100zm0 0" />
</svg>
