<svg height="512" viewBox="0 0 55 60" width="512" xmlns="http://www.w3.org/2000/svg"><g id="Page-1" fill="none" fill-rule="evenodd"><g id="019---Ammunition" fill="rgb(0,0,0)" fill-rule="nonzero"><path id="Shape" d="m3 60h16c1.6568542 0 3-1.3431458 3-3v-2c.0000132-1.6521792-1.335834-2.9933913-2.988-3 .0253415-1.0510998.4551811-2.0519098 1.2-2.794 1.1494526-1.1455906 1.7932215-2.7031655 1.788-4.326v-17.88c-.0052514-1.2667854-.8056491-2.3937454-2-2.816v-4.184c0-14.389-8.124-19.632-8.47-19.848-.3242708-.20266981-.7357292-.20266981-1.06 0-.346.216-8.47 5.459-8.47 19.848v4.184c-1.19435086.4222546-1.99474861 1.5492146-2 2.816v17.88c-.0041656 1.6239029.64146639 3.1819897 1.793 4.327.74274791.7426416 1.17073578 1.7429513 1.195 2.793-1.65216603.0066087-2.98801322 1.3478208-2.988 3v2c0 1.6568542 1.34314575 3 3 3zm1-39h14v3h-14zm7-18.766c1.677 1.33 6.667 6.186 6.971 16.766h-13.942c.305-10.583 5.297-15.439 6.971-16.766zm-9 52.766c0-.5522847.44771525-1 1-1h4c.55228475 0 1-.4477153 1-1s-.44771525-1-1-1h-2.006c-.02486112-1.5815836-.66601894-3.0910133-1.787-4.207-.77512152-.770904-1.20972861-1.8197942-1.207-2.913v-17.88c0-.5522847.44771525-1 1-1h16c.5522847 0 1 .4477153 1 1v17.88c.0027286 1.0932058-.4318785 2.142096-1.207 2.913-1.1209811 1.1159867-1.7621389 2.6254164-1.787 4.207h-5.006c-.5522847 0-1 .4477153-1 1s.4477153 1 1 1h7c.5522847 0 1 .4477153 1 1v2c0 .5522847-.4477153 1-1 1h-16c-.55228475 0-1-.4477153-1-1z"/><path id="Shape" d="m7.112 17.155c.04348184.005124.08721777.0077949.131.008.50145678-.0007593.92481112-.3727979.99-.87.34111297-3.3175402 1.56793606-6.48234313 3.552-9.163.3204555-.4359506.2360513-1.04771291-.1904803-1.38060244-.4265317-.33288953-1.0404729-.2661557-1.3855197.15060244-2.20402377 2.96168246-3.57108739 6.4615449-3.958 10.133-.03462477.2629645.03663799.5289127.19810935.7393319.16147136.2104191.3999226.3480703.66289065.3826681z"/><path id="Shape" d="m5 28c-.55228475 0-1 .4477153-1 1v15.879c0 .5522847.44771525 1 1 1s1-.4477153 1-1v-15.879c0-.5522847-.44771525-1-1-1z"/><path id="Shape" d="m52 3c0-1.65685425-1.3431458-3-3-3h-18c-1.6568542 0-3 1.34314575-3 3v41.278c-.6167513.3544126-.997855 1.0106732-1 1.722v6.184c-1.1943509.4222546-1.9947486 1.5492146-2 2.816v2c0 1.6568542 1.3431458 3 3 3h24c1.6568542 0 3-1.3431458 3-3v-2c-.0052514-1.2667854-.8056491-2.3937454-2-2.816v-6.184c-.002145-.7113268-.3832487-1.3675874-1-1.722zm-21-1h18c.5522847 0 1 .44771525 1 1v41h-11c-.5522847 0-1 .4477153-1 1s.4477153 1 1 1h12v6h-22v-6h5c.5522847 0 1-.4477153 1-1s-.4477153-1-1-1h-4v-41c0-.55228475.4477153-1 1-1zm22 55c0 .5522847-.4477153 1-1 1h-24c-.5522847 0-1-.4477153-1-1v-2c0-.5522847.4477153-1 1-1h24c.5522847 0 1 .4477153 1 1z"/><path id="Shape" d="m33 21c.5522847 0 1-.4477153 1-1v-14h4c.5522847 0 1-.44771525 1-1s-.4477153-1-1-1h-5c-.5522847 0-1 .44771525-1 1v15c0 .5522847.4477153 1 1 1z"/></g></g></svg>