<svg height="512" viewBox="0 0 53 60" width="512" xmlns="http://www.w3.org/2000/svg"><g id="Page-1" fill="none" fill-rule="evenodd"><g id="019---Ammunition" fill="rgb(0,0,0)" fill-rule="nonzero"><path id="Shape" d="m18 54h-16c-1.10320187.0032948-1.9967052.8967981-2 2v2c.0032948 1.1032019.89679813 1.9967052 2 2h16c1.1032019-.0032948 1.9967052-.8967981 2-2v-2c-.0032948-1.1032019-.8967981-1.9967052-2-2z"/><path id="Shape" d="m11.371 1.112c-.7701741-.72513966-1.97182591-.72513966-2.742 0-2.286 2.144-6.629 7.573-6.629 17.888h16c0-10.315-4.343-15.744-6.629-17.888zm-.586 5.018c-1.98406394 2.68065687-3.21088703 5.8454598-3.552 9.163-.06518888.4972021-.48854322.8692407-.99.87-.04378223-.0002051-.08751816-.002876-.131-.008-.26296805-.0345978-.50141929-.172249-.66289065-.3826681-.16147136-.2104192-.23273412-.4763674-.19810935-.7393319.38691261-3.6714551 1.75397623-7.17131754 3.958-10.133.21567178-.29340184.57378326-.44637664.9348755-.39935162.3610922.04702503.6680799.28661569.8014132.62546844.1333333.33885276.0719334.72339818-.1602887 1.00388318z"/><path id="Shape" d="m18 25v-3c0-.5522847-.4477153-1-1-1h-14c-.55228475 0-1 .4477153-1 1v3c-1.10320187.0032948-1.9967052.8967981-2 2v17.88c-.00023464 1.3579174.53939391 2.660221 1.5 3.62.95692087.9129153 1.49886886 2.1774606 1.5 3.5h14c.0011311-1.3225394.5430791-2.5870847 1.5-3.5.9606061-.959779 1.5002346-2.2620826 1.5-3.62v-17.88c-.0032948-1.1032019-.8967981-1.9967052-2-2zm-13 19.879c0 .5522847-.44771525 1-1 1s-1-.4477153-1-1v-15.879c0-.5522847.44771525-1 1-1s1 .4477153 1 1z"/><path id="Shape" d="m51 45c0-.5522847-.4477153-1-1-1h-22c-.5522847 0-1 .4477153-1 1v7h24z"/><rect id="Rectangle-path" height="6" rx="2" width="28" x="25" y="54"/><path id="Shape" d="m38 42h12v-40c-.0032948-1.10320187-.8967981-1.9967052-2-2h-18c-1.1032019.0032948-1.9967052.89679813-2 2v40zm-6-22c-.5522847 0-1-.4477153-1-1v-15c0-.55228475.4477153-1 1-1h5c.5522847 0 1 .44771525 1 1s-.4477153 1-1 1h-4v14c0 .5522847-.4477153 1-1 1z"/></g></g></svg>