<svg height="512" viewBox="0 0 55 60" width="512" xmlns="http://www.w3.org/2000/svg">
	<g id="Page-1" fill="none" fill-rule="evenodd">
		<g id="019---Ammunition" fill="rgb(0,0,0)" fill-rule="nonzero" transform="translate(-28)">
			<path id="Shape" d="m52 3c0-1.65685425-1.3431458-3-3-3h-18c-1.6568542 0-3 1.34314575-3 3v41.278c-.6167513.3544126-.997855 1.0106732-1 1.722v6.184c-1.1943509.4222546-1.9947486 1.5492146-2 2.816v2c0 1.6568542 1.3431458 3 3 3h24c1.6568542 0 3-1.3431458 3-3v-2c-.0052514-1.2667854-.8056491-2.3937454-2-2.816v-6.184c-.002145-.7113268-.3832487-1.3675874-1-1.722zm-21-1h18c.5522847 0 1 .44771525 1 1v41h-11c-.5522847 0-1 .4477153-1 1s.4477153 1 1 1h12v6h-22v-6h5c.5522847 0 1-.4477153 1-1s-.4477153-1-1-1h-4v-41c0-.55228475.4477153-1 1-1zm22 55c0 .5522847-.4477153 1-1 1h-24c-.5522847 0-1-.4477153-1-1v-2c0-.5522847.4477153-1 1-1h24c.5522847 0 1 .4477153 1 1z" />
			<path id="Shape" d="m33 21c.5522847 0 1-.4477153 1-1v-14h4c.5522847 0 1-.44771525 1-1s-.4477153-1-1-1h-5c-.5522847 0-1 .44771525-1 1v15c0 .5522847.4477153 1 1 1z" />
		</g>
	</g>
</svg>
