<svg height="512" viewBox="0 0 61 60" width="512" xmlns="http://www.w3.org/2000/svg"><g id="011---Shotgun-Shell" fill="none"><g id="Layer_3" transform="translate(1 1)"><ellipse id="Oval" cx="12" cy="3" fill="#ffeb3a" rx="11" ry="3"/><path id="Shape" d="m12 0c-.51 0-1.008.013-1.5.031 5.367.199 9.5 1.448 9.5 2.969s-4.133 2.77-9.5 2.969c.492.018.99.031 1.5.031 6.08 0 11-1.34 11-3s-4.92-3-11-3z" fill="#fdd834"/><path id="Shape" d="m23.2 56.07c-1.73 1.13-6.09 1.93-11.2 1.93-6.63 0-12-1.34-12-3v-15c0-.5522847.44771525-1 1-1 0 1.66 4.92 3 11 3 1.8239288.008416 3.6458543-.1219603 5.45-.39-1.5035906 5.5618778.8375894 11.4494367 5.75 14.46z" fill="#ff9801"/><path id="Shape" d="m23 3v30.62l-2.19 2.19c-1.6085605 1.6057562-2.7672064 3.6057996-3.36 5.8-1.8041457.2680397-3.6260712.398416-5.45.39-6.08 0-11-1.34-11-3v-36c0 1.66 4.92 3 11 3s11-1.34 11-3z" fill="#ffdc00"/><path id="Shape" d="m20 5.057v28.563l-2.19 2.19c-1.6085605 1.6057562-2.7672064 3.6057996-3.36 5.8-1.2975744.1959098-2.6054536.3161132-3.917.36.481.018.968.03 1.467.03 1.8239288.008416 3.6458543-.1219603 5.45-.39.5927936-2.1942004 1.7514395-4.1942438 3.36-5.8l2.19-2.19v-30.62c0 .8-1.144 1.52-3 2.057z" fill="#fec108"/><path id="Shape" d="m43 45c0 7.1797017-5.8202983 13-13 13s-13-5.8202983-13-13 5.8202983-13 13-13c3.4509104-.0101318 6.7634013 1.3562534 9.203574 3.796426 2.4401726 2.4401727 3.8065578 5.7526636 3.796426 9.203574z" fill="#ffeb3a"/><path id="Shape" d="m55.4 33.74c-.12.12-.61.61-.73.72l-7.72 7.65c.3282863-3.8497637-1.0719449-7.6462147-3.8213523-10.3608439-2.7494073-2.7146292-6.5633748-4.0664207-10.4086477-3.6891561l7.88-7.8.73-.72c3.9716324-3.5538701 10.031617-3.3718509 13.7827922.4139834 3.7511752 3.7858342 3.877454 9.8472366.2872078 13.7860166z" fill="#ff9801"/><path id="Shape" d="m55.11 19.96c-2.2555895-2.2745811-5.4643409-3.3309035-8.63-2.841 3.6554764.5384864 6.7152179 3.0506807 7.9549705 6.5314118s.4570364 7.3615162-2.0349705 10.0895882c-.12.12-.61.61-.73.72l-4.8 4.755c.134251.9590311.1607492 1.9300746.079 2.895l7.72-7.65c.12-.11.61-.6.73-.72 3.5783061-3.9412577 3.4514025-9.9922333-.289-13.78z" fill="#f57c00"/><path id="Shape" d="m46.95 42.11c-.2536418 3.0544906-1.586573 5.9188748-3.76 8.08l-4 4c3.409211-3.2572227 4.78748-8.1050784 3.6017621-12.6686617s-4.7495171-8.1273825-9.3131004-9.3131004-9.411439.1925511-12.6686617 3.6017621l4-4c3.8617563-3.8570602 9.7216006-4.8911677 14.6703115-2.5889219s7.9323702 7.4505397 7.4696885 12.8889219z" fill="#ffdc00"/><circle id="Oval" cx="30" cy="45" fill="#ff9801" r="2"/></g><g id="Layer_2" fill="#000"><path id="Shape" d="m6 10c-.55228475 0-1 .4477153-1 1v1c0 .5522847.44771525 1 1 1s1-.4477153 1-1v-1c0-.5522847-.44771525-1-1-1z"/><path id="Shape" d="m6 15c-.55228475 0-1 .4477153-1 1v22c0 .5522847.44771525 1 1 1s1-.4477153 1-1v-22c0-.5522847-.44771525-1-1-1z"/><path id="Shape" d="m41.628 19.828-8.381 8.293c-3.0848015.3759829-5.9539025 1.7772537-8.147 3.979-.16.16-.1 2.373-.1-28.1 0-3.158-7.543-4-12-4s-12 .842-12 4v35.278c-.61675126.3544126-.997855 1.0106732-1 1.722v15c0 4.658 18.545 5.042 24.187 2.22 5.4612812 3.0601 12.2917194 2.1119388 16.713-2.32l4-4c2.2492668-2.2356504 3.6645372-5.1745423 4.01-8.327 0 0 8.223-8.146 8.234-8.158 3.9774493-4.3371323 3.8402819-11.0355258-.3113874-15.2061927-4.1516692-4.170667-10.8493666-4.3384142-15.2046126-.3808073zm-23.947 21.872c-1.5521962.2012029-3.1158184.3014137-4.681.3-6.049 0-9.729-1.329-10-2v-33.622c4.446 2.152 15.548 2.154 20 0v27.828c-2.262 2.262-4.145 3.868-5.319 7.494zm-4.681-39.7c5.925 0 9.582 1.278 9.986 2-.4.722-4.061 2-9.986 2-6.017 0-9.692-1.318-10-1.949v-.018c.308-.715 3.983-2.033 10-2.033zm0 56c-6.679 0-10.66-1.327-11-2v-14.223c2.974 2.317 11.119 2.445 15.193 2-.8132629 4.9454724 1.0968208 9.9460715 5 13.09-2.9926937.8239073-6.0898136 1.2056148-9.193 1.133zm6-12c0-6.627417 5.372583-12 12-12s12 5.372583 12 12-5.372583 12-12 12c-6.624447-.0071648-11.9928352-5.375553-12-12zm25.635 3.13c1.0788734-4.6957822-.3348718-9.6162691-3.7418014-13.0231986-3.4069295-3.4069296-8.3274164-4.8206748-13.0231986-3.7418014 4.7702867-3.5435517 11.4169665-3.055822 15.6188943 1.1461057 4.2019277 4.2019278 4.6896574 10.8486076 1.1461057 15.6188943zm10.993-15.03c-.544.57 1.943-1.93-6.69 6.625-.6131106-6.7693306-6.0074921-12.1160228-12.782-12.669l6.844-6.769c3.5816952-3.1967749 9.0413407-3.0220164 12.4112614.3972736 3.3699208 3.41929 3.4652629 8.8808997.2167386 12.4157264z"/><path id="Shape" d="m32 39c0-.5522847-.4477153-1-1-1-4.4162219.0049599-7.9950401 3.5837781-8 8 0 .5522847.4477153 1 1 1s1-.4477153 1-1c.0033074-3.3123376 2.6876624-5.9966926 6-6 .5522847 0 1-.4477153 1-1z"/><path id="Shape" d="m38 45c-.5522847 0-1 .4477153-1 1-.0033074 3.3123376-2.6876624 5.9966926-6 6-.5522847 0-1 .4477153-1 1s.4477153 1 1 1c4.4162219-.0049599 7.9950401-3.5837781 8-8 0-.5522847-.4477153-1-1-1z"/><path id="Shape" d="m34 46c0-1.6568542-1.3431458-3-3-3s-3 1.3431458-3 3 1.3431458 3 3 3 3-1.3431458 3-3zm-4 0c0-.5522847.4477153-1 1-1s1 .4477153 1 1-.4477153 1-1 1-1-.4477153-1-1z"/></g></g></svg>