<svg height="512" viewBox="0 0 53 60" width="512" xmlns="http://www.w3.org/2000/svg">
	<g id="Page-1" fill="none" fill-rule="evenodd">
		<g id="019---Ammunition" fill="rgb(0,0,0)" fill-rule="nonzero" transform="translate(-28)">
			<path id="Shape" d="m51 45c0-.5522847-.4477153-1-1-1h-22c-.5522847 0-1 .4477153-1 1v7h24z" />
			<rect id="Rectangle-path" height="6" rx="2" width="28" x="25" y="54" />
			<path id="Shape" d="m38 42h12v-40c-.0032948-1.10320187-.8967981-1.9967052-2-2h-18c-1.1032019.0032948-1.9967052.89679813-2 2v40zm-6-22c-.5522847 0-1-.4477153-1-1v-15c0-.55228475.4477153-1 1-1h5c.5522847 0 1 .44771525 1 1s-.4477153 1-1 1h-4v14c0 .5522847-.4477153 1-1 1z" />
		</g>
	</g>
</svg>
