<svg id="Capa_1" enable-background="new 0 0 512.004 512.004" height="512" viewBox="0 0 512.004 512.004" width="512" xmlns="http://www.w3.org/2000/svg">
	<g>
		<g clip-rule="evenodd" fill-rule="evenodd">
			<path d="m282.392 189.268 28.186-28.186 28.186-28.186 54.59-54.591 37.213-37.213c3.876-3.875 3.876-10.216 0-14.092l-14.093-14.093c-3.876-3.876-10.217-3.876-14.092 0l-204.34 204.34 28.185 28.185 27.979-27.979z" />
			<path d="m338.764 132.897 28.186 28.186 40.498-40.498c7.751-7.751 7.751-20.434 0-28.186l-14.093-14.093z" />
			<g>
				<path d="m318.834 141.152h39.861v39.861h-39.861z" transform="matrix(.707 -.707 .707 .707 -14.681 286.722)" />
				<path d="m290.648 169.338h39.861v39.861h-39.861z" transform="matrix(.707 -.707 .707 .707 -42.867 275.046)" />
				<path d="m262.462 197.524h39.861v39.861h-39.861z" transform="matrix(.707 -.707 .707 .707 -71.052 263.372)" />
				<path d="m282.392 245.64-28.186-28.186-27.979 27.979c9.491 9.491 9.888 18.299.618 27.57 7.751 7.751 20.433 7.751 28.184 0z" />
			</g>
			<path d="m226.845 273.003c9.27-9.271 8.874-18.079-.618-27.57l-28.185-28.185-70.46 70.46 42.279 42.279c18.995-18.994 37.989-37.989 56.984-56.984z" />
			<path d="m169.861 414.541c-23.253-23.253-23.253-61.302 0-84.554l-42.279-42.279-14.094 14.094c-46.505 46.505-46.505 122.604 0 169.109l28.183 28.183c3.875 3.875 10.217 3.876 14.092 0l42.28-42.279c3.876-3.876 3.876-10.217 0-14.092z" />
		</g>
		<g>
			<path d="m443.474 34.048c0-5.341-2.072-10.354-5.835-14.118l-14.093-14.092c-7.783-7.783-20.448-7.785-28.235-.001l-14.168 14.168-5.645-5.645c-3.904-3.905-10.234-3.905-14.143 0-3.905 3.905-3.905 10.237 0 14.142l5.646 5.646-42.043 42.042c-3.905 3.905-3.905 10.237 0 14.143 3.906 3.905 10.236 3.905 14.143 0l70.303-70.352 14.092 14.042-197.269 197.268-14.042-14.042 63.276-63.276c3.905-3.905 3.905-10.237 0-14.143-3.905-3.904-10.237-3.904-14.143 0l-70.348 70.347-84.555 84.555c-.001.001-.003.003-.004.004-1.873 1.87-4.382 2.901-7.066 2.901-2.687 0-5.198-1.032-7.071-2.905s-2.905-4.384-2.905-7.071 1.032-5.198 2.905-7.071c3.905-3.905 3.905-10.237 0-14.143-3.906-3.905-10.236-3.905-14.143 0-5.65 5.651-8.763 13.185-8.763 21.213 0 8.029 3.112 15.563 8.763 21.213 3.195 3.195 6.993 5.577 11.142 7.045-32.516 50.188-26.808 118.113 17.142 162.064l28.185 28.184c3.892 3.892 9.004 5.837 14.116 5.837s10.226-1.946 14.117-5.838l42.28-42.28c7.783-7.784 7.783-20.449 0-28.234l-28.183-28.182c-9.357-9.357-14.511-21.86-14.511-35.206 0-9.921 2.853-19.373 8.158-27.416l12.086 12.086c8.522 8.522 19.714 12.783 30.909 12.782 11.192-.001 22.389-4.262 30.91-12.782l33.146-33.146c11.669-11.669 11.669-30.657 0-42.327l-8.459-8.459 145.348-145.348c11.67-11.67 11.67-30.658 0-42.328l-7.022-7.022 30.14-30.14c3.766-3.761 5.839-8.774 5.839-14.115zm-104.71 141.078-14.044-14.044 14.044-14.044 14.043 14.044zm-28.186 28.185-14.044-14.043 14.043-14.043 14.044 14.044zm-28.185 28.186-14.043-14.044 14.043-14.043 14.044 14.043zm-34.436 34.435c-1.732 1.732-3.95 2.683-6.219 2.865 1.305-3.19 1.922-6.454 1.829-9.775-.12-4.333-1.463-8.612-3.993-12.795l14.632-14.632 14.043 14.043zm-78.096 49.913-28.136-28.136 56.318-56.318 21.113 21.114c2.802 2.801 4.371 5.314 4.42 7.076.061 2.159-2.355 4.907-3.802 6.352zm-7.071 105.768 28.183 28.131-42.229 42.28-28.184-28.184c-42.724-42.724-42.724-112.242 0-154.966l7.023-7.023 28.645 28.645c-8.957 11.966-13.806 26.476-13.806 41.768-.001 18.689 7.233 36.214 20.368 49.349zm100.698-111.967-33.146 33.145c-9.245 9.246-24.289 9.246-33.534 0l-12.805-12.804 14.288-14.288c7.972 5.89 17.399 9.745 27.266 11.038.441.058.879.086 1.312.086 4.944 0 9.243-3.667 9.902-8.702.718-5.476-3.14-10.497-8.615-11.214-5.505-.722-10.802-2.656-15.486-5.587l15.394-15.394c4.06 1.93 8.465 2.9 12.872 2.9s8.813-.97 12.872-2.9l9.678 9.678c3.873 3.872 3.873 10.171.002 14.042zm136.888-210.176c3.872 3.872 3.872 10.171 0 14.043l-33.426 33.427-14.044-14.044 40.448-40.448z" />
			<path d="m300.205 125.084c2.719 0 5.429-1.103 7.402-3.273l.005-.005c3.715-4.086 3.411-10.408-.675-14.123-4.088-3.714-10.414-3.412-14.129.675-3.715 4.086-3.414 10.411.673 14.126 1.916 1.741 4.323 2.6 6.724 2.6z" />
		</g>
	</g>
</svg>
